G04 ---------------------------- Layer name :TOP SOLDER LAYER*
G04 EasyEDA v5.8.20, Mon, 19 Nov 2018 12:00:09 GMT*
G04 c1adaa7c60de435bb68341a8a3b3a182*
G04 Gerber Generator version 0.2*
G04 Scale: 100 percent, Rotated: No, Reflected: No *
G04 Dimensions in millimeters *
G04 leading zeros omitted , absolute positions ,3 integer and 3 decimal *
%FSLAX33Y33*%
%MOMM*%
G90*
G71D02*

%ADD43C,0.483210*%
%ADD44R,1.363218X1.673098*%
%ADD45R,1.673098X1.363218*%
%ADD46R,1.703070X2.003298*%
%ADD47R,1.703070X2.703068*%
%ADD48R,4.003192X2.203196*%
%ADD49R,1.703197X2.203196*%
%ADD50R,0.803148X0.853186*%
%ADD51R,0.853186X0.803148*%
%ADD52R,1.402080X1.402080*%
%ADD53R,0.903199X1.453210*%
%ADD54R,0.703199X2.703195*%
%ADD55R,0.703199X1.803197*%
%ADD56R,1.503680X1.353820*%
%ADD57R,0.753212X0.803148*%
%ADD58R,0.502920X1.003300*%
%ADD59R,1.003300X0.502920*%
%ADD60R,1.727200X1.727200*%

%LPD*%
G54D43*
G01X19110Y27391D02*
G01X19110Y25872D01*
G01X19611Y27391D02*
G01X19611Y25872D01*
G01X20109Y27391D02*
G01X20109Y25872D01*
G01X20609Y27391D02*
G01X20609Y25872D01*
G01X21109Y27391D02*
G01X21109Y25872D01*
G01X21610Y27391D02*
G01X21610Y25872D01*
G01X22110Y27391D02*
G01X22110Y25872D01*
G01X22611Y27391D02*
G01X22611Y25872D01*
G01X23108Y27391D02*
G01X23108Y25872D01*
G01X23609Y27391D02*
G01X23609Y25872D01*
G01X24109Y27391D02*
G01X24109Y25872D01*
G01X24610Y27391D02*
G01X24610Y25872D01*
G01X25110Y27391D02*
G01X25110Y25872D01*
G01X25610Y27391D02*
G01X25610Y25872D01*
G01X26111Y27391D02*
G01X26111Y25872D01*
G01X26609Y27391D02*
G01X26609Y25872D01*
G01X27650Y24831D02*
G01X29169Y24831D01*
G01X27650Y24330D02*
G01X29169Y24330D01*
G01X27650Y23832D02*
G01X29169Y23832D01*
G01X27650Y23332D02*
G01X29169Y23332D01*
G01X27650Y22832D02*
G01X29169Y22832D01*
G01X27650Y22331D02*
G01X29169Y22331D01*
G01X27650Y21831D02*
G01X29169Y21831D01*
G01X27650Y21330D02*
G01X29169Y21330D01*
G01X27650Y20833D02*
G01X29169Y20833D01*
G01X27650Y20332D02*
G01X29169Y20332D01*
G01X27650Y19832D02*
G01X29169Y19832D01*
G01X27650Y19331D02*
G01X29169Y19331D01*
G01X27650Y18831D02*
G01X29169Y18831D01*
G01X27650Y18331D02*
G01X29169Y18331D01*
G01X27650Y17830D02*
G01X29169Y17830D01*
G01X27650Y17332D02*
G01X29169Y17332D01*
G01X26609Y16291D02*
G01X26609Y14772D01*
G01X26111Y16291D02*
G01X26111Y14772D01*
G01X25610Y16291D02*
G01X25610Y14772D01*
G01X25110Y16291D02*
G01X25110Y14772D01*
G01X24610Y16291D02*
G01X24610Y14772D01*
G01X24109Y16291D02*
G01X24109Y14772D01*
G01X23609Y16291D02*
G01X23609Y14772D01*
G01X23108Y16291D02*
G01X23108Y14772D01*
G01X22611Y16291D02*
G01X22611Y14772D01*
G01X22110Y16291D02*
G01X22110Y14772D01*
G01X21610Y16291D02*
G01X21610Y14772D01*
G01X21109Y16291D02*
G01X21109Y14772D01*
G01X20609Y16291D02*
G01X20609Y14772D01*
G01X20109Y16291D02*
G01X20109Y14772D01*
G01X19611Y16291D02*
G01X19611Y14772D01*
G01X19110Y16291D02*
G01X19110Y14772D01*
G01X16550Y17332D02*
G01X18069Y17332D01*
G01X16550Y17830D02*
G01X18069Y17830D01*
G01X16550Y18331D02*
G01X18069Y18331D01*
G01X16550Y18831D02*
G01X18069Y18831D01*
G01X16550Y19331D02*
G01X18069Y19331D01*
G01X16550Y19832D02*
G01X18069Y19832D01*
G01X16550Y20332D02*
G01X18069Y20332D01*
G01X16550Y20833D02*
G01X18069Y20833D01*
G01X16550Y21330D02*
G01X18069Y21330D01*
G01X16550Y21831D02*
G01X18069Y21831D01*
G01X16550Y22331D02*
G01X18069Y22331D01*
G01X16550Y22832D02*
G01X18069Y22832D01*
G01X16550Y23332D02*
G01X18069Y23332D01*
G01X16550Y23832D02*
G01X18069Y23832D01*
G01X16550Y24330D02*
G01X18069Y24330D01*
G01X16550Y24831D02*
G01X18069Y24831D01*
G54D44*
G01X14478Y8382D03*
G01X16510Y8382D03*
G54D45*
G01X26162Y5587D03*
G01X26162Y7619D03*
G54D44*
G01X18034Y5842D03*
G01X20066Y5842D03*
G36*
G01X34988Y19255D02*
G01X34988Y19860D01*
G01X36639Y19860D01*
G01X36639Y19255D01*
G01X34988Y19255D01*
G37*
G36*
G01X34988Y18605D02*
G01X34988Y19210D01*
G01X36639Y19210D01*
G01X36639Y18605D01*
G01X34988Y18605D01*
G37*
G36*
G01X34988Y17955D02*
G01X34988Y18559D01*
G01X36639Y18559D01*
G01X36639Y17955D01*
G01X34988Y17955D01*
G37*
G36*
G01X34988Y19905D02*
G01X34988Y20510D01*
G01X36639Y20510D01*
G01X36639Y19905D01*
G01X34988Y19905D01*
G37*
G36*
G01X34988Y20556D02*
G01X34988Y21160D01*
G01X36639Y21160D01*
G01X36639Y20556D01*
G01X34988Y20556D01*
G37*
G54D46*
G01X38538Y15872D03*
G54D47*
G01X38538Y19558D03*
G54D46*
G01X38538Y23243D03*
G54D48*
G01X4064Y20675D03*
G54D49*
G01X4064Y14375D03*
G01X6363Y14375D03*
G01X1764Y14375D03*
G54D45*
G01X7112Y8889D03*
G01X7112Y10921D03*
G01X4318Y8889D03*
G01X4318Y10921D03*
G54D44*
G01X12446Y24892D03*
G01X14478Y24892D03*
G01X12446Y18796D03*
G01X14478Y18796D03*
G01X31242Y26924D03*
G01X33274Y26924D03*
G54D45*
G01X28448Y10159D03*
G01X28448Y12191D03*
G01X18796Y31750D03*
G01X18796Y29718D03*
G54D50*
G01X32087Y19558D03*
G01X32936Y19558D03*
G54D51*
G01X24130Y30817D03*
G01X24130Y31666D03*
G01X22860Y30817D03*
G01X22860Y31666D03*
G54D52*
G01X26670Y38379D03*
G01X26670Y36296D03*
G01X28448Y38379D03*
G01X28448Y36296D03*
G54D53*
G01X10414Y10901D03*
G01X11363Y8402D03*
G01X9464Y8402D03*
G54D44*
G01X20066Y3555D03*
G01X18034Y3555D03*
G54D50*
G01X15831Y10668D03*
G01X16680Y10668D03*
G54D54*
G01X11755Y21844D03*
G01X14152Y21844D03*
G54D55*
G01X12954Y21844D03*
G54D56*
G01X27762Y31800D03*
G01X27762Y29667D03*
G01X31673Y29667D03*
G01X31673Y31800D03*
G54D51*
G01X33782Y31071D03*
G01X33782Y31920D03*
G54D50*
G01X32087Y18288D03*
G01X32936Y18288D03*
G54D51*
G01X32258Y13632D03*
G01X32258Y12783D03*
G54D44*
G01X33274Y24891D03*
G01X31242Y24891D03*
G54D45*
G01X26416Y10159D03*
G01X26416Y12191D03*
G54D51*
G01X22098Y28785D03*
G01X22098Y29634D03*
G01X21590Y31666D03*
G01X21590Y30817D03*
G54D57*
G01X36576Y27087D03*
G01X37236Y25237D03*
G01X35915Y25237D03*
G54D51*
G01X31496Y21165D03*
G01X31496Y22014D03*
G01X35052Y23792D03*
G01X35052Y22943D03*
G54D58*
G01X23088Y11404D03*
G01X22606Y11404D03*
G01X22098Y11404D03*
G01X21590Y11404D03*
G01X21082Y11404D03*
G01X20599Y11404D03*
G54D59*
G01X19837Y10642D03*
G01X19837Y10160D03*
G01X19837Y9652D03*
G01X19837Y9144D03*
G01X19837Y8636D03*
G01X19837Y8153D03*
G54D58*
G01X20599Y7391D03*
G01X21082Y7391D03*
G01X21590Y7391D03*
G01X22098Y7391D03*
G01X22606Y7391D03*
G01X23088Y7391D03*
G54D59*
G01X23850Y8153D03*
G01X23850Y8636D03*
G01X23850Y9144D03*
G01X23850Y9652D03*
G01X23850Y10160D03*
G01X23850Y10642D03*
G54D51*
G01X32258Y15831D03*
G01X32258Y16680D03*
G54D60*
G01X7874Y1778D03*
G01X23622Y1524D03*
G01X9906Y1778D03*
G01X11938Y1778D03*
G01X13970Y1778D03*
G01X16002Y1778D03*
G01X25654Y1524D03*
G01X27686Y1524D03*
G01X29718Y1524D03*
G01X31750Y1524D03*
G01X38862Y27686D03*
G01X38862Y29972D03*
G01X38862Y32004D03*
G01X38862Y25654D03*
G01X1778Y24638D03*
G01X1778Y26924D03*
G01X1778Y28956D03*
G01X1778Y30988D03*
G01X1778Y33020D03*
G01X1778Y35306D03*
G01X1778Y37592D03*
G01X8636Y38100D03*
G01X10922Y38100D03*
G01X13208Y38100D03*
G01X15494Y38100D03*
G01X5842Y29718D03*
G01X5842Y32004D03*
G01X22352Y38100D03*
G01X24384Y38100D03*
G01X20320Y38100D03*
G01X18034Y38100D03*
G01X18034Y35052D03*
G01X20320Y35052D03*
G01X1778Y4064D03*
G01X1778Y1778D03*
M00*
M02*
