;PTH Drill file created by EasyEDA 
M48
METRIC,LZ,000.000
;Holesize 1 = 0.305 METRIC
T01C0.305
;Holesize 2 = 0.306 METRIC
T02C0.306
;Holesize 3 = 0.501 METRIC
T03C0.501
;Holesize 4 = 0.610 METRIC
T04C0.610
;Holesize 5 = 0.915 METRIC
T05C0.915
%
G05
G90
T01
X+021082Y+009652
X+021082Y+012954
X+022098Y+012700
X+024892Y+011176
X+023114Y+013970
X+018288Y+012700
X+018034Y+011176
X+018034Y+008128
X+024638Y+029464
X+023622Y+024892
X+030988Y+018542
X+026924Y+022860
X+030226Y+019558
X+026924Y+024384
X+012446Y+005080
X+029718Y+006096
X+029718Y+013208
X+030988Y+016510
X+001270Y+011430
X+013208Y+014224
X+015240Y+030734
X+026416Y+029718
X+027686Y+015494
X+014224Y+006096
X+011684Y+007112
X+015494Y+015748
X+011430Y+016002
X+023622Y+017018
X+011430Y+017018
X+024384Y+017272
X+011176Y+018288
X+009398Y+019304
X+009398Y+021844
X+025400Y+017526
X+010922Y+024130
X+026162Y+017018
X+011176Y+025146
X+032258Y+023114
T02
X+014224Y+026162
X+019050Y+025146
X+017780Y+026416
X+034036Y+020320
X+036830Y+024130
X+030480Y+021590
X+030226Y+020574
X+020574Y+021336
X+020320Y+023114
X+020320Y+025146
X+013716Y+028702
X+025400Y+024384
X+014986Y+029210
X+009144Y+025146
X+008128Y+024384
X+006096Y+024384
X+004064Y+027432
X+018796Y+019304
X+033020Y+021844
X+011176Y+026162
X+012192Y+027940
X+010922Y+030226
X+020320Y+029718
T03
X+022098Y+029634
T04
X+012954Y+021844
T05
X+007874Y+001778
X+023622Y+001524
X+009906Y+001778
X+011938Y+001778
X+013970Y+001778
X+016002Y+001778
X+025654Y+001524
X+027686Y+001524
X+029718Y+001524
X+031750Y+001524
X+038862Y+027686
X+038862Y+029972
X+038862Y+032004
X+038862Y+025654
X+001778Y+024638
X+001778Y+026924
X+001778Y+028956
X+001778Y+030988
X+001778Y+033020
X+001778Y+035306
X+001778Y+037592
X+008636Y+038100
X+010922Y+038100
X+013208Y+038100
X+015494Y+038100
X+005842Y+029718
X+005842Y+032004
X+022352Y+038100
X+024384Y+038100
X+020320Y+038100
X+018034Y+038100
X+018034Y+035052
X+020320Y+035052
X+001778Y+004064
X+001778Y+001778
M30
