G04 ---------------------------- Layer name :TOP SILK LAYER*
G04 EasyEDA v5.8.20, Mon, 19 Nov 2018 12:00:09 GMT*
G04 c1adaa7c60de435bb68341a8a3b3a182*
G04 Gerber Generator version 0.2*
G04 Scale: 100 percent, Rotated: No, Reflected: No *
G04 Dimensions in millimeters *
G04 leading zeros omitted , absolute positions ,3 integer and 3 decimal *
%FSLAX33Y33*%
%MOMM*%
G90*
G71D02*

%ADD10C,0.254000*%
%ADD11C,0.200000*%
%ADD33C,0.199898*%
%ADD34C,0.304800*%
%ADD35C,0.119990*%
%ADD36C,0.101600*%
%ADD37C,0.100000*%
%ADD38C,0.248920*%
%ADD39C,0.599999*%
%ADD40C,0.299999*%
%ADD41C,0.177800*%

%LPD*%
G54D33*
G01X16047Y7348D02*
G01X17368Y7348D01*
G01X17368Y9418D01*
G01X16047Y9418D01*
G01X14917Y7348D02*
G01X13596Y7348D01*
G01X13596Y9418D01*
G01X14917Y9418D01*
G01X27195Y7157D02*
G01X27195Y8478D01*
G01X25125Y8478D01*
G01X25125Y7157D01*
G01X27195Y6027D02*
G01X27195Y4706D01*
G01X25125Y4706D01*
G01X25125Y6027D01*
G01X19603Y4808D02*
G01X20924Y4808D01*
G01X20924Y6878D01*
G01X19603Y6878D01*
G01X18473Y4808D02*
G01X17152Y4808D01*
G01X17152Y6878D01*
G01X18473Y6878D01*
G54D34*
G01X35557Y15565D02*
G01X36537Y15565D01*
G01X36537Y15557D01*
G01X35539Y15557D02*
G01X35539Y16558D01*
G01X36537Y23558D02*
G01X35539Y23558D01*
G01X35539Y22557D01*
G01X39540Y15557D02*
G01X40538Y15557D01*
G01X39540Y23558D02*
G01X40538Y23558D01*
G54D35*
G01X7475Y15676D02*
G01X7475Y19436D01*
G01X6212Y19436D01*
G01X652Y13426D02*
G01X652Y19436D01*
G01X1915Y19436D01*
G54D33*
G01X8145Y10459D02*
G01X8145Y11780D01*
G01X6075Y11780D01*
G01X6075Y10459D01*
G01X8145Y9329D02*
G01X8145Y8008D01*
G01X6075Y8008D01*
G01X6075Y9329D01*
G01X5351Y10459D02*
G01X5351Y11780D01*
G01X3281Y11780D01*
G01X3281Y10459D01*
G01X5351Y9329D02*
G01X5351Y8008D01*
G01X3281Y8008D01*
G01X3281Y9329D01*
G01X14015Y23858D02*
G01X15336Y23858D01*
G01X15336Y25928D01*
G01X14015Y25928D01*
G01X12885Y23858D02*
G01X11564Y23858D01*
G01X11564Y25928D01*
G01X12885Y25928D01*
G01X14015Y17762D02*
G01X15336Y17762D01*
G01X15336Y19832D01*
G01X14015Y19832D01*
G01X12885Y17762D02*
G01X11564Y17762D01*
G01X11564Y19832D01*
G01X12885Y19832D01*
G01X32811Y25890D02*
G01X34132Y25890D01*
G01X34132Y27960D01*
G01X32811Y27960D01*
G01X31681Y25890D02*
G01X30360Y25890D01*
G01X30360Y27960D01*
G01X31681Y27960D01*
G01X29481Y11729D02*
G01X29481Y13050D01*
G01X27411Y13050D01*
G01X27411Y11729D01*
G01X29481Y10599D02*
G01X29481Y9278D01*
G01X27411Y9278D01*
G01X27411Y10599D01*
G01X17762Y30180D02*
G01X17762Y28859D01*
G01X19832Y28859D01*
G01X19832Y30180D01*
G01X17762Y31310D02*
G01X17762Y32631D01*
G01X19832Y32631D01*
G01X19832Y31310D01*
G54D36*
G01X32697Y19126D02*
G01X33332Y19126D01*
G01X33332Y19989D01*
G01X32799Y19989D01*
G01X32697Y19989D01*
G01X32316Y19989D02*
G01X31706Y19989D01*
G01X31706Y19126D01*
G01X32240Y19126D01*
G01X32316Y19126D01*
G01X24561Y31427D02*
G01X24561Y32062D01*
G01X23698Y32062D01*
G01X23698Y31529D01*
G01X23698Y31427D01*
G01X23698Y31046D02*
G01X23698Y30436D01*
G01X24561Y30436D01*
G01X24561Y30970D01*
G01X24561Y31046D01*
G01X23291Y31427D02*
G01X23291Y32062D01*
G01X22428Y32062D01*
G01X22428Y31529D01*
G01X22428Y31427D01*
G01X22428Y31046D02*
G01X22428Y30436D01*
G01X23291Y30436D01*
G01X23291Y30970D01*
G01X23291Y31046D01*
G54D10*
G01X11214Y10302D02*
G01X11874Y10302D01*
G01X11214Y10302D01*
G01X11874Y10302D01*
G01X11874Y9486D01*
G01X8953Y9486D02*
G01X8953Y10302D01*
G01X9613Y10302D01*
G54D11*
G01X10114Y8752D02*
G01X10713Y8752D01*
G54D33*
G01X18496Y4589D02*
G01X17175Y4589D01*
G01X17175Y2519D01*
G01X18496Y2519D01*
G01X19626Y4589D02*
G01X20947Y4589D01*
G01X20947Y2519D01*
G01X19626Y2519D01*
G54D36*
G01X16441Y10236D02*
G01X17076Y10236D01*
G01X17076Y11099D01*
G01X16543Y11099D01*
G01X16441Y11099D01*
G01X16060Y11099D02*
G01X15450Y11099D01*
G01X15450Y10236D01*
G01X15984Y10236D01*
G01X16060Y10236D01*
G54D10*
G01X11353Y22494D02*
G01X14554Y22494D01*
G01X14554Y21193D02*
G01X14554Y22494D01*
G01X14554Y21193D02*
G01X11353Y21193D01*
G01X11353Y22494D02*
G01X11353Y21193D01*
G01X30911Y29133D02*
G01X28524Y29133D01*
G01X28524Y32334D02*
G01X30911Y32334D01*
G01X27609Y31140D02*
G01X27609Y30327D01*
G01X31826Y30327D02*
G01X31826Y31140D01*
G01X29311Y31826D02*
G01X30124Y31826D01*
G01X30124Y29641D02*
G01X29311Y29641D01*
G54D36*
G01X34213Y31681D02*
G01X34213Y32316D01*
G01X33350Y32316D01*
G01X33350Y31783D01*
G01X33350Y31681D01*
G01X33350Y31300D02*
G01X33350Y30690D01*
G01X34213Y30690D01*
G01X34213Y31224D01*
G01X34213Y31300D01*
G01X32697Y17856D02*
G01X33332Y17856D01*
G01X33332Y18719D01*
G01X32799Y18719D01*
G01X32697Y18719D01*
G01X32316Y18719D02*
G01X31706Y18719D01*
G01X31706Y17856D01*
G01X32240Y17856D01*
G01X32316Y17856D01*
G01X31826Y13022D02*
G01X31826Y12387D01*
G01X32689Y12387D01*
G01X32689Y12920D01*
G01X32689Y13022D01*
G01X32689Y13403D02*
G01X32689Y14013D01*
G01X31826Y14013D01*
G01X31826Y13479D01*
G01X31826Y13403D01*
G54D33*
G01X31704Y25925D02*
G01X30383Y25925D01*
G01X30383Y23855D01*
G01X31704Y23855D01*
G01X32834Y25925D02*
G01X34155Y25925D01*
G01X34155Y23855D01*
G01X32834Y23855D01*
G01X27449Y11729D02*
G01X27449Y13050D01*
G01X25379Y13050D01*
G01X25379Y11729D01*
G01X27449Y10599D02*
G01X27449Y9278D01*
G01X25379Y9278D01*
G01X25379Y10599D01*
G54D36*
G01X21666Y29024D02*
G01X21666Y28389D01*
G01X22529Y28389D01*
G01X22529Y28922D01*
G01X22529Y29024D01*
G01X22529Y29405D02*
G01X22529Y30015D01*
G01X21666Y30015D01*
G01X21666Y29481D01*
G01X21666Y29405D01*
G01X21158Y31056D02*
G01X21158Y30421D01*
G01X22021Y30421D01*
G01X22021Y30954D01*
G01X22021Y31056D01*
G01X22021Y31437D02*
G01X22021Y32047D01*
G01X21158Y32047D01*
G01X21158Y31513D01*
G01X21158Y31437D01*
G54D37*
G01X37376Y27096D02*
G01X37525Y27096D01*
G01X37525Y25971D01*
G01X35626Y25971D02*
G01X35626Y27096D01*
G01X35775Y27096D01*
G54D36*
G01X31927Y21775D02*
G01X31927Y22410D01*
G01X31064Y22410D01*
G01X31064Y21877D01*
G01X31064Y21775D01*
G01X31064Y21394D02*
G01X31064Y20784D01*
G01X31927Y20784D01*
G01X31927Y21318D01*
G01X31927Y21394D01*
G01X34620Y23182D02*
G01X34620Y22547D01*
G01X35483Y22547D01*
G01X35483Y23080D01*
G01X35483Y23182D01*
G01X35483Y23563D02*
G01X35483Y24173D01*
G01X34620Y24173D01*
G01X34620Y23639D01*
G01X34620Y23563D01*
G54D11*
G01X27109Y25331D02*
G01X18610Y25331D01*
G01X18610Y16832D01*
G01X27109Y16832D01*
G01X27109Y25331D01*
G54D10*
G01X19837Y7747D02*
G01X19837Y7391D01*
G01X20193Y7391D01*
G01X19837Y11049D02*
G01X19837Y11404D01*
G01X20193Y11404D01*
G01X23495Y7391D02*
G01X23850Y7391D01*
G01X23850Y7747D01*
G01X23850Y11049D02*
G01X23495Y11404D01*
G54D36*
G01X32689Y16441D02*
G01X32689Y17076D01*
G01X31826Y17076D01*
G01X31826Y16543D01*
G01X31826Y16441D01*
G01X31826Y16060D02*
G01X31826Y15450D01*
G01X32689Y15450D01*
G01X32689Y15984D01*
G01X32689Y16060D01*
G54D41*
G01X13733Y10916D02*
G01X13680Y11021D01*
G01X13576Y11125D01*
G01X13474Y11176D01*
G01X13266Y11176D01*
G01X13162Y11125D01*
G01X13058Y11021D01*
G01X13004Y10916D01*
G01X12954Y10762D01*
G01X12954Y10502D01*
G01X13004Y10345D01*
G01X13058Y10241D01*
G01X13162Y10137D01*
G01X13266Y10086D01*
G01X13474Y10086D01*
G01X13576Y10137D01*
G01X13680Y10241D01*
G01X13733Y10345D01*
G01X14076Y10970D02*
G01X14180Y11021D01*
G01X14335Y11176D01*
G01X14335Y10086D01*
G01X14678Y10970D02*
G01X14782Y11021D01*
G01X14937Y11176D01*
G01X14937Y10086D01*
G01X15280Y9723D02*
G01X16217Y9723D01*
G01X17338Y10916D02*
G01X17287Y11021D01*
G01X17183Y11125D01*
G01X17078Y11176D01*
G01X16870Y11176D01*
G01X16766Y11125D01*
G01X16662Y11021D01*
G01X16611Y10916D01*
G01X16560Y10762D01*
G01X16560Y10502D01*
G01X16611Y10345D01*
G01X16662Y10241D01*
G01X16766Y10137D01*
G01X16870Y10086D01*
G01X17078Y10086D01*
G01X17183Y10137D01*
G01X17287Y10241D01*
G01X17338Y10345D01*
G01X17338Y10502D01*
G01X17078Y10502D02*
G01X17338Y10502D01*
G01X28199Y4818D02*
G01X28094Y4765D01*
G01X27990Y4660D01*
G01X27939Y4559D01*
G01X27939Y4350D01*
G01X27990Y4246D01*
G01X28094Y4142D01*
G01X28199Y4089D01*
G01X28353Y4038D01*
G01X28613Y4038D01*
G01X28770Y4089D01*
G01X28874Y4142D01*
G01X28978Y4246D01*
G01X29029Y4350D01*
G01X29029Y4559D01*
G01X28978Y4660D01*
G01X28874Y4765D01*
G01X28770Y4818D01*
G01X28145Y5161D02*
G01X28094Y5265D01*
G01X27939Y5420D01*
G01X29029Y5420D01*
G01X28199Y5816D02*
G01X28145Y5816D01*
G01X28041Y5867D01*
G01X27990Y5918D01*
G01X27939Y6022D01*
G01X27939Y6230D01*
G01X27990Y6334D01*
G01X28041Y6388D01*
G01X28145Y6438D01*
G01X28249Y6438D01*
G01X28353Y6388D01*
G01X28511Y6283D01*
G01X29029Y5763D01*
G01X29029Y6489D01*
G01X29392Y6832D02*
G01X29392Y7769D01*
G01X28199Y8889D02*
G01X28094Y8839D01*
G01X27990Y8735D01*
G01X27939Y8630D01*
G01X27939Y8422D01*
G01X27990Y8318D01*
G01X28094Y8216D01*
G01X28199Y8163D01*
G01X28353Y8112D01*
G01X28613Y8112D01*
G01X28770Y8163D01*
G01X28874Y8216D01*
G01X28978Y8318D01*
G01X29029Y8422D01*
G01X29029Y8630D01*
G01X28978Y8735D01*
G01X28874Y8839D01*
G01X28770Y8889D01*
G01X28613Y8889D01*
G01X28613Y8630D02*
G01X28613Y8889D01*
G01X12463Y6344D02*
G01X12410Y6449D01*
G01X12306Y6553D01*
G01X12204Y6604D01*
G01X11996Y6604D01*
G01X11892Y6553D01*
G01X11788Y6449D01*
G01X11734Y6344D01*
G01X11684Y6190D01*
G01X11684Y5930D01*
G01X11734Y5773D01*
G01X11788Y5669D01*
G01X11892Y5565D01*
G01X11996Y5514D01*
G01X12204Y5514D01*
G01X12306Y5565D01*
G01X12410Y5669D01*
G01X12463Y5773D01*
G01X12806Y6398D02*
G01X12910Y6449D01*
G01X13065Y6604D01*
G01X13065Y5514D01*
G01X13512Y6604D02*
G01X14084Y6604D01*
G01X13771Y6190D01*
G01X13929Y6190D01*
G01X14033Y6136D01*
G01X14084Y6085D01*
G01X14135Y5930D01*
G01X14135Y5826D01*
G01X14084Y5669D01*
G01X13980Y5565D01*
G01X13825Y5514D01*
G01X13667Y5514D01*
G01X13512Y5565D01*
G01X13462Y5618D01*
G01X13408Y5722D01*
G01X14478Y5151D02*
G01X15415Y5151D01*
G01X16535Y6344D02*
G01X16484Y6449D01*
G01X16380Y6553D01*
G01X16276Y6604D01*
G01X16068Y6604D01*
G01X15963Y6553D01*
G01X15862Y6449D01*
G01X15808Y6344D01*
G01X15758Y6190D01*
G01X15758Y5930D01*
G01X15808Y5773D01*
G01X15862Y5669D01*
G01X15963Y5565D01*
G01X16068Y5514D01*
G01X16276Y5514D01*
G01X16380Y5565D01*
G01X16484Y5669D01*
G01X16535Y5773D01*
G01X16535Y5930D01*
G01X16276Y5930D02*
G01X16535Y5930D01*
G01X39890Y11798D02*
G01X39890Y10967D01*
G01X39837Y10812D01*
G01X39786Y10759D01*
G01X39682Y10708D01*
G01X39578Y10708D01*
G01X39474Y10759D01*
G01X39420Y10812D01*
G01X39370Y10967D01*
G01X39370Y11071D01*
G01X40233Y11592D02*
G01X40335Y11643D01*
G01X40492Y11798D01*
G01X40492Y10708D01*
G01X762Y19994D02*
G01X1539Y19994D01*
G01X1696Y20045D01*
G01X1800Y20149D01*
G01X1851Y20307D01*
G01X1851Y20411D01*
G01X1800Y20566D01*
G01X1696Y20670D01*
G01X1539Y20721D01*
G01X762Y20721D01*
G01X762Y21584D02*
G01X1488Y21064D01*
G01X1488Y21844D01*
G01X762Y21584D02*
G01X1851Y21584D01*
G01X8641Y11765D02*
G01X8536Y11711D01*
G01X8432Y11607D01*
G01X8381Y11506D01*
G01X8381Y11297D01*
G01X8432Y11193D01*
G01X8536Y11089D01*
G01X8641Y11036D01*
G01X8795Y10985D01*
G01X9055Y10985D01*
G01X9212Y11036D01*
G01X9316Y11089D01*
G01X9420Y11193D01*
G01X9471Y11297D01*
G01X9471Y11506D01*
G01X9420Y11607D01*
G01X9316Y11711D01*
G01X9212Y11765D01*
G01X8587Y12108D02*
G01X8536Y12212D01*
G01X8381Y12367D01*
G01X9471Y12367D01*
G01X8536Y13335D02*
G01X8432Y13281D01*
G01X8381Y13126D01*
G01X8381Y13022D01*
G01X8432Y12865D01*
G01X8587Y12763D01*
G01X8849Y12710D01*
G01X9108Y12710D01*
G01X9316Y12763D01*
G01X9420Y12865D01*
G01X9471Y13022D01*
G01X9471Y13073D01*
G01X9420Y13230D01*
G01X9316Y13335D01*
G01X9159Y13385D01*
G01X9108Y13385D01*
G01X8953Y13335D01*
G01X8849Y13230D01*
G01X8795Y13073D01*
G01X8795Y13022D01*
G01X8849Y12865D01*
G01X8953Y12763D01*
G01X9108Y12710D01*
G01X9834Y13728D02*
G01X9834Y14663D01*
G01X8381Y15006D02*
G01X9471Y15422D01*
G01X8381Y15836D02*
G01X9471Y15422D01*
G01X8381Y16179D02*
G01X9471Y16179D01*
G01X8381Y16179D02*
G01X8381Y16649D01*
G01X8432Y16804D01*
G01X8483Y16855D01*
G01X8587Y16908D01*
G01X8691Y16908D01*
G01X8795Y16855D01*
G01X8849Y16804D01*
G01X8900Y16649D01*
G01X8900Y16179D01*
G01X8900Y16545D02*
G01X9471Y16908D01*
G01X8381Y17251D02*
G01X9471Y17251D01*
G01X8381Y17251D02*
G01X8381Y17927D01*
G01X8900Y17251D02*
G01X8900Y17665D01*
G01X9471Y17251D02*
G01X9471Y17927D01*
G01X8641Y19050D02*
G01X8536Y18996D01*
G01X8432Y18892D01*
G01X8381Y18788D01*
G01X8381Y18580D01*
G01X8432Y18478D01*
G01X8536Y18374D01*
G01X8641Y18321D01*
G01X8795Y18270D01*
G01X9055Y18270D01*
G01X9212Y18321D01*
G01X9316Y18374D01*
G01X9420Y18478D01*
G01X9471Y18580D01*
G01X9471Y18788D01*
G01X9420Y18892D01*
G01X9316Y18996D01*
G01X9212Y19050D01*
G01X9055Y19050D01*
G01X9055Y18788D02*
G01X9055Y19050D01*
G01X1529Y5364D02*
G01X1424Y5311D01*
G01X1320Y5207D01*
G01X1269Y5105D01*
G01X1269Y4897D01*
G01X1320Y4792D01*
G01X1424Y4688D01*
G01X1529Y4635D01*
G01X1683Y4584D01*
G01X1943Y4584D01*
G01X2100Y4635D01*
G01X2204Y4688D01*
G01X2308Y4792D01*
G01X2359Y4897D01*
G01X2359Y5105D01*
G01X2308Y5207D01*
G01X2204Y5311D01*
G01X2100Y5364D01*
G01X1475Y5707D02*
G01X1424Y5811D01*
G01X1269Y5966D01*
G01X2359Y5966D01*
G01X1269Y7035D02*
G01X2359Y6517D01*
G01X1269Y6309D02*
G01X1269Y7035D01*
G01X2722Y7378D02*
G01X2722Y8315D01*
G01X1269Y8658D02*
G01X2359Y9072D01*
G01X1269Y9489D02*
G01X2359Y9072D01*
G01X1269Y9832D02*
G01X2359Y9832D01*
G01X1269Y9832D02*
G01X1269Y10299D01*
G01X1320Y10454D01*
G01X1371Y10507D01*
G01X1475Y10558D01*
G01X1579Y10558D01*
G01X1683Y10507D01*
G01X1737Y10454D01*
G01X1788Y10299D01*
G01X1788Y9832D01*
G01X1788Y10195D02*
G01X2359Y10558D01*
G01X1269Y10901D02*
G01X2359Y10901D01*
G01X1269Y10901D02*
G01X1269Y11577D01*
G01X1788Y10901D02*
G01X1788Y11318D01*
G01X2359Y10901D02*
G01X2359Y11577D01*
G01X1529Y12700D02*
G01X1424Y12649D01*
G01X1320Y12545D01*
G01X1269Y12440D01*
G01X1269Y12232D01*
G01X1320Y12128D01*
G01X1424Y12024D01*
G01X1529Y11973D01*
G01X1683Y11920D01*
G01X1943Y11920D01*
G01X2100Y11973D01*
G01X2204Y12024D01*
G01X2308Y12128D01*
G01X2359Y12232D01*
G01X2359Y12440D01*
G01X2308Y12545D01*
G01X2204Y12649D01*
G01X2100Y12700D01*
G01X1943Y12700D01*
G01X1943Y12440D02*
G01X1943Y12700D01*
G01X13225Y27172D02*
G01X13172Y27277D01*
G01X13068Y27381D01*
G01X12966Y27432D01*
G01X12758Y27432D01*
G01X12654Y27381D01*
G01X12550Y27277D01*
G01X12496Y27172D01*
G01X12446Y27018D01*
G01X12446Y26758D01*
G01X12496Y26601D01*
G01X12550Y26497D01*
G01X12654Y26393D01*
G01X12758Y26342D01*
G01X12966Y26342D01*
G01X13068Y26393D01*
G01X13172Y26497D01*
G01X13225Y26601D01*
G01X13568Y27226D02*
G01X13672Y27277D01*
G01X13827Y27432D01*
G01X13827Y26342D01*
G01X13225Y16873D02*
G01X13172Y16977D01*
G01X13068Y17081D01*
G01X12966Y17132D01*
G01X12758Y17132D01*
G01X12654Y17081D01*
G01X12549Y16977D01*
G01X12496Y16873D01*
G01X12445Y16718D01*
G01X12445Y16459D01*
G01X12496Y16301D01*
G01X12549Y16197D01*
G01X12654Y16093D01*
G01X12758Y16042D01*
G01X12966Y16042D01*
G01X13068Y16093D01*
G01X13172Y16197D01*
G01X13225Y16301D01*
G01X13619Y16873D02*
G01X13619Y16926D01*
G01X13672Y17030D01*
G01X13723Y17081D01*
G01X13827Y17132D01*
G01X14035Y17132D01*
G01X14139Y17081D01*
G01X14190Y17030D01*
G01X14244Y16926D01*
G01X14244Y16822D01*
G01X14190Y16718D01*
G01X14086Y16561D01*
G01X13568Y16042D01*
G01X14294Y16042D01*
G01X33291Y29204D02*
G01X33238Y29309D01*
G01X33134Y29413D01*
G01X33032Y29464D01*
G01X32824Y29464D01*
G01X32720Y29413D01*
G01X32616Y29309D01*
G01X32562Y29204D01*
G01X32512Y29050D01*
G01X32512Y28790D01*
G01X32562Y28633D01*
G01X32616Y28529D01*
G01X32720Y28425D01*
G01X32824Y28374D01*
G01X33032Y28374D01*
G01X33134Y28425D01*
G01X33238Y28529D01*
G01X33291Y28633D01*
G01X33738Y29464D02*
G01X34310Y29464D01*
G01X33997Y29050D01*
G01X34152Y29050D01*
G01X34256Y28996D01*
G01X34310Y28945D01*
G01X34361Y28790D01*
G01X34361Y28686D01*
G01X34310Y28529D01*
G01X34206Y28425D01*
G01X34048Y28374D01*
G01X33893Y28374D01*
G01X33738Y28425D01*
G01X33685Y28478D01*
G01X33634Y28582D01*
G01X29977Y11069D02*
G01X29872Y11015D01*
G01X29768Y10911D01*
G01X29718Y10810D01*
G01X29718Y10601D01*
G01X29768Y10497D01*
G01X29872Y10393D01*
G01X29977Y10340D01*
G01X30132Y10289D01*
G01X30391Y10289D01*
G01X30548Y10340D01*
G01X30652Y10393D01*
G01X30756Y10497D01*
G01X30807Y10601D01*
G01X30807Y10810D01*
G01X30756Y10911D01*
G01X30652Y11015D01*
G01X30548Y11069D01*
G01X29718Y11930D02*
G01X30444Y11412D01*
G01X30444Y12192D01*
G01X29718Y11930D02*
G01X30807Y11930D01*
G01X16515Y30426D02*
G01X16410Y30373D01*
G01X16306Y30269D01*
G01X16256Y30167D01*
G01X16256Y29959D01*
G01X16306Y29855D01*
G01X16410Y29751D01*
G01X16515Y29697D01*
G01X16670Y29646D01*
G01X16929Y29646D01*
G01X17086Y29697D01*
G01X17190Y29751D01*
G01X17294Y29855D01*
G01X17345Y29959D01*
G01X17345Y30167D01*
G01X17294Y30269D01*
G01X17190Y30373D01*
G01X17086Y30426D01*
G01X16256Y31391D02*
G01X16256Y30873D01*
G01X16723Y30820D01*
G01X16670Y30873D01*
G01X16619Y31028D01*
G01X16619Y31183D01*
G01X16670Y31341D01*
G01X16774Y31445D01*
G01X16929Y31496D01*
G01X17033Y31496D01*
G01X17190Y31445D01*
G01X17294Y31341D01*
G01X17345Y31183D01*
G01X17345Y31028D01*
G01X17294Y30873D01*
G01X17241Y30820D01*
G01X17137Y30769D01*
G01X29464Y20574D02*
G01X29464Y19484D01*
G01X29464Y20574D02*
G01X29931Y20574D01*
G01X30086Y20523D01*
G01X30139Y20472D01*
G01X30190Y20368D01*
G01X30190Y20264D01*
G01X30139Y20159D01*
G01X30086Y20106D01*
G01X29931Y20055D01*
G01X29464Y20055D01*
G01X29827Y20055D02*
G01X30190Y19484D01*
G01X30637Y20574D02*
G01X31209Y20574D01*
G01X30899Y20159D01*
G01X31054Y20159D01*
G01X31158Y20106D01*
G01X31209Y20055D01*
G01X31262Y19900D01*
G01X31262Y19796D01*
G01X31209Y19639D01*
G01X31104Y19535D01*
G01X30949Y19484D01*
G01X30795Y19484D01*
G01X30637Y19535D01*
G01X30586Y19588D01*
G01X30533Y19692D01*
G01X31605Y19121D02*
G01X32539Y19121D01*
G01X32882Y20574D02*
G01X32882Y19796D01*
G01X32933Y19639D01*
G01X33037Y19535D01*
G01X33195Y19484D01*
G01X33299Y19484D01*
G01X33454Y19535D01*
G01X33558Y19639D01*
G01X33609Y19796D01*
G01X33609Y20574D01*
G01X34681Y20419D02*
G01X34577Y20523D01*
G01X34419Y20574D01*
G01X34213Y20574D01*
G01X34056Y20523D01*
G01X33952Y20419D01*
G01X33952Y20314D01*
G01X34005Y20210D01*
G01X34056Y20159D01*
G01X34160Y20106D01*
G01X34472Y20002D01*
G01X34577Y19951D01*
G01X34627Y19900D01*
G01X34681Y19796D01*
G01X34681Y19639D01*
G01X34577Y19535D01*
G01X34419Y19484D01*
G01X34213Y19484D01*
G01X34056Y19535D01*
G01X33952Y19639D01*
G01X35024Y20574D02*
G01X35024Y19484D01*
G01X35024Y20574D02*
G01X35491Y20574D01*
G01X35646Y20523D01*
G01X35699Y20472D01*
G01X35750Y20368D01*
G01X35750Y20264D01*
G01X35699Y20159D01*
G01X35646Y20106D01*
G01X35491Y20055D01*
G01X35024Y20055D02*
G01X35491Y20055D01*
G01X35646Y20002D01*
G01X35699Y19951D01*
G01X35750Y19847D01*
G01X35750Y19692D01*
G01X35699Y19588D01*
G01X35646Y19535D01*
G01X35491Y19484D01*
G01X35024Y19484D01*
G01X23876Y32679D02*
G01X24965Y32679D01*
G01X23876Y32679D02*
G01X23876Y33146D01*
G01X23926Y33301D01*
G01X23977Y33355D01*
G01X24081Y33406D01*
G01X24185Y33406D01*
G01X24290Y33355D01*
G01X24343Y33301D01*
G01X24394Y33146D01*
G01X24394Y32679D01*
G01X24394Y33042D02*
G01X24965Y33406D01*
G01X23876Y34269D02*
G01X24602Y33748D01*
G01X24602Y34528D01*
G01X23876Y34269D02*
G01X24965Y34269D01*
G01X25328Y34871D02*
G01X25328Y35806D01*
G01X23876Y36149D02*
G01X24965Y36149D01*
G01X24965Y36149D02*
G01X24965Y36774D01*
G01X23876Y37116D02*
G01X24965Y37116D01*
G01X23876Y37116D02*
G01X23876Y37792D01*
G01X24394Y37116D02*
G01X24394Y37531D01*
G01X24965Y37116D02*
G01X24965Y37792D01*
G01X23876Y38135D02*
G01X24965Y38135D01*
G01X23876Y38135D02*
G01X23876Y38498D01*
G01X23926Y38653D01*
G01X24030Y38757D01*
G01X24135Y38811D01*
G01X24290Y38861D01*
G01X24549Y38861D01*
G01X24706Y38811D01*
G01X24810Y38757D01*
G01X24914Y38653D01*
G01X24965Y38498D01*
G01X24965Y38135D01*
G01X22352Y32730D02*
G01X23441Y32730D01*
G01X22352Y32730D02*
G01X22352Y33197D01*
G01X22402Y33352D01*
G01X22453Y33406D01*
G01X22557Y33456D01*
G01X22661Y33456D01*
G01X22766Y33406D01*
G01X22819Y33352D01*
G01X22870Y33197D01*
G01X22870Y32730D01*
G01X22870Y33093D02*
G01X23441Y33456D01*
G01X22352Y34424D02*
G01X22352Y33903D01*
G01X22819Y33853D01*
G01X22766Y33903D01*
G01X22715Y34061D01*
G01X22715Y34216D01*
G01X22766Y34371D01*
G01X22870Y34475D01*
G01X23025Y34528D01*
G01X23129Y34528D01*
G01X23286Y34475D01*
G01X23390Y34371D01*
G01X23441Y34216D01*
G01X23441Y34061D01*
G01X23390Y33903D01*
G01X23337Y33853D01*
G01X23233Y33799D01*
G01X23804Y34871D02*
G01X23804Y35806D01*
G01X22352Y36149D02*
G01X23441Y36149D01*
G01X23441Y36149D02*
G01X23441Y36771D01*
G01X22352Y37114D02*
G01X23441Y37114D01*
G01X22352Y37114D02*
G01X22352Y37790D01*
G01X22870Y37114D02*
G01X22870Y37531D01*
G01X23441Y37114D02*
G01X23441Y37790D01*
G01X22352Y38133D02*
G01X23441Y38133D01*
G01X22352Y38133D02*
G01X22352Y38496D01*
G01X22402Y38653D01*
G01X22506Y38757D01*
G01X22611Y38808D01*
G01X22766Y38862D01*
G01X23025Y38862D01*
G01X23182Y38808D01*
G01X23286Y38757D01*
G01X23390Y38653D01*
G01X23441Y38496D01*
G01X23441Y38133D01*
G01X26047Y31889D02*
G01X27137Y31889D01*
G01X27137Y31889D02*
G01X27137Y32512D01*
G01X26047Y32854D02*
G01X27137Y32854D01*
G01X26047Y32854D02*
G01X26047Y33530D01*
G01X26565Y32854D02*
G01X26565Y33271D01*
G01X27137Y32854D02*
G01X27137Y33530D01*
G01X26047Y33873D02*
G01X27137Y33873D01*
G01X26047Y33873D02*
G01X26047Y34239D01*
G01X26098Y34394D01*
G01X26202Y34498D01*
G01X26306Y34549D01*
G01X26461Y34602D01*
G01X26720Y34602D01*
G01X26878Y34549D01*
G01X26982Y34498D01*
G01X27086Y34394D01*
G01X27137Y34239D01*
G01X27137Y33873D01*
G01X26253Y34945D02*
G01X26202Y35049D01*
G01X26047Y35204D01*
G01X27137Y35204D01*
G01X29718Y35079D02*
G01X30807Y35079D01*
G01X30807Y35079D02*
G01X30807Y35702D01*
G01X29718Y36045D02*
G01X30807Y36045D01*
G01X29718Y36045D02*
G01X29718Y36720D01*
G01X30236Y36045D02*
G01X30236Y36461D01*
G01X30807Y36045D02*
G01X30807Y36720D01*
G01X29718Y37063D02*
G01X30807Y37063D01*
G01X29718Y37063D02*
G01X29718Y37429D01*
G01X29768Y37584D01*
G01X29872Y37688D01*
G01X29977Y37739D01*
G01X30132Y37792D01*
G01X30391Y37792D01*
G01X30548Y37739D01*
G01X30652Y37688D01*
G01X30756Y37584D01*
G01X30807Y37429D01*
G01X30807Y37063D01*
G01X29977Y38186D02*
G01X29923Y38186D01*
G01X29819Y38239D01*
G01X29768Y38290D01*
G01X29718Y38394D01*
G01X29718Y38602D01*
G01X29768Y38707D01*
G01X29819Y38757D01*
G01X29923Y38811D01*
G01X30027Y38811D01*
G01X30132Y38757D01*
G01X30289Y38653D01*
G01X30807Y38135D01*
G01X30807Y38862D01*
G01X10414Y13322D02*
G01X10414Y12232D01*
G01X10414Y13322D02*
G01X10777Y13322D01*
G01X10934Y13271D01*
G01X11036Y13167D01*
G01X11089Y13063D01*
G01X11140Y12908D01*
G01X11140Y12649D01*
G01X11089Y12491D01*
G01X11036Y12387D01*
G01X10934Y12283D01*
G01X10777Y12232D01*
G01X10414Y12232D01*
G01X11483Y13116D02*
G01X11587Y13167D01*
G01X11744Y13322D01*
G01X11744Y12232D01*
G01X17797Y1772D02*
G01X17744Y1877D01*
G01X17640Y1981D01*
G01X17538Y2032D01*
G01X17330Y2032D01*
G01X17226Y1981D01*
G01X17122Y1877D01*
G01X17068Y1772D01*
G01X17018Y1617D01*
G01X17018Y1358D01*
G01X17068Y1201D01*
G01X17122Y1097D01*
G01X17226Y993D01*
G01X17330Y942D01*
G01X17538Y942D01*
G01X17640Y993D01*
G01X17744Y1097D01*
G01X17797Y1201D01*
G01X18762Y1877D02*
G01X18712Y1981D01*
G01X18554Y2032D01*
G01X18453Y2032D01*
G01X18295Y1981D01*
G01X18191Y1826D01*
G01X18140Y1564D01*
G01X18140Y1305D01*
G01X18191Y1097D01*
G01X18295Y993D01*
G01X18453Y942D01*
G01X18503Y942D01*
G01X18658Y993D01*
G01X18762Y1097D01*
G01X18816Y1254D01*
G01X18816Y1305D01*
G01X18762Y1460D01*
G01X18658Y1564D01*
G01X18503Y1617D01*
G01X18453Y1617D01*
G01X18295Y1564D01*
G01X18191Y1460D01*
G01X18140Y1305D01*
G01X19159Y579D02*
G01X20093Y579D01*
G01X21216Y1772D02*
G01X21163Y1877D01*
G01X21059Y1981D01*
G01X20955Y2032D01*
G01X20749Y2032D01*
G01X20645Y1981D01*
G01X20540Y1877D01*
G01X20487Y1772D01*
G01X20436Y1617D01*
G01X20436Y1358D01*
G01X20487Y1201D01*
G01X20540Y1097D01*
G01X20645Y993D01*
G01X20749Y942D01*
G01X20955Y942D01*
G01X21059Y993D01*
G01X21163Y1097D01*
G01X21216Y1201D01*
G01X21216Y1358D01*
G01X20955Y1358D02*
G01X21216Y1358D01*
G01X14732Y13208D02*
G01X14732Y12118D01*
G01X14732Y13208D02*
G01X15199Y13208D01*
G01X15354Y13157D01*
G01X15407Y13106D01*
G01X15458Y13002D01*
G01X15458Y12898D01*
G01X15407Y12793D01*
G01X15354Y12740D01*
G01X15199Y12689D01*
G01X14732Y12689D01*
G01X15095Y12689D02*
G01X15458Y12118D01*
G01X15854Y12948D02*
G01X15854Y13002D01*
G01X15905Y13106D01*
G01X15958Y13157D01*
G01X16062Y13208D01*
G01X16268Y13208D01*
G01X16372Y13157D01*
G01X16426Y13106D01*
G01X16476Y13002D01*
G01X16476Y12898D01*
G01X16426Y12793D01*
G01X16322Y12636D01*
G01X15801Y12118D01*
G01X16530Y12118D01*
G01X16873Y11755D02*
G01X17807Y11755D01*
G01X18930Y12948D02*
G01X18877Y13053D01*
G01X18773Y13157D01*
G01X18669Y13208D01*
G01X18463Y13208D01*
G01X18359Y13157D01*
G01X18254Y13053D01*
G01X18201Y12948D01*
G01X18150Y12793D01*
G01X18150Y12534D01*
G01X18201Y12377D01*
G01X18254Y12273D01*
G01X18359Y12169D01*
G01X18463Y12118D01*
G01X18669Y12118D01*
G01X18773Y12169D01*
G01X18877Y12273D01*
G01X18930Y12377D01*
G01X18930Y12534D01*
G01X18669Y12534D02*
G01X18930Y12534D01*
G01X9398Y22352D02*
G01X10124Y21262D01*
G01X10124Y22352D02*
G01X9398Y21262D01*
G01X10467Y22146D02*
G01X10571Y22197D01*
G01X10728Y22352D01*
G01X10728Y21262D01*
G01X27650Y28547D02*
G01X27546Y28651D01*
G01X27391Y28702D01*
G01X27183Y28702D01*
G01X27028Y28651D01*
G01X26924Y28547D01*
G01X26924Y28442D01*
G01X26974Y28338D01*
G01X27028Y28287D01*
G01X27132Y28234D01*
G01X27444Y28130D01*
G01X27546Y28079D01*
G01X27599Y28028D01*
G01X27650Y27924D01*
G01X27650Y27767D01*
G01X27546Y27663D01*
G01X27391Y27612D01*
G01X27183Y27612D01*
G01X27028Y27663D01*
G01X26924Y27767D01*
G01X27993Y28702D02*
G01X28254Y27612D01*
G01X28514Y28702D02*
G01X28254Y27612D01*
G01X28514Y28702D02*
G01X28773Y27612D01*
G01X29032Y28702D02*
G01X28773Y27612D01*
G01X29428Y28442D02*
G01X29428Y28496D01*
G01X29479Y28600D01*
G01X29532Y28651D01*
G01X29636Y28702D01*
G01X29845Y28702D01*
G01X29946Y28651D01*
G01X29999Y28600D01*
G01X30050Y28496D01*
G01X30050Y28392D01*
G01X29999Y28287D01*
G01X29895Y28130D01*
G01X29375Y27612D01*
G01X30104Y27612D01*
G01X33020Y32527D02*
G01X34109Y32527D01*
G01X33020Y32527D02*
G01X33020Y32994D01*
G01X33070Y33149D01*
G01X33121Y33202D01*
G01X33225Y33253D01*
G01X33329Y33253D01*
G01X33434Y33202D01*
G01X33487Y33149D01*
G01X33538Y32994D01*
G01X33538Y32527D01*
G01X33538Y32890D02*
G01X34109Y33253D01*
G01X33225Y33596D02*
G01X33174Y33700D01*
G01X33020Y33858D01*
G01X34109Y33858D01*
G01X34472Y34201D02*
G01X34472Y35135D01*
G01X33020Y35478D02*
G01X34109Y35478D01*
G01X33020Y35478D02*
G01X33020Y35946D01*
G01X33070Y36101D01*
G01X33121Y36154D01*
G01X33225Y36205D01*
G01X33329Y36205D01*
G01X33434Y36154D01*
G01X33487Y36101D01*
G01X33538Y35946D01*
G01X33538Y35478D02*
G01X33538Y35946D01*
G01X33591Y36101D01*
G01X33642Y36154D01*
G01X33746Y36205D01*
G01X33901Y36205D01*
G01X34005Y36154D01*
G01X34058Y36101D01*
G01X34109Y35946D01*
G01X34109Y35478D01*
G01X33020Y36860D02*
G01X33070Y36756D01*
G01X33174Y36652D01*
G01X33279Y36601D01*
G01X33434Y36548D01*
G01X33693Y36548D01*
G01X33850Y36601D01*
G01X33954Y36652D01*
G01X34058Y36756D01*
G01X34109Y36860D01*
G01X34109Y37068D01*
G01X34058Y37172D01*
G01X33954Y37277D01*
G01X33850Y37327D01*
G01X33693Y37378D01*
G01X33434Y37378D01*
G01X33279Y37327D01*
G01X33174Y37277D01*
G01X33070Y37172D01*
G01X33020Y37068D01*
G01X33020Y36860D01*
G01X33020Y38033D02*
G01X33070Y37929D01*
G01X33174Y37825D01*
G01X33279Y37774D01*
G01X33434Y37721D01*
G01X33693Y37721D01*
G01X33850Y37774D01*
G01X33954Y37825D01*
G01X34058Y37929D01*
G01X34109Y38033D01*
G01X34109Y38242D01*
G01X34058Y38346D01*
G01X33954Y38450D01*
G01X33850Y38501D01*
G01X33693Y38554D01*
G01X33434Y38554D01*
G01X33279Y38501D01*
G01X33174Y38450D01*
G01X33070Y38346D01*
G01X33020Y38242D01*
G01X33020Y38033D01*
G01X33020Y39260D02*
G01X34109Y39260D01*
G01X33020Y38897D02*
G01X33020Y39624D01*
G01X29718Y18542D02*
G01X29718Y17452D01*
G01X29718Y18542D02*
G01X30185Y18542D01*
G01X30340Y18491D01*
G01X30393Y18440D01*
G01X30444Y18336D01*
G01X30444Y18232D01*
G01X30393Y18127D01*
G01X30340Y18074D01*
G01X30185Y18023D01*
G01X29718Y18023D01*
G01X30081Y18023D02*
G01X30444Y17452D01*
G01X31412Y18387D02*
G01X31358Y18491D01*
G01X31203Y18542D01*
G01X31099Y18542D01*
G01X30944Y18491D01*
G01X30840Y18336D01*
G01X30787Y18074D01*
G01X30787Y17815D01*
G01X30840Y17607D01*
G01X30944Y17503D01*
G01X31099Y17452D01*
G01X31153Y17452D01*
G01X31308Y17503D01*
G01X31412Y17607D01*
G01X31463Y17764D01*
G01X31463Y17815D01*
G01X31412Y17970D01*
G01X31308Y18074D01*
G01X31153Y18127D01*
G01X31099Y18127D01*
G01X30944Y18074D01*
G01X30840Y17970D01*
G01X30787Y17815D01*
G01X31805Y17089D02*
G01X32740Y17089D01*
G01X33083Y18542D02*
G01X33083Y17764D01*
G01X33136Y17607D01*
G01X33241Y17503D01*
G01X33395Y17452D01*
G01X33500Y17452D01*
G01X33655Y17503D01*
G01X33759Y17607D01*
G01X33812Y17764D01*
G01X33812Y18542D01*
G01X34881Y18387D02*
G01X34777Y18491D01*
G01X34622Y18542D01*
G01X34414Y18542D01*
G01X34259Y18491D01*
G01X34155Y18387D01*
G01X34155Y18282D01*
G01X34206Y18178D01*
G01X34259Y18127D01*
G01X34363Y18074D01*
G01X34673Y17970D01*
G01X34777Y17919D01*
G01X34831Y17868D01*
G01X34881Y17764D01*
G01X34881Y17607D01*
G01X34777Y17503D01*
G01X34622Y17452D01*
G01X34414Y17452D01*
G01X34259Y17503D01*
G01X34155Y17607D01*
G01X35224Y18542D02*
G01X35224Y17452D01*
G01X35224Y18542D02*
G01X35692Y18542D01*
G01X35849Y18491D01*
G01X35900Y18440D01*
G01X35953Y18336D01*
G01X35953Y18232D01*
G01X35900Y18127D01*
G01X35849Y18074D01*
G01X35692Y18023D01*
G01X35224Y18023D02*
G01X35692Y18023D01*
G01X35849Y17970D01*
G01X35900Y17919D01*
G01X35953Y17815D01*
G01X35953Y17660D01*
G01X35900Y17556D01*
G01X35849Y17503D01*
G01X35692Y17452D01*
G01X35224Y17452D01*
G01X33274Y9207D02*
G01X34363Y9207D01*
G01X33274Y9207D02*
G01X33274Y9674D01*
G01X33324Y9829D01*
G01X33375Y9883D01*
G01X33479Y9933D01*
G01X33583Y9933D01*
G01X33688Y9883D01*
G01X33741Y9829D01*
G01X33792Y9674D01*
G01X33792Y9207D01*
G01X33792Y9570D02*
G01X34363Y9933D01*
G01X33274Y10538D02*
G01X33324Y10380D01*
G01X33428Y10330D01*
G01X33533Y10330D01*
G01X33637Y10380D01*
G01X33688Y10485D01*
G01X33741Y10693D01*
G01X33792Y10848D01*
G01X33896Y10952D01*
G01X34000Y11005D01*
G01X34155Y11005D01*
G01X34259Y10952D01*
G01X34312Y10901D01*
G01X34363Y10744D01*
G01X34363Y10538D01*
G01X34312Y10380D01*
G01X34259Y10330D01*
G01X34155Y10276D01*
G01X34000Y10276D01*
G01X33896Y10330D01*
G01X33792Y10434D01*
G01X33741Y10589D01*
G01X33688Y10797D01*
G01X33637Y10901D01*
G01X33533Y10952D01*
G01X33428Y10952D01*
G01X33324Y10901D01*
G01X33274Y10744D01*
G01X33274Y10538D01*
G01X34726Y11348D02*
G01X34726Y12283D01*
G01X33274Y12626D02*
G01X34051Y12626D01*
G01X34208Y12677D01*
G01X34312Y12781D01*
G01X34363Y12938D01*
G01X34363Y13042D01*
G01X34312Y13197D01*
G01X34208Y13301D01*
G01X34051Y13352D01*
G01X33274Y13352D01*
G01X33428Y14424D02*
G01X33324Y14320D01*
G01X33274Y14163D01*
G01X33274Y13957D01*
G01X33324Y13799D01*
G01X33428Y13695D01*
G01X33533Y13695D01*
G01X33637Y13749D01*
G01X33688Y13799D01*
G01X33741Y13903D01*
G01X33845Y14216D01*
G01X33896Y14320D01*
G01X33947Y14371D01*
G01X34051Y14424D01*
G01X34208Y14424D01*
G01X34312Y14320D01*
G01X34363Y14163D01*
G01X34363Y13957D01*
G01X34312Y13799D01*
G01X34208Y13695D01*
G01X33274Y14767D02*
G01X34363Y14767D01*
G01X33274Y14767D02*
G01X33274Y15234D01*
G01X33324Y15389D01*
G01X33375Y15443D01*
G01X33479Y15494D01*
G01X33583Y15494D01*
G01X33688Y15443D01*
G01X33741Y15389D01*
G01X33792Y15234D01*
G01X33792Y14767D02*
G01X33792Y15234D01*
G01X33845Y15389D01*
G01X33896Y15443D01*
G01X34000Y15494D01*
G01X34155Y15494D01*
G01X34259Y15443D01*
G01X34312Y15389D01*
G01X34363Y15234D01*
G01X34363Y14767D01*
G01X28973Y26664D02*
G01X28920Y26769D01*
G01X28816Y26873D01*
G01X28714Y26924D01*
G01X28506Y26924D01*
G01X28402Y26873D01*
G01X28298Y26769D01*
G01X28244Y26664D01*
G01X28194Y26509D01*
G01X28194Y26250D01*
G01X28244Y26093D01*
G01X28298Y25989D01*
G01X28402Y25885D01*
G01X28506Y25834D01*
G01X28714Y25834D01*
G01X28816Y25885D01*
G01X28920Y25989D01*
G01X28973Y26093D01*
G01X29938Y26769D02*
G01X29888Y26873D01*
G01X29730Y26924D01*
G01X29629Y26924D01*
G01X29471Y26873D01*
G01X29367Y26718D01*
G01X29316Y26456D01*
G01X29316Y26197D01*
G01X29367Y25989D01*
G01X29471Y25885D01*
G01X29629Y25834D01*
G01X29679Y25834D01*
G01X29834Y25885D01*
G01X29938Y25989D01*
G01X29992Y26146D01*
G01X29992Y26197D01*
G01X29938Y26352D01*
G01X29834Y26456D01*
G01X29679Y26509D01*
G01X29629Y26509D01*
G01X29471Y26456D01*
G01X29367Y26352D01*
G01X29316Y26197D01*
G01X24135Y12900D02*
G01X24030Y12847D01*
G01X23926Y12743D01*
G01X23875Y12641D01*
G01X23875Y12433D01*
G01X23926Y12329D01*
G01X24030Y12224D01*
G01X24135Y12171D01*
G01X24289Y12120D01*
G01X24549Y12120D01*
G01X24706Y12171D01*
G01X24810Y12224D01*
G01X24914Y12329D01*
G01X24965Y12433D01*
G01X24965Y12641D01*
G01X24914Y12743D01*
G01X24810Y12847D01*
G01X24706Y12900D01*
G01X23875Y13969D02*
G01X24965Y13451D01*
G01X23875Y13243D02*
G01X23875Y13969D01*
G01X20320Y28387D02*
G01X21409Y28387D01*
G01X20320Y28387D02*
G01X20320Y28854D01*
G01X20370Y29009D01*
G01X20421Y29062D01*
G01X20525Y29113D01*
G01X20629Y29113D01*
G01X20734Y29062D01*
G01X20787Y29009D01*
G01X20838Y28854D01*
G01X20838Y28387D01*
G01X20838Y28750D02*
G01X21409Y29113D01*
G01X20525Y29456D02*
G01X20474Y29560D01*
G01X20320Y29718D01*
G01X21409Y29718D01*
G01X20828Y32491D02*
G01X21917Y32491D01*
G01X20828Y32491D02*
G01X20828Y32959D01*
G01X20878Y33113D01*
G01X20929Y33167D01*
G01X21033Y33218D01*
G01X21137Y33218D01*
G01X21242Y33167D01*
G01X21295Y33113D01*
G01X21346Y32959D01*
G01X21346Y32491D01*
G01X21346Y32854D02*
G01X21917Y33218D01*
G01X21087Y33614D02*
G01X21033Y33614D01*
G01X20929Y33665D01*
G01X20878Y33718D01*
G01X20828Y33822D01*
G01X20828Y34028D01*
G01X20878Y34132D01*
G01X20929Y34185D01*
G01X21033Y34236D01*
G01X21137Y34236D01*
G01X21242Y34185D01*
G01X21399Y34081D01*
G01X21917Y33561D01*
G01X21917Y34290D01*
G01X38239Y26637D02*
G01X38290Y26533D01*
G01X38394Y26429D01*
G01X38498Y26375D01*
G01X38653Y26325D01*
G01X38912Y26325D01*
G01X39070Y26375D01*
G01X39174Y26429D01*
G01X39278Y26533D01*
G01X39329Y26637D01*
G01X39329Y26845D01*
G01X39278Y26947D01*
G01X39174Y27051D01*
G01X39070Y27104D01*
G01X38912Y27155D01*
G01X38653Y27155D01*
G01X38498Y27104D01*
G01X38394Y27051D01*
G01X38290Y26947D01*
G01X38239Y26845D01*
G01X38239Y26637D01*
G01X39121Y26792D02*
G01X39433Y27104D01*
G01X38445Y27498D02*
G01X38394Y27602D01*
G01X38239Y27760D01*
G01X39329Y27760D01*
G01X29718Y21061D02*
G01X30807Y21061D01*
G01X29718Y21061D02*
G01X29718Y21529D01*
G01X29768Y21683D01*
G01X29819Y21737D01*
G01X29923Y21788D01*
G01X30027Y21788D01*
G01X30132Y21737D01*
G01X30185Y21683D01*
G01X30236Y21529D01*
G01X30236Y21061D01*
G01X30236Y21424D02*
G01X30807Y21788D01*
G01X29718Y22235D02*
G01X29718Y22806D01*
G01X30132Y22496D01*
G01X30132Y22651D01*
G01X30185Y22755D01*
G01X30236Y22806D01*
G01X30391Y22859D01*
G01X30495Y22859D01*
G01X30652Y22806D01*
G01X30756Y22702D01*
G01X30807Y22547D01*
G01X30807Y22392D01*
G01X30756Y22235D01*
G01X30703Y22184D01*
G01X30599Y22130D01*
G01X33528Y21264D02*
G01X34617Y21264D01*
G01X33528Y21264D02*
G01X33528Y21732D01*
G01X33578Y21887D01*
G01X33629Y21940D01*
G01X33733Y21991D01*
G01X33837Y21991D01*
G01X33942Y21940D01*
G01X33995Y21887D01*
G01X34046Y21732D01*
G01X34046Y21264D01*
G01X34046Y21628D02*
G01X34617Y21991D01*
G01X33528Y22854D02*
G01X34254Y22334D01*
G01X34254Y23114D01*
G01X33528Y22854D02*
G01X34617Y22854D01*
G01X22098Y21590D02*
G01X22098Y20812D01*
G01X22148Y20655D01*
G01X22252Y20551D01*
G01X22410Y20500D01*
G01X22514Y20500D01*
G01X22669Y20551D01*
G01X22773Y20655D01*
G01X22824Y20812D01*
G01X22824Y21590D01*
G01X23167Y21384D02*
G01X23271Y21435D01*
G01X23428Y21590D01*
G01X23428Y20500D01*
G01X25031Y9398D02*
G01X25808Y9398D01*
G01X25966Y9448D01*
G01X26070Y9552D01*
G01X26121Y9710D01*
G01X26121Y9814D01*
G01X26070Y9969D01*
G01X25966Y10073D01*
G01X25808Y10124D01*
G01X25031Y10124D01*
G01X25031Y10571D02*
G01X25031Y11142D01*
G01X25445Y10833D01*
G01X25445Y10988D01*
G01X25499Y11092D01*
G01X25549Y11142D01*
G01X25704Y11196D01*
G01X25808Y11196D01*
G01X25966Y11142D01*
G01X26070Y11038D01*
G01X26121Y10883D01*
G01X26121Y10728D01*
G01X26070Y10571D01*
G01X26017Y10520D01*
G01X25913Y10467D01*
G01X30226Y15473D02*
G01X31315Y15473D01*
G01X30226Y15473D02*
G01X30226Y15941D01*
G01X30276Y16095D01*
G01X30327Y16149D01*
G01X30431Y16200D01*
G01X30535Y16200D01*
G01X30640Y16149D01*
G01X30693Y16095D01*
G01X30744Y15941D01*
G01X30744Y15473D01*
G01X30744Y15836D02*
G01X31315Y16200D01*
G01X30226Y17271D02*
G01X31315Y16751D01*
G01X30226Y16542D02*
G01X30226Y17271D01*
G54D37*
G01X6858Y29972D02*
G01X6858Y29494D01*
G01X6858Y29972D02*
G01X7063Y29972D01*
G01X7129Y29949D01*
G01X7152Y29926D01*
G01X7175Y29883D01*
G01X7175Y29837D01*
G01X7152Y29791D01*
G01X7129Y29768D01*
G01X7063Y29745D01*
G01X6858Y29745D01*
G01X7018Y29745D02*
G01X7175Y29494D01*
G01X7645Y29905D02*
G01X7599Y29949D01*
G01X7531Y29972D01*
G01X7439Y29972D01*
G01X7371Y29949D01*
G01X7325Y29905D01*
G01X7325Y29860D01*
G01X7348Y29814D01*
G01X7371Y29791D01*
G01X7416Y29768D01*
G01X7553Y29723D01*
G01X7599Y29700D01*
G01X7622Y29677D01*
G01X7645Y29631D01*
G01X7645Y29563D01*
G01X7599Y29517D01*
G01X7531Y29494D01*
G01X7439Y29494D01*
G01X7371Y29517D01*
G01X7325Y29563D01*
G01X8112Y29905D02*
G01X8067Y29949D01*
G01X7998Y29972D01*
G01X7907Y29972D01*
G01X7840Y29949D01*
G01X7795Y29905D01*
G01X7795Y29860D01*
G01X7818Y29814D01*
G01X7840Y29791D01*
G01X7884Y29768D01*
G01X8021Y29723D01*
G01X8067Y29700D01*
G01X8089Y29677D01*
G01X8112Y29631D01*
G01X8112Y29563D01*
G01X8067Y29517D01*
G01X7998Y29494D01*
G01X7907Y29494D01*
G01X7840Y29517D01*
G01X7795Y29563D01*
G01X8262Y29972D02*
G01X8262Y29494D01*
G01X7198Y31892D02*
G01X7175Y31937D01*
G01X7129Y31981D01*
G01X7084Y32003D01*
G01X6995Y32003D01*
G01X6949Y31981D01*
G01X6903Y31937D01*
G01X6880Y31892D01*
G01X6858Y31823D01*
G01X6858Y31709D01*
G01X6880Y31640D01*
G01X6903Y31595D01*
G01X6949Y31549D01*
G01X6995Y31526D01*
G01X7084Y31526D01*
G01X7129Y31549D01*
G01X7175Y31595D01*
G01X7198Y31640D01*
G01X7348Y31846D02*
G01X7348Y31617D01*
G01X7371Y31549D01*
G01X7416Y31526D01*
G01X7485Y31526D01*
G01X7531Y31549D01*
G01X7599Y31617D01*
G01X7599Y31846D02*
G01X7599Y31526D01*
G01X7749Y31846D02*
G01X7749Y31526D01*
G01X7749Y31709D02*
G01X7772Y31777D01*
G01X7818Y31823D01*
G01X7861Y31846D01*
G01X7929Y31846D01*
G01X8079Y31846D02*
G01X8079Y31526D01*
G01X8079Y31709D02*
G01X8102Y31777D01*
G01X8148Y31823D01*
G01X8194Y31846D01*
G01X8262Y31846D01*
G01X8412Y31709D02*
G01X8684Y31709D01*
G01X8684Y31755D01*
G01X8661Y31800D01*
G01X8641Y31823D01*
G01X8595Y31846D01*
G01X8526Y31846D01*
G01X8481Y31823D01*
G01X8435Y31777D01*
G01X8412Y31709D01*
G01X8412Y31663D01*
G01X8435Y31595D01*
G01X8481Y31549D01*
G01X8526Y31526D01*
G01X8595Y31526D01*
G01X8641Y31549D01*
G01X8684Y31595D01*
G01X8834Y31846D02*
G01X8834Y31526D01*
G01X8834Y31755D02*
G01X8902Y31823D01*
G01X8948Y31846D01*
G01X9017Y31846D01*
G01X9062Y31823D01*
G01X9085Y31755D01*
G01X9085Y31526D01*
G01X9304Y32003D02*
G01X9304Y31617D01*
G01X9326Y31549D01*
G01X9372Y31526D01*
G01X9418Y31526D01*
G01X9235Y31846D02*
G01X9395Y31846D01*
G01X3365Y24843D02*
G01X3319Y24886D01*
G01X3253Y24909D01*
G01X3162Y24909D01*
G01X3093Y24886D01*
G01X3048Y24843D01*
G01X3048Y24798D01*
G01X3070Y24752D01*
G01X3093Y24729D01*
G01X3139Y24706D01*
G01X3274Y24660D01*
G01X3319Y24638D01*
G01X3342Y24615D01*
G01X3365Y24569D01*
G01X3365Y24500D01*
G01X3319Y24455D01*
G01X3253Y24432D01*
G01X3162Y24432D01*
G01X3093Y24455D01*
G01X3048Y24500D01*
G01X3515Y24820D02*
G01X3561Y24843D01*
G01X3629Y24909D01*
G01X3629Y24432D01*
G01X3365Y29161D02*
G01X3319Y29204D01*
G01X3253Y29227D01*
G01X3162Y29227D01*
G01X3093Y29204D01*
G01X3048Y29161D01*
G01X3048Y29116D01*
G01X3070Y29070D01*
G01X3093Y29047D01*
G01X3139Y29024D01*
G01X3274Y28978D01*
G01X3319Y28956D01*
G01X3342Y28933D01*
G01X3365Y28887D01*
G01X3365Y28818D01*
G01X3319Y28773D01*
G01X3253Y28750D01*
G01X3162Y28750D01*
G01X3093Y28773D01*
G01X3048Y28818D01*
G01X3538Y29116D02*
G01X3538Y29138D01*
G01X3561Y29182D01*
G01X3583Y29204D01*
G01X3629Y29227D01*
G01X3721Y29227D01*
G01X3766Y29204D01*
G01X3789Y29182D01*
G01X3812Y29138D01*
G01X3812Y29093D01*
G01X3789Y29047D01*
G01X3743Y28978D01*
G01X3515Y28750D01*
G01X3835Y28750D01*
G01X3365Y32971D02*
G01X3319Y33014D01*
G01X3253Y33037D01*
G01X3162Y33037D01*
G01X3093Y33014D01*
G01X3048Y32971D01*
G01X3048Y32926D01*
G01X3070Y32880D01*
G01X3093Y32857D01*
G01X3139Y32834D01*
G01X3274Y32788D01*
G01X3319Y32766D01*
G01X3342Y32743D01*
G01X3365Y32697D01*
G01X3365Y32628D01*
G01X3319Y32583D01*
G01X3253Y32560D01*
G01X3162Y32560D01*
G01X3093Y32583D01*
G01X3048Y32628D01*
G01X3561Y33037D02*
G01X3812Y33037D01*
G01X3675Y32857D01*
G01X3743Y32857D01*
G01X3789Y32834D01*
G01X3812Y32811D01*
G01X3835Y32743D01*
G01X3835Y32697D01*
G01X3812Y32628D01*
G01X3766Y32583D01*
G01X3698Y32560D01*
G01X3629Y32560D01*
G01X3561Y32583D01*
G01X3538Y32605D01*
G01X3515Y32651D01*
G01X3365Y38051D02*
G01X3319Y38094D01*
G01X3253Y38117D01*
G01X3162Y38117D01*
G01X3093Y38094D01*
G01X3048Y38051D01*
G01X3048Y38006D01*
G01X3070Y37960D01*
G01X3093Y37937D01*
G01X3139Y37914D01*
G01X3274Y37868D01*
G01X3319Y37846D01*
G01X3342Y37823D01*
G01X3365Y37777D01*
G01X3365Y37708D01*
G01X3319Y37663D01*
G01X3253Y37640D01*
G01X3162Y37640D01*
G01X3093Y37663D01*
G01X3048Y37708D01*
G01X3743Y38117D02*
G01X3515Y37800D01*
G01X3858Y37800D01*
G01X3743Y38117D02*
G01X3743Y37640D01*
G01X3134Y30894D02*
G01X3111Y30939D01*
G01X3065Y30982D01*
G01X3020Y31005D01*
G01X2931Y31005D01*
G01X2885Y30982D01*
G01X2839Y30939D01*
G01X2816Y30894D01*
G01X2794Y30825D01*
G01X2794Y30711D01*
G01X2816Y30642D01*
G01X2839Y30596D01*
G01X2885Y30551D01*
G01X2931Y30528D01*
G01X3020Y30528D01*
G01X3065Y30551D01*
G01X3111Y30596D01*
G01X3134Y30642D01*
G01X3134Y30711D01*
G01X3020Y30711D02*
G01X3134Y30711D01*
G01X3284Y31005D02*
G01X3284Y30528D01*
G01X3284Y31005D02*
G01X3604Y30528D01*
G01X3604Y31005D02*
G01X3604Y30528D01*
G01X3754Y31005D02*
G01X3754Y30528D01*
G01X3754Y31005D02*
G01X3911Y31005D01*
G01X3980Y30982D01*
G01X4025Y30939D01*
G01X4048Y30894D01*
G01X4071Y30825D01*
G01X4071Y30711D01*
G01X4048Y30642D01*
G01X4025Y30596D01*
G01X3980Y30551D01*
G01X3911Y30528D01*
G01X3754Y30528D01*
G01X3134Y35466D02*
G01X3111Y35511D01*
G01X3065Y35554D01*
G01X3020Y35577D01*
G01X2931Y35577D01*
G01X2885Y35554D01*
G01X2839Y35511D01*
G01X2816Y35466D01*
G01X2794Y35397D01*
G01X2794Y35283D01*
G01X2816Y35214D01*
G01X2839Y35168D01*
G01X2885Y35123D01*
G01X2931Y35100D01*
G01X3020Y35100D01*
G01X3065Y35123D01*
G01X3111Y35168D01*
G01X3134Y35214D01*
G01X3134Y35283D01*
G01X3020Y35283D02*
G01X3134Y35283D01*
G01X3284Y35577D02*
G01X3284Y35100D01*
G01X3284Y35577D02*
G01X3604Y35100D01*
G01X3604Y35577D02*
G01X3604Y35100D01*
G01X3754Y35577D02*
G01X3754Y35100D01*
G01X3754Y35577D02*
G01X3911Y35577D01*
G01X3980Y35554D01*
G01X4025Y35511D01*
G01X4048Y35466D01*
G01X4071Y35397D01*
G01X4071Y35283D01*
G01X4048Y35214D01*
G01X4025Y35168D01*
G01X3980Y35123D01*
G01X3911Y35100D01*
G01X3754Y35100D01*
G01X3134Y26830D02*
G01X3111Y26875D01*
G01X3065Y26918D01*
G01X3020Y26941D01*
G01X2931Y26941D01*
G01X2885Y26918D01*
G01X2839Y26875D01*
G01X2816Y26830D01*
G01X2794Y26761D01*
G01X2794Y26647D01*
G01X2816Y26578D01*
G01X2839Y26532D01*
G01X2885Y26487D01*
G01X2931Y26464D01*
G01X3020Y26464D01*
G01X3065Y26487D01*
G01X3111Y26532D01*
G01X3134Y26578D01*
G01X3134Y26647D01*
G01X3020Y26647D02*
G01X3134Y26647D01*
G01X3284Y26941D02*
G01X3284Y26464D01*
G01X3284Y26941D02*
G01X3604Y26464D01*
G01X3604Y26941D02*
G01X3604Y26464D01*
G01X3754Y26941D02*
G01X3754Y26464D01*
G01X3754Y26941D02*
G01X3911Y26941D01*
G01X3980Y26918D01*
G01X4025Y26875D01*
G01X4048Y26830D01*
G01X4071Y26761D01*
G01X4071Y26647D01*
G01X4048Y26578D01*
G01X4025Y26532D01*
G01X3980Y26487D01*
G01X3911Y26464D01*
G01X3754Y26464D01*
G01X19898Y39512D02*
G01X19875Y39557D01*
G01X19829Y39601D01*
G01X19784Y39623D01*
G01X19695Y39623D01*
G01X19649Y39601D01*
G01X19603Y39557D01*
G01X19580Y39512D01*
G01X19558Y39443D01*
G01X19558Y39329D01*
G01X19580Y39260D01*
G01X19603Y39215D01*
G01X19649Y39169D01*
G01X19695Y39146D01*
G01X19784Y39146D01*
G01X19829Y39169D01*
G01X19875Y39215D01*
G01X19898Y39260D01*
G01X19898Y39329D01*
G01X19784Y39329D02*
G01X19898Y39329D01*
G01X20048Y39623D02*
G01X20048Y39146D01*
G01X20048Y39623D02*
G01X20368Y39146D01*
G01X20368Y39623D02*
G01X20368Y39146D01*
G01X20518Y39623D02*
G01X20518Y39146D01*
G01X20518Y39623D02*
G01X20675Y39623D01*
G01X20744Y39601D01*
G01X20789Y39557D01*
G01X20812Y39512D01*
G01X20835Y39443D01*
G01X20835Y39329D01*
G01X20812Y39260D01*
G01X20789Y39215D01*
G01X20744Y39169D01*
G01X20675Y39146D01*
G01X20518Y39146D01*
G01X21930Y39530D02*
G01X21907Y39575D01*
G01X21861Y39618D01*
G01X21816Y39641D01*
G01X21727Y39641D01*
G01X21681Y39618D01*
G01X21635Y39575D01*
G01X21612Y39530D01*
G01X21590Y39461D01*
G01X21590Y39347D01*
G01X21612Y39278D01*
G01X21635Y39232D01*
G01X21681Y39187D01*
G01X21727Y39164D01*
G01X21816Y39164D01*
G01X21861Y39187D01*
G01X21907Y39232D01*
G01X21930Y39278D01*
G01X21930Y39347D01*
G01X21816Y39347D02*
G01X21930Y39347D01*
G01X22080Y39641D02*
G01X22080Y39164D01*
G01X22080Y39641D02*
G01X22400Y39164D01*
G01X22400Y39641D02*
G01X22400Y39164D01*
G01X22550Y39641D02*
G01X22550Y39164D01*
G01X22550Y39641D02*
G01X22707Y39641D01*
G01X22776Y39618D01*
G01X22821Y39575D01*
G01X22844Y39530D01*
G01X22867Y39461D01*
G01X22867Y39347D01*
G01X22844Y39278D01*
G01X22821Y39232D01*
G01X22776Y39187D01*
G01X22707Y39164D01*
G01X22550Y39164D01*
G01X23962Y39530D02*
G01X23939Y39575D01*
G01X23893Y39618D01*
G01X23848Y39641D01*
G01X23759Y39641D01*
G01X23713Y39618D01*
G01X23667Y39575D01*
G01X23644Y39530D01*
G01X23622Y39461D01*
G01X23622Y39347D01*
G01X23644Y39278D01*
G01X23667Y39232D01*
G01X23713Y39187D01*
G01X23759Y39164D01*
G01X23848Y39164D01*
G01X23893Y39187D01*
G01X23939Y39232D01*
G01X23962Y39278D01*
G01X23962Y39347D01*
G01X23848Y39347D02*
G01X23962Y39347D01*
G01X24112Y39641D02*
G01X24112Y39164D01*
G01X24112Y39641D02*
G01X24432Y39164D01*
G01X24432Y39641D02*
G01X24432Y39164D01*
G01X24582Y39641D02*
G01X24582Y39164D01*
G01X24582Y39641D02*
G01X24739Y39641D01*
G01X24808Y39618D01*
G01X24853Y39575D01*
G01X24876Y39530D01*
G01X24899Y39461D01*
G01X24899Y39347D01*
G01X24876Y39278D01*
G01X24853Y39232D01*
G01X24808Y39187D01*
G01X24739Y39164D01*
G01X24582Y39164D01*
G01X17612Y39512D02*
G01X17589Y39557D01*
G01X17543Y39601D01*
G01X17498Y39623D01*
G01X17409Y39623D01*
G01X17363Y39601D01*
G01X17317Y39557D01*
G01X17294Y39512D01*
G01X17272Y39443D01*
G01X17272Y39329D01*
G01X17294Y39260D01*
G01X17317Y39215D01*
G01X17363Y39169D01*
G01X17409Y39146D01*
G01X17498Y39146D01*
G01X17543Y39169D01*
G01X17589Y39215D01*
G01X17612Y39260D01*
G01X17612Y39329D01*
G01X17498Y39329D02*
G01X17612Y39329D01*
G01X17762Y39623D02*
G01X17762Y39146D01*
G01X17762Y39623D02*
G01X18082Y39146D01*
G01X18082Y39623D02*
G01X18082Y39146D01*
G01X18232Y39623D02*
G01X18232Y39146D01*
G01X18232Y39623D02*
G01X18389Y39623D01*
G01X18458Y39601D01*
G01X18503Y39557D01*
G01X18526Y39512D01*
G01X18549Y39443D01*
G01X18549Y39329D01*
G01X18526Y39260D01*
G01X18503Y39215D01*
G01X18458Y39169D01*
G01X18389Y39146D01*
G01X18232Y39146D01*
G01X14732Y39641D02*
G01X14732Y39164D01*
G01X14732Y39641D02*
G01X14937Y39641D01*
G01X15003Y39618D01*
G01X15026Y39596D01*
G01X15049Y39552D01*
G01X15049Y39507D01*
G01X15026Y39461D01*
G01X15003Y39438D01*
G01X14937Y39415D01*
G01X14732Y39415D01*
G01X14892Y39415D02*
G01X15049Y39164D01*
G01X15199Y39641D02*
G01X15519Y39164D01*
G01X15519Y39641D02*
G01X15199Y39164D01*
G01X15714Y39641D02*
G01X15963Y39641D01*
G01X15826Y39461D01*
G01X15895Y39461D01*
G01X15941Y39438D01*
G01X15963Y39415D01*
G01X15986Y39347D01*
G01X15986Y39301D01*
G01X15963Y39232D01*
G01X15918Y39187D01*
G01X15849Y39164D01*
G01X15781Y39164D01*
G01X15714Y39187D01*
G01X15692Y39209D01*
G01X15669Y39255D01*
G01X12606Y39641D02*
G01X12606Y39164D01*
G01X12446Y39641D02*
G01X12763Y39641D01*
G01X12913Y39641D02*
G01X13233Y39164D01*
G01X13233Y39641D02*
G01X12913Y39164D01*
G01X13428Y39641D02*
G01X13677Y39641D01*
G01X13540Y39461D01*
G01X13609Y39461D01*
G01X13655Y39438D01*
G01X13677Y39415D01*
G01X13700Y39347D01*
G01X13700Y39301D01*
G01X13677Y39232D01*
G01X13632Y39187D01*
G01X13563Y39164D01*
G01X13495Y39164D01*
G01X13428Y39187D01*
G01X13406Y39209D01*
G01X13383Y39255D01*
G01X10160Y39641D02*
G01X10160Y39164D01*
G01X10160Y39641D02*
G01X10365Y39641D01*
G01X10431Y39618D01*
G01X10454Y39596D01*
G01X10477Y39552D01*
G01X10477Y39507D01*
G01X10454Y39461D01*
G01X10431Y39438D01*
G01X10365Y39415D01*
G01X10160Y39415D01*
G01X10320Y39415D02*
G01X10477Y39164D01*
G01X10627Y39641D02*
G01X10947Y39164D01*
G01X10947Y39641D02*
G01X10627Y39164D01*
G01X11369Y39575D02*
G01X11346Y39618D01*
G01X11277Y39641D01*
G01X11231Y39641D01*
G01X11163Y39618D01*
G01X11120Y39552D01*
G01X11097Y39438D01*
G01X11097Y39324D01*
G01X11120Y39232D01*
G01X11163Y39187D01*
G01X11231Y39164D01*
G01X11254Y39164D01*
G01X11323Y39187D01*
G01X11369Y39232D01*
G01X11391Y39301D01*
G01X11391Y39324D01*
G01X11369Y39392D01*
G01X11323Y39438D01*
G01X11254Y39461D01*
G01X11231Y39461D01*
G01X11163Y39438D01*
G01X11120Y39392D01*
G01X11097Y39324D01*
G01X8034Y39641D02*
G01X8034Y39164D01*
G01X7874Y39641D02*
G01X8191Y39641D01*
G01X8341Y39641D02*
G01X8661Y39164D01*
G01X8661Y39641D02*
G01X8341Y39164D01*
G01X9083Y39575D02*
G01X9060Y39618D01*
G01X8991Y39641D01*
G01X8945Y39641D01*
G01X8877Y39618D01*
G01X8834Y39552D01*
G01X8811Y39438D01*
G01X8811Y39324D01*
G01X8834Y39232D01*
G01X8877Y39187D01*
G01X8945Y39164D01*
G01X8968Y39164D01*
G01X9037Y39187D01*
G01X9083Y39232D01*
G01X9105Y39301D01*
G01X9105Y39324D01*
G01X9083Y39392D01*
G01X9037Y39438D01*
G01X8968Y39461D01*
G01X8945Y39461D01*
G01X8877Y39438D01*
G01X8834Y39392D01*
G01X8811Y39324D01*
G01X37337Y31902D02*
G01X37815Y31902D01*
G01X37337Y31742D02*
G01X37337Y32059D01*
G01X37337Y32209D02*
G01X37815Y32529D01*
G01X37337Y32529D02*
G01X37815Y32209D01*
G01X37426Y32679D02*
G01X37403Y32725D01*
G01X37337Y32791D01*
G01X37815Y32791D01*
G01X37132Y29781D02*
G01X37089Y29735D01*
G01X37066Y29669D01*
G01X37066Y29578D01*
G01X37089Y29509D01*
G01X37132Y29464D01*
G01X37177Y29464D01*
G01X37223Y29486D01*
G01X37246Y29509D01*
G01X37269Y29555D01*
G01X37315Y29690D01*
G01X37338Y29735D01*
G01X37360Y29758D01*
G01X37406Y29781D01*
G01X37475Y29781D01*
G01X37520Y29735D01*
G01X37543Y29669D01*
G01X37543Y29578D01*
G01X37520Y29509D01*
G01X37475Y29464D01*
G01X37066Y29931D02*
G01X37543Y29931D01*
G01X37066Y29931D02*
G01X37066Y30137D01*
G01X37089Y30205D01*
G01X37111Y30228D01*
G01X37155Y30251D01*
G01X37200Y30251D01*
G01X37246Y30228D01*
G01X37269Y30205D01*
G01X37292Y30137D01*
G01X37292Y29931D02*
G01X37292Y30137D01*
G01X37315Y30205D01*
G01X37338Y30228D01*
G01X37383Y30251D01*
G01X37452Y30251D01*
G01X37498Y30228D01*
G01X37520Y30205D01*
G01X37543Y30137D01*
G01X37543Y29931D01*
G01X37066Y30401D02*
G01X37406Y30401D01*
G01X37475Y30424D01*
G01X37520Y30467D01*
G01X37543Y30535D01*
G01X37543Y30581D01*
G01X37520Y30650D01*
G01X37475Y30695D01*
G01X37406Y30718D01*
G01X37066Y30718D01*
G01X37132Y31186D02*
G01X37089Y31140D01*
G01X37066Y31071D01*
G01X37066Y30982D01*
G01X37089Y30914D01*
G01X37132Y30868D01*
G01X37177Y30868D01*
G01X37223Y30891D01*
G01X37246Y30914D01*
G01X37269Y30960D01*
G01X37315Y31094D01*
G01X37338Y31140D01*
G01X37360Y31163D01*
G01X37406Y31186D01*
G01X37475Y31186D01*
G01X37520Y31140D01*
G01X37543Y31071D01*
G01X37543Y30982D01*
G01X37520Y30914D01*
G01X37475Y30868D01*
G01X37177Y27518D02*
G01X37132Y27495D01*
G01X37089Y27449D01*
G01X37066Y27404D01*
G01X37066Y27315D01*
G01X37089Y27269D01*
G01X37132Y27223D01*
G01X37177Y27200D01*
G01X37246Y27178D01*
G01X37360Y27178D01*
G01X37429Y27200D01*
G01X37475Y27223D01*
G01X37520Y27269D01*
G01X37543Y27315D01*
G01X37543Y27404D01*
G01X37520Y27449D01*
G01X37475Y27495D01*
G01X37429Y27518D01*
G01X37360Y27518D01*
G01X37360Y27404D02*
G01X37360Y27518D01*
G01X37066Y27668D02*
G01X37543Y27668D01*
G01X37066Y27668D02*
G01X37543Y27988D01*
G01X37066Y27988D02*
G01X37543Y27988D01*
G01X37066Y28138D02*
G01X37543Y28138D01*
G01X37066Y28138D02*
G01X37066Y28295D01*
G01X37089Y28364D01*
G01X37132Y28409D01*
G01X37177Y28432D01*
G01X37246Y28455D01*
G01X37360Y28455D01*
G01X37429Y28432D01*
G01X37475Y28409D01*
G01X37520Y28364D01*
G01X37543Y28295D01*
G01X37543Y28138D01*
G01X11447Y3787D02*
G01X11221Y3787D01*
G01X11198Y3583D01*
G01X11221Y3606D01*
G01X11290Y3629D01*
G01X11358Y3629D01*
G01X11424Y3606D01*
G01X11470Y3561D01*
G01X11493Y3492D01*
G01X11493Y3446D01*
G01X11470Y3378D01*
G01X11424Y3332D01*
G01X11358Y3309D01*
G01X11290Y3309D01*
G01X11221Y3332D01*
G01X11198Y3355D01*
G01X11176Y3401D01*
G01X11643Y3629D02*
G01X11780Y3309D01*
G01X11917Y3629D02*
G01X11780Y3309D01*
G01X12418Y3787D02*
G01X12418Y3309D01*
G01X12418Y3787D02*
G01X12621Y3787D01*
G01X12689Y3764D01*
G01X12712Y3741D01*
G01X12735Y3698D01*
G01X12735Y3652D01*
G01X12712Y3606D01*
G01X12689Y3583D01*
G01X12621Y3561D01*
G01X12418Y3561D01*
G01X12575Y3561D02*
G01X12735Y3309D01*
G01X13157Y3629D02*
G01X13157Y3309D01*
G01X13157Y3561D02*
G01X13111Y3606D01*
G01X13065Y3629D01*
G01X12999Y3629D01*
G01X12954Y3606D01*
G01X12908Y3561D01*
G01X12885Y3492D01*
G01X12885Y3446D01*
G01X12908Y3378D01*
G01X12954Y3332D01*
G01X12999Y3309D01*
G01X13065Y3309D01*
G01X13111Y3332D01*
G01X13157Y3378D01*
G01X13307Y3787D02*
G01X13329Y3764D01*
G01X13352Y3787D01*
G01X13329Y3810D01*
G01X13307Y3787D01*
G01X13329Y3629D02*
G01X13329Y3309D01*
G01X13502Y3787D02*
G01X13502Y3309D01*
G01X26756Y3208D02*
G01X26733Y3253D01*
G01X26687Y3296D01*
G01X26642Y3319D01*
G01X26553Y3319D01*
G01X26507Y3296D01*
G01X26461Y3253D01*
G01X26438Y3208D01*
G01X26416Y3139D01*
G01X26416Y3025D01*
G01X26438Y2956D01*
G01X26461Y2910D01*
G01X26507Y2865D01*
G01X26553Y2842D01*
G01X26642Y2842D01*
G01X26687Y2865D01*
G01X26733Y2910D01*
G01X26756Y2956D01*
G01X26756Y3025D01*
G01X26642Y3025D02*
G01X26756Y3025D01*
G01X26906Y3319D02*
G01X26906Y2842D01*
G01X26906Y3319D02*
G01X27226Y2842D01*
G01X27226Y3319D02*
G01X27226Y2842D01*
G01X27376Y3319D02*
G01X27376Y2842D01*
G01X27376Y3319D02*
G01X27533Y3319D01*
G01X27602Y3296D01*
G01X27647Y3253D01*
G01X27670Y3208D01*
G01X27693Y3139D01*
G01X27693Y3025D01*
G01X27670Y2956D01*
G01X27647Y2910D01*
G01X27602Y2865D01*
G01X27533Y2842D01*
G01X27376Y2842D01*
G01X28194Y3319D02*
G01X28194Y2842D01*
G01X28194Y3319D02*
G01X28397Y3319D01*
G01X28465Y3296D01*
G01X28488Y3274D01*
G01X28511Y3230D01*
G01X28511Y3185D01*
G01X28488Y3139D01*
G01X28465Y3116D01*
G01X28397Y3093D01*
G01X28194Y3093D01*
G01X28351Y3093D02*
G01X28511Y2842D01*
G01X28933Y3162D02*
G01X28933Y2842D01*
G01X28933Y3093D02*
G01X28889Y3139D01*
G01X28844Y3162D01*
G01X28775Y3162D01*
G01X28729Y3139D01*
G01X28684Y3093D01*
G01X28661Y3025D01*
G01X28661Y2979D01*
G01X28684Y2910D01*
G01X28729Y2865D01*
G01X28775Y2842D01*
G01X28844Y2842D01*
G01X28889Y2865D01*
G01X28933Y2910D01*
G01X29083Y3319D02*
G01X29105Y3296D01*
G01X29128Y3319D01*
G01X29105Y3342D01*
G01X29083Y3319D01*
G01X29105Y3162D02*
G01X29105Y2842D01*
G01X29278Y3319D02*
G01X29278Y2842D01*
G01X17589Y36509D02*
G01X17543Y36553D01*
G01X17477Y36575D01*
G01X17386Y36575D01*
G01X17317Y36553D01*
G01X17272Y36509D01*
G01X17272Y36464D01*
G01X17294Y36418D01*
G01X17317Y36395D01*
G01X17363Y36372D01*
G01X17498Y36327D01*
G01X17543Y36304D01*
G01X17566Y36281D01*
G01X17589Y36235D01*
G01X17589Y36167D01*
G01X17543Y36121D01*
G01X17477Y36098D01*
G01X17386Y36098D01*
G01X17317Y36121D01*
G01X17272Y36167D01*
G01X17739Y36575D02*
G01X17739Y36098D01*
G01X17739Y36575D02*
G01X17899Y36575D01*
G01X17967Y36553D01*
G01X18013Y36509D01*
G01X18036Y36464D01*
G01X18059Y36395D01*
G01X18059Y36281D01*
G01X18036Y36212D01*
G01X18013Y36167D01*
G01X17967Y36121D01*
G01X17899Y36098D01*
G01X17739Y36098D01*
G01X18389Y36575D02*
G01X18209Y36098D01*
G01X18389Y36575D02*
G01X18572Y36098D01*
G01X18275Y36258D02*
G01X18503Y36258D01*
G01X20129Y36509D02*
G01X20083Y36553D01*
G01X20017Y36575D01*
G01X19926Y36575D01*
G01X19857Y36553D01*
G01X19812Y36509D01*
G01X19812Y36464D01*
G01X19834Y36418D01*
G01X19857Y36395D01*
G01X19903Y36372D01*
G01X20038Y36327D01*
G01X20083Y36304D01*
G01X20106Y36281D01*
G01X20129Y36235D01*
G01X20129Y36167D01*
G01X20083Y36121D01*
G01X20017Y36098D01*
G01X19926Y36098D01*
G01X19857Y36121D01*
G01X19812Y36167D01*
G01X20622Y36464D02*
G01X20599Y36509D01*
G01X20553Y36553D01*
G01X20507Y36575D01*
G01X20416Y36575D01*
G01X20370Y36553D01*
G01X20325Y36509D01*
G01X20302Y36464D01*
G01X20279Y36395D01*
G01X20279Y36281D01*
G01X20302Y36212D01*
G01X20325Y36167D01*
G01X20370Y36121D01*
G01X20416Y36098D01*
G01X20507Y36098D01*
G01X20553Y36121D01*
G01X20599Y36167D01*
G01X20622Y36212D01*
G01X20772Y36575D02*
G01X20772Y36098D01*
G01X20772Y36098D02*
G01X21043Y36098D01*
G01X2887Y1592D02*
G01X2842Y1569D01*
G01X2799Y1523D01*
G01X2776Y1478D01*
G01X2776Y1389D01*
G01X2799Y1343D01*
G01X2842Y1297D01*
G01X2887Y1275D01*
G01X2956Y1252D01*
G01X3070Y1252D01*
G01X3139Y1275D01*
G01X3185Y1297D01*
G01X3230Y1343D01*
G01X3253Y1389D01*
G01X3253Y1478D01*
G01X3230Y1523D01*
G01X3185Y1569D01*
G01X3139Y1592D01*
G01X3070Y1592D01*
G01X3070Y1478D02*
G01X3070Y1592D01*
G01X2776Y1742D02*
G01X3253Y1742D01*
G01X2776Y1742D02*
G01X3253Y2062D01*
G01X2776Y2062D02*
G01X3253Y2062D01*
G01X2776Y2212D02*
G01X3253Y2212D01*
G01X2776Y2212D02*
G01X2776Y2369D01*
G01X2799Y2438D01*
G01X2842Y2484D01*
G01X2887Y2506D01*
G01X2956Y2529D01*
G01X3070Y2529D01*
G01X3139Y2506D01*
G01X3185Y2484D01*
G01X3230Y2438D01*
G01X3253Y2369D01*
G01X3253Y2212D01*
G01X236Y3347D02*
G01X236Y3596D01*
G01X416Y3462D01*
G01X416Y3528D01*
G01X439Y3573D01*
G01X462Y3596D01*
G01X530Y3619D01*
G01X576Y3619D01*
G01X645Y3596D01*
G01X690Y3550D01*
G01X713Y3484D01*
G01X713Y3416D01*
G01X690Y3347D01*
G01X668Y3324D01*
G01X622Y3302D01*
G01X599Y3792D02*
G01X622Y3769D01*
G01X645Y3792D01*
G01X622Y3815D01*
G01X599Y3792D01*
G01X236Y4010D02*
G01X236Y4262D01*
G01X416Y4124D01*
G01X416Y4193D01*
G01X439Y4239D01*
G01X462Y4262D01*
G01X530Y4284D01*
G01X576Y4284D01*
G01X645Y4262D01*
G01X690Y4216D01*
G01X713Y4147D01*
G01X713Y4079D01*
G01X690Y4010D01*
G01X668Y3987D01*
G01X622Y3964D01*
G01X236Y4434D02*
G01X713Y4615D01*
G01X236Y4798D02*
G01X713Y4615D01*
G54D10*
G75*
G01X28418Y30734D02*
G2X29318Y31834I1000J100D01*
G01*
G75*
G01X30118Y31834D02*
G2X31018Y30734I-100J-1000D01*
G01*
G75*
G01X31018Y30734D02*
G2X30118Y29634I-1000J-100D01*
G01*
G75*
G01X29318Y29634D02*
G2X28418Y30734I100J1000D01*
G01*
G54D38*
G75*
G01X35306Y25182D02*
G3X35306Y25180I-124J-1D01*
G01*
G54D39*
G75*
G01X19835Y24381D02*
G3X19835Y24376I-300J-3D01*
G01*
G54D40*
G75*
G01X17109Y25481D02*
G3X17109Y25479I-150J-1D01*
G01*
M00*
M02*
