G04 ---------------------------- Layer name :BOTTOM LAYER*
G04 EasyEDA v5.8.20, Mon, 19 Nov 2018 12:00:09 GMT*
G04 c1adaa7c60de435bb68341a8a3b3a182*
G04 Gerber Generator version 0.2*
G04 Scale: 100 percent, Rotated: No, Reflected: No *
G04 Dimensions in millimeters *
G04 leading zeros omitted , absolute positions ,3 integer and 3 decimal *
%FSLAX33Y33*%
%MOMM*%
G90*
G71D02*

%ADD11C,0.200000*%
%ADD12C,0.354999*%
%ADD14C,0.619760*%
%ADD15C,0.620014*%
%ADD23R,0.649986X0.599948*%
%ADD31R,0.499999X1.599997*%
%ADD32R,1.524000X1.524000*%

%LPD*%
G36*
G01X40132Y0D02*
G01X0Y0D01*
G01X0Y40132D01*
G01X40132Y40132D01*
G01X40132Y0D01*
G37*

%LPC*%
G36*
G01X32131Y1143D02*
G01X32131Y508D01*
G01X32512Y508D01*
G01X32522Y508D01*
G01X32532Y508D01*
G01X32543Y509D01*
G01X32553Y511D01*
G01X32564Y513D01*
G01X32574Y515D01*
G01X32584Y518D01*
G01X32594Y521D01*
G01X32604Y525D01*
G01X32614Y529D01*
G01X32623Y533D01*
G01X32632Y538D01*
G01X32642Y543D01*
G01X32650Y549D01*
G01X32659Y555D01*
G01X32668Y561D01*
G01X32676Y568D01*
G01X32684Y575D01*
G01X32691Y582D01*
G01X32698Y589D01*
G01X32705Y597D01*
G01X32712Y605D01*
G01X32718Y614D01*
G01X32724Y623D01*
G01X32730Y631D01*
G01X32735Y641D01*
G01X32740Y650D01*
G01X32744Y659D01*
G01X32748Y669D01*
G01X32752Y679D01*
G01X32755Y689D01*
G01X32758Y699D01*
G01X32760Y709D01*
G01X32762Y720D01*
G01X32764Y730D01*
G01X32765Y741D01*
G01X32765Y751D01*
G01X32766Y762D01*
G01X32766Y1143D01*
G01X32131Y1143D01*
G37*
G36*
G01X30977Y508D02*
G01X30988Y508D01*
G01X31369Y508D01*
G01X31369Y1143D01*
G01X30099Y1143D01*
G01X30099Y508D01*
G01X30480Y508D01*
G01X30490Y508D01*
G01X30500Y508D01*
G01X30511Y509D01*
G01X30521Y511D01*
G01X30532Y513D01*
G01X30542Y515D01*
G01X30552Y518D01*
G01X30562Y521D01*
G01X30572Y525D01*
G01X30582Y529D01*
G01X30591Y533D01*
G01X30600Y538D01*
G01X30610Y543D01*
G01X30618Y549D01*
G01X30627Y555D01*
G01X30636Y561D01*
G01X30644Y568D01*
G01X30652Y575D01*
G01X30659Y582D01*
G01X30666Y589D01*
G01X30673Y597D01*
G01X30680Y605D01*
G01X30686Y614D01*
G01X30692Y623D01*
G01X30698Y631D01*
G01X30703Y641D01*
G01X30708Y650D01*
G01X30712Y659D01*
G01X30716Y669D01*
G01X30720Y679D01*
G01X30723Y689D01*
G01X30726Y699D01*
G01X30728Y709D01*
G01X30730Y720D01*
G01X30732Y730D01*
G01X30733Y741D01*
G01X30733Y751D01*
G01X30734Y762D01*
G01X30734Y751D01*
G01X30734Y741D01*
G01X30735Y730D01*
G01X30737Y720D01*
G01X30739Y709D01*
G01X30741Y699D01*
G01X30744Y689D01*
G01X30747Y679D01*
G01X30751Y669D01*
G01X30755Y659D01*
G01X30759Y650D01*
G01X30764Y641D01*
G01X30769Y631D01*
G01X30775Y623D01*
G01X30781Y614D01*
G01X30787Y605D01*
G01X30794Y597D01*
G01X30801Y589D01*
G01X30808Y582D01*
G01X30815Y575D01*
G01X30823Y568D01*
G01X30831Y561D01*
G01X30840Y555D01*
G01X30849Y549D01*
G01X30857Y543D01*
G01X30867Y538D01*
G01X30876Y533D01*
G01X30885Y529D01*
G01X30895Y525D01*
G01X30905Y521D01*
G01X30915Y518D01*
G01X30925Y515D01*
G01X30935Y513D01*
G01X30946Y511D01*
G01X30956Y509D01*
G01X30967Y508D01*
G01X30977Y508D01*
G37*
G36*
G01X28945Y508D02*
G01X28956Y508D01*
G01X29337Y508D01*
G01X29337Y1143D01*
G01X28067Y1143D01*
G01X28067Y508D01*
G01X28448Y508D01*
G01X28458Y508D01*
G01X28468Y508D01*
G01X28479Y509D01*
G01X28489Y511D01*
G01X28500Y513D01*
G01X28510Y515D01*
G01X28520Y518D01*
G01X28530Y521D01*
G01X28540Y525D01*
G01X28550Y529D01*
G01X28559Y533D01*
G01X28568Y538D01*
G01X28578Y543D01*
G01X28586Y549D01*
G01X28595Y555D01*
G01X28604Y561D01*
G01X28612Y568D01*
G01X28620Y575D01*
G01X28627Y582D01*
G01X28634Y589D01*
G01X28641Y597D01*
G01X28648Y605D01*
G01X28654Y614D01*
G01X28660Y623D01*
G01X28666Y631D01*
G01X28671Y641D01*
G01X28676Y650D01*
G01X28680Y659D01*
G01X28684Y669D01*
G01X28688Y679D01*
G01X28691Y689D01*
G01X28694Y699D01*
G01X28696Y709D01*
G01X28698Y720D01*
G01X28700Y730D01*
G01X28701Y741D01*
G01X28701Y751D01*
G01X28702Y762D01*
G01X28702Y751D01*
G01X28702Y741D01*
G01X28703Y730D01*
G01X28705Y720D01*
G01X28707Y709D01*
G01X28709Y699D01*
G01X28712Y689D01*
G01X28715Y679D01*
G01X28719Y669D01*
G01X28723Y659D01*
G01X28727Y650D01*
G01X28732Y641D01*
G01X28737Y631D01*
G01X28743Y623D01*
G01X28749Y614D01*
G01X28755Y605D01*
G01X28762Y597D01*
G01X28769Y589D01*
G01X28776Y582D01*
G01X28783Y575D01*
G01X28791Y568D01*
G01X28799Y561D01*
G01X28808Y555D01*
G01X28817Y549D01*
G01X28825Y543D01*
G01X28835Y538D01*
G01X28844Y533D01*
G01X28853Y529D01*
G01X28863Y525D01*
G01X28873Y521D01*
G01X28883Y518D01*
G01X28893Y515D01*
G01X28903Y513D01*
G01X28914Y511D01*
G01X28924Y509D01*
G01X28935Y508D01*
G01X28945Y508D01*
G37*
G36*
G01X26913Y508D02*
G01X26924Y508D01*
G01X27305Y508D01*
G01X27305Y1143D01*
G01X26035Y1143D01*
G01X26035Y508D01*
G01X26416Y508D01*
G01X26426Y508D01*
G01X26436Y508D01*
G01X26447Y509D01*
G01X26457Y511D01*
G01X26468Y513D01*
G01X26478Y515D01*
G01X26488Y518D01*
G01X26498Y521D01*
G01X26508Y525D01*
G01X26518Y529D01*
G01X26527Y533D01*
G01X26536Y538D01*
G01X26546Y543D01*
G01X26554Y549D01*
G01X26563Y555D01*
G01X26572Y561D01*
G01X26580Y568D01*
G01X26588Y575D01*
G01X26595Y582D01*
G01X26602Y589D01*
G01X26609Y597D01*
G01X26616Y605D01*
G01X26622Y614D01*
G01X26628Y623D01*
G01X26634Y631D01*
G01X26639Y641D01*
G01X26644Y650D01*
G01X26648Y659D01*
G01X26652Y669D01*
G01X26656Y679D01*
G01X26659Y689D01*
G01X26662Y699D01*
G01X26664Y709D01*
G01X26666Y720D01*
G01X26668Y730D01*
G01X26669Y741D01*
G01X26669Y751D01*
G01X26670Y762D01*
G01X26670Y751D01*
G01X26670Y741D01*
G01X26671Y730D01*
G01X26673Y720D01*
G01X26675Y709D01*
G01X26677Y699D01*
G01X26680Y689D01*
G01X26683Y679D01*
G01X26687Y669D01*
G01X26691Y659D01*
G01X26695Y650D01*
G01X26700Y641D01*
G01X26705Y631D01*
G01X26711Y623D01*
G01X26717Y614D01*
G01X26723Y605D01*
G01X26730Y597D01*
G01X26737Y589D01*
G01X26744Y582D01*
G01X26751Y575D01*
G01X26759Y568D01*
G01X26767Y561D01*
G01X26776Y555D01*
G01X26785Y549D01*
G01X26793Y543D01*
G01X26803Y538D01*
G01X26812Y533D01*
G01X26821Y529D01*
G01X26831Y525D01*
G01X26841Y521D01*
G01X26851Y518D01*
G01X26861Y515D01*
G01X26871Y513D01*
G01X26882Y511D01*
G01X26892Y509D01*
G01X26903Y508D01*
G01X26913Y508D01*
G37*
G36*
G01X24881Y508D02*
G01X24892Y508D01*
G01X25273Y508D01*
G01X25273Y1143D01*
G01X24003Y1143D01*
G01X24003Y508D01*
G01X24384Y508D01*
G01X24394Y508D01*
G01X24404Y508D01*
G01X24415Y509D01*
G01X24425Y511D01*
G01X24436Y513D01*
G01X24446Y515D01*
G01X24456Y518D01*
G01X24466Y521D01*
G01X24476Y525D01*
G01X24486Y529D01*
G01X24495Y533D01*
G01X24504Y538D01*
G01X24514Y543D01*
G01X24522Y549D01*
G01X24531Y555D01*
G01X24540Y561D01*
G01X24548Y568D01*
G01X24556Y575D01*
G01X24563Y582D01*
G01X24570Y589D01*
G01X24577Y597D01*
G01X24584Y605D01*
G01X24590Y614D01*
G01X24596Y623D01*
G01X24602Y631D01*
G01X24607Y641D01*
G01X24612Y650D01*
G01X24616Y659D01*
G01X24620Y669D01*
G01X24624Y679D01*
G01X24627Y689D01*
G01X24630Y699D01*
G01X24632Y709D01*
G01X24634Y720D01*
G01X24636Y730D01*
G01X24637Y741D01*
G01X24637Y751D01*
G01X24638Y762D01*
G01X24638Y751D01*
G01X24638Y741D01*
G01X24639Y730D01*
G01X24641Y720D01*
G01X24643Y709D01*
G01X24645Y699D01*
G01X24648Y689D01*
G01X24651Y679D01*
G01X24655Y669D01*
G01X24659Y659D01*
G01X24663Y650D01*
G01X24668Y641D01*
G01X24673Y631D01*
G01X24679Y623D01*
G01X24685Y614D01*
G01X24691Y605D01*
G01X24698Y597D01*
G01X24705Y589D01*
G01X24712Y582D01*
G01X24719Y575D01*
G01X24727Y568D01*
G01X24735Y561D01*
G01X24744Y555D01*
G01X24753Y549D01*
G01X24761Y543D01*
G01X24771Y538D01*
G01X24780Y533D01*
G01X24789Y529D01*
G01X24799Y525D01*
G01X24809Y521D01*
G01X24819Y518D01*
G01X24829Y515D01*
G01X24839Y513D01*
G01X24850Y511D01*
G01X24860Y509D01*
G01X24871Y508D01*
G01X24881Y508D01*
G37*
G36*
G01X22849Y508D02*
G01X22860Y508D01*
G01X23241Y508D01*
G01X23241Y1143D01*
G01X22606Y1143D01*
G01X22606Y762D01*
G01X22606Y751D01*
G01X22606Y741D01*
G01X22607Y730D01*
G01X22609Y720D01*
G01X22611Y709D01*
G01X22613Y699D01*
G01X22616Y689D01*
G01X22619Y679D01*
G01X22623Y669D01*
G01X22627Y659D01*
G01X22631Y650D01*
G01X22636Y641D01*
G01X22641Y631D01*
G01X22647Y623D01*
G01X22653Y614D01*
G01X22659Y605D01*
G01X22666Y597D01*
G01X22673Y589D01*
G01X22680Y582D01*
G01X22687Y575D01*
G01X22695Y568D01*
G01X22703Y561D01*
G01X22712Y555D01*
G01X22721Y549D01*
G01X22729Y543D01*
G01X22739Y538D01*
G01X22748Y533D01*
G01X22757Y529D01*
G01X22767Y525D01*
G01X22777Y521D01*
G01X22787Y518D01*
G01X22797Y515D01*
G01X22807Y513D01*
G01X22818Y511D01*
G01X22828Y509D01*
G01X22839Y508D01*
G01X22849Y508D01*
G37*
G36*
G01X2159Y1397D02*
G01X2159Y762D01*
G01X2540Y762D01*
G01X2550Y762D01*
G01X2560Y762D01*
G01X2571Y763D01*
G01X2581Y765D01*
G01X2592Y767D01*
G01X2602Y769D01*
G01X2612Y772D01*
G01X2622Y775D01*
G01X2632Y779D01*
G01X2642Y783D01*
G01X2651Y787D01*
G01X2660Y792D01*
G01X2670Y797D01*
G01X2678Y803D01*
G01X2687Y809D01*
G01X2696Y815D01*
G01X2704Y822D01*
G01X2712Y829D01*
G01X2719Y836D01*
G01X2726Y843D01*
G01X2733Y851D01*
G01X2740Y859D01*
G01X2746Y868D01*
G01X2752Y877D01*
G01X2758Y885D01*
G01X2763Y895D01*
G01X2768Y904D01*
G01X2772Y913D01*
G01X2776Y923D01*
G01X2780Y933D01*
G01X2783Y943D01*
G01X2786Y953D01*
G01X2788Y963D01*
G01X2790Y974D01*
G01X2792Y984D01*
G01X2793Y995D01*
G01X2793Y1005D01*
G01X2794Y1016D01*
G01X2794Y1397D01*
G01X2159Y1397D01*
G37*
G36*
G01X1005Y762D02*
G01X1016Y762D01*
G01X1397Y762D01*
G01X1397Y1397D01*
G01X762Y1397D01*
G01X762Y1016D01*
G01X762Y1005D01*
G01X762Y995D01*
G01X763Y984D01*
G01X765Y974D01*
G01X767Y963D01*
G01X769Y953D01*
G01X772Y943D01*
G01X775Y933D01*
G01X779Y923D01*
G01X783Y913D01*
G01X787Y904D01*
G01X792Y895D01*
G01X797Y885D01*
G01X803Y877D01*
G01X809Y868D01*
G01X815Y859D01*
G01X822Y851D01*
G01X829Y843D01*
G01X836Y836D01*
G01X843Y829D01*
G01X851Y822D01*
G01X859Y815D01*
G01X868Y809D01*
G01X877Y803D01*
G01X885Y797D01*
G01X895Y792D01*
G01X904Y787D01*
G01X913Y783D01*
G01X923Y779D01*
G01X933Y775D01*
G01X943Y772D01*
G01X953Y769D01*
G01X963Y767D01*
G01X974Y765D01*
G01X984Y763D01*
G01X995Y762D01*
G01X1005Y762D01*
G37*
G36*
G01X7101Y762D02*
G01X7112Y762D01*
G01X8636Y762D01*
G01X8646Y762D01*
G01X8656Y762D01*
G01X8667Y763D01*
G01X8677Y765D01*
G01X8688Y767D01*
G01X8698Y769D01*
G01X8708Y772D01*
G01X8718Y775D01*
G01X8728Y779D01*
G01X8738Y783D01*
G01X8747Y787D01*
G01X8756Y792D01*
G01X8766Y797D01*
G01X8774Y803D01*
G01X8783Y809D01*
G01X8792Y815D01*
G01X8800Y822D01*
G01X8808Y829D01*
G01X8815Y836D01*
G01X8822Y843D01*
G01X8829Y851D01*
G01X8836Y859D01*
G01X8842Y868D01*
G01X8848Y877D01*
G01X8854Y885D01*
G01X8859Y895D01*
G01X8864Y904D01*
G01X8868Y913D01*
G01X8872Y923D01*
G01X8876Y933D01*
G01X8879Y943D01*
G01X8882Y953D01*
G01X8884Y963D01*
G01X8886Y974D01*
G01X8888Y984D01*
G01X8889Y995D01*
G01X8889Y1005D01*
G01X8890Y1016D01*
G01X8890Y1005D01*
G01X8890Y995D01*
G01X8891Y984D01*
G01X8893Y974D01*
G01X8895Y963D01*
G01X8897Y953D01*
G01X8900Y943D01*
G01X8903Y933D01*
G01X8907Y923D01*
G01X8911Y913D01*
G01X8915Y904D01*
G01X8920Y895D01*
G01X8925Y885D01*
G01X8931Y877D01*
G01X8937Y868D01*
G01X8943Y859D01*
G01X8950Y851D01*
G01X8957Y843D01*
G01X8964Y836D01*
G01X8971Y829D01*
G01X8979Y822D01*
G01X8987Y815D01*
G01X8996Y809D01*
G01X9005Y803D01*
G01X9013Y797D01*
G01X9023Y792D01*
G01X9032Y787D01*
G01X9041Y783D01*
G01X9051Y779D01*
G01X9061Y775D01*
G01X9071Y772D01*
G01X9081Y769D01*
G01X9091Y767D01*
G01X9102Y765D01*
G01X9112Y763D01*
G01X9123Y762D01*
G01X9133Y762D01*
G01X9144Y762D01*
G01X10668Y762D01*
G01X10678Y762D01*
G01X10688Y762D01*
G01X10699Y763D01*
G01X10709Y765D01*
G01X10720Y767D01*
G01X10730Y769D01*
G01X10740Y772D01*
G01X10750Y775D01*
G01X10760Y779D01*
G01X10770Y783D01*
G01X10779Y787D01*
G01X10788Y792D01*
G01X10798Y797D01*
G01X10806Y803D01*
G01X10815Y809D01*
G01X10824Y815D01*
G01X10832Y822D01*
G01X10840Y829D01*
G01X10847Y836D01*
G01X10854Y843D01*
G01X10861Y851D01*
G01X10868Y859D01*
G01X10874Y868D01*
G01X10880Y877D01*
G01X10886Y885D01*
G01X10891Y895D01*
G01X10896Y904D01*
G01X10900Y913D01*
G01X10904Y923D01*
G01X10908Y933D01*
G01X10911Y943D01*
G01X10914Y953D01*
G01X10916Y963D01*
G01X10918Y974D01*
G01X10920Y984D01*
G01X10921Y995D01*
G01X10921Y1005D01*
G01X10922Y1016D01*
G01X10922Y1005D01*
G01X10922Y995D01*
G01X10923Y984D01*
G01X10925Y974D01*
G01X10927Y963D01*
G01X10929Y953D01*
G01X10932Y943D01*
G01X10935Y933D01*
G01X10939Y923D01*
G01X10943Y913D01*
G01X10947Y904D01*
G01X10952Y895D01*
G01X10957Y885D01*
G01X10963Y877D01*
G01X10969Y868D01*
G01X10975Y859D01*
G01X10982Y851D01*
G01X10989Y843D01*
G01X10996Y836D01*
G01X11003Y829D01*
G01X11011Y822D01*
G01X11019Y815D01*
G01X11028Y809D01*
G01X11037Y803D01*
G01X11045Y797D01*
G01X11055Y792D01*
G01X11064Y787D01*
G01X11073Y783D01*
G01X11083Y779D01*
G01X11093Y775D01*
G01X11103Y772D01*
G01X11113Y769D01*
G01X11123Y767D01*
G01X11134Y765D01*
G01X11144Y763D01*
G01X11155Y762D01*
G01X11165Y762D01*
G01X11176Y762D01*
G01X12700Y762D01*
G01X12710Y762D01*
G01X12720Y762D01*
G01X12731Y763D01*
G01X12741Y765D01*
G01X12752Y767D01*
G01X12762Y769D01*
G01X12772Y772D01*
G01X12782Y775D01*
G01X12792Y779D01*
G01X12802Y783D01*
G01X12811Y787D01*
G01X12820Y792D01*
G01X12830Y797D01*
G01X12838Y803D01*
G01X12847Y809D01*
G01X12856Y815D01*
G01X12864Y822D01*
G01X12872Y829D01*
G01X12879Y836D01*
G01X12886Y843D01*
G01X12893Y851D01*
G01X12900Y859D01*
G01X12906Y868D01*
G01X12912Y877D01*
G01X12918Y885D01*
G01X12923Y895D01*
G01X12928Y904D01*
G01X12932Y913D01*
G01X12936Y923D01*
G01X12940Y933D01*
G01X12943Y943D01*
G01X12946Y953D01*
G01X12948Y963D01*
G01X12950Y974D01*
G01X12952Y984D01*
G01X12953Y995D01*
G01X12953Y1005D01*
G01X12954Y1016D01*
G01X12954Y1005D01*
G01X12954Y995D01*
G01X12955Y984D01*
G01X12957Y974D01*
G01X12959Y963D01*
G01X12961Y953D01*
G01X12964Y943D01*
G01X12967Y933D01*
G01X12971Y923D01*
G01X12975Y913D01*
G01X12979Y904D01*
G01X12984Y895D01*
G01X12989Y885D01*
G01X12995Y877D01*
G01X13001Y868D01*
G01X13007Y859D01*
G01X13014Y851D01*
G01X13021Y843D01*
G01X13028Y836D01*
G01X13035Y829D01*
G01X13043Y822D01*
G01X13051Y815D01*
G01X13060Y809D01*
G01X13069Y803D01*
G01X13077Y797D01*
G01X13087Y792D01*
G01X13096Y787D01*
G01X13105Y783D01*
G01X13115Y779D01*
G01X13125Y775D01*
G01X13135Y772D01*
G01X13145Y769D01*
G01X13155Y767D01*
G01X13166Y765D01*
G01X13176Y763D01*
G01X13187Y762D01*
G01X13197Y762D01*
G01X13208Y762D01*
G01X14732Y762D01*
G01X14742Y762D01*
G01X14752Y762D01*
G01X14763Y763D01*
G01X14773Y765D01*
G01X14784Y767D01*
G01X14794Y769D01*
G01X14804Y772D01*
G01X14814Y775D01*
G01X14824Y779D01*
G01X14834Y783D01*
G01X14843Y787D01*
G01X14852Y792D01*
G01X14862Y797D01*
G01X14870Y803D01*
G01X14879Y809D01*
G01X14888Y815D01*
G01X14896Y822D01*
G01X14904Y829D01*
G01X14911Y836D01*
G01X14918Y843D01*
G01X14925Y851D01*
G01X14932Y859D01*
G01X14938Y868D01*
G01X14944Y877D01*
G01X14950Y885D01*
G01X14955Y895D01*
G01X14960Y904D01*
G01X14964Y913D01*
G01X14968Y923D01*
G01X14972Y933D01*
G01X14975Y943D01*
G01X14978Y953D01*
G01X14980Y963D01*
G01X14982Y974D01*
G01X14984Y984D01*
G01X14985Y995D01*
G01X14985Y1005D01*
G01X14986Y1016D01*
G01X14986Y1005D01*
G01X14986Y995D01*
G01X14987Y984D01*
G01X14989Y974D01*
G01X14991Y963D01*
G01X14993Y953D01*
G01X14996Y943D01*
G01X14999Y933D01*
G01X15003Y923D01*
G01X15007Y913D01*
G01X15011Y904D01*
G01X15016Y895D01*
G01X15021Y885D01*
G01X15027Y877D01*
G01X15033Y868D01*
G01X15039Y859D01*
G01X15046Y851D01*
G01X15053Y843D01*
G01X15060Y836D01*
G01X15067Y829D01*
G01X15075Y822D01*
G01X15083Y815D01*
G01X15092Y809D01*
G01X15101Y803D01*
G01X15109Y797D01*
G01X15119Y792D01*
G01X15128Y787D01*
G01X15137Y783D01*
G01X15147Y779D01*
G01X15157Y775D01*
G01X15167Y772D01*
G01X15177Y769D01*
G01X15187Y767D01*
G01X15198Y765D01*
G01X15208Y763D01*
G01X15219Y762D01*
G01X15229Y762D01*
G01X15240Y762D01*
G01X16764Y762D01*
G01X16774Y762D01*
G01X16784Y762D01*
G01X16795Y763D01*
G01X16805Y765D01*
G01X16816Y767D01*
G01X16826Y769D01*
G01X16836Y772D01*
G01X16846Y775D01*
G01X16856Y779D01*
G01X16866Y783D01*
G01X16875Y787D01*
G01X16884Y792D01*
G01X16894Y797D01*
G01X16902Y803D01*
G01X16911Y809D01*
G01X16920Y815D01*
G01X16928Y822D01*
G01X16936Y829D01*
G01X16943Y836D01*
G01X16950Y843D01*
G01X16957Y851D01*
G01X16964Y859D01*
G01X16970Y868D01*
G01X16976Y877D01*
G01X16982Y885D01*
G01X16987Y895D01*
G01X16992Y904D01*
G01X16996Y913D01*
G01X16997Y916D01*
G01X20320Y916D01*
G01X20332Y916D01*
G01X20345Y916D01*
G01X20357Y918D01*
G01X20370Y919D01*
G01X20382Y921D01*
G01X20395Y924D01*
G01X20407Y926D01*
G01X20419Y930D01*
G01X20431Y934D01*
G01X20443Y938D01*
G01X20455Y942D01*
G01X20467Y947D01*
G01X20478Y953D01*
G01X20489Y959D01*
G01X20500Y965D01*
G01X20511Y972D01*
G01X20521Y979D01*
G01X20532Y986D01*
G01X20542Y994D01*
G01X20551Y1002D01*
G01X20561Y1010D01*
G01X20570Y1019D01*
G01X22752Y3202D01*
G01X29210Y3202D01*
G01X29222Y3202D01*
G01X29235Y3202D01*
G01X29247Y3204D01*
G01X29260Y3205D01*
G01X29272Y3207D01*
G01X29285Y3210D01*
G01X29297Y3212D01*
G01X29309Y3216D01*
G01X29321Y3220D01*
G01X29333Y3224D01*
G01X29345Y3228D01*
G01X29357Y3233D01*
G01X29368Y3239D01*
G01X29379Y3245D01*
G01X29390Y3251D01*
G01X29401Y3258D01*
G01X29411Y3265D01*
G01X29422Y3272D01*
G01X29432Y3280D01*
G01X29441Y3288D01*
G01X29451Y3296D01*
G01X29460Y3305D01*
G01X34286Y8131D01*
G01X34295Y8140D01*
G01X34303Y8150D01*
G01X34311Y8159D01*
G01X34319Y8169D01*
G01X34326Y8180D01*
G01X34333Y8190D01*
G01X34340Y8201D01*
G01X34346Y8212D01*
G01X34352Y8223D01*
G01X34358Y8234D01*
G01X34363Y8246D01*
G01X34367Y8258D01*
G01X34371Y8270D01*
G01X34375Y8282D01*
G01X34379Y8294D01*
G01X34381Y8306D01*
G01X34384Y8319D01*
G01X34386Y8331D01*
G01X34387Y8344D01*
G01X34389Y8356D01*
G01X34389Y8369D01*
G01X34389Y8382D01*
G01X34389Y19877D01*
G01X34431Y19914D01*
G01X34470Y19955D01*
G01X34504Y20000D01*
G01X34533Y20049D01*
G01X34558Y20099D01*
G01X34577Y20152D01*
G01X34591Y20207D01*
G01X34599Y20263D01*
G01X34602Y20320D01*
G01X34599Y20376D01*
G01X34591Y20432D01*
G01X34577Y20487D01*
G01X34558Y20540D01*
G01X34533Y20590D01*
G01X34504Y20639D01*
G01X34470Y20684D01*
G01X34431Y20725D01*
G01X34389Y20762D01*
G01X34343Y20795D01*
G01X34294Y20824D01*
G01X34242Y20847D01*
G01X34189Y20865D01*
G01X34134Y20877D01*
G01X34078Y20884D01*
G01X34021Y20886D01*
G01X33965Y20882D01*
G01X33909Y20872D01*
G01X33855Y20857D01*
G01X33802Y20836D01*
G01X33752Y20810D01*
G01X33705Y20779D01*
G01X33661Y20744D01*
G01X33620Y20705D01*
G01X33584Y20662D01*
G01X33552Y20615D01*
G01X33525Y20565D01*
G01X33503Y20513D01*
G01X33486Y20459D01*
G01X33475Y20404D01*
G01X33470Y20348D01*
G01X33470Y20291D01*
G01X33475Y20235D01*
G01X33486Y20180D01*
G01X33503Y20126D01*
G01X33525Y20074D01*
G01X33552Y20024D01*
G01X33584Y19977D01*
G01X33620Y19934D01*
G01X33661Y19895D01*
G01X33682Y19878D01*
G01X33682Y8528D01*
G01X29063Y3909D01*
G01X22606Y3909D01*
G01X22593Y3909D01*
G01X22580Y3909D01*
G01X22568Y3907D01*
G01X22555Y3906D01*
G01X22543Y3904D01*
G01X22530Y3901D01*
G01X22518Y3899D01*
G01X22506Y3895D01*
G01X22494Y3891D01*
G01X22482Y3887D01*
G01X22470Y3883D01*
G01X22458Y3878D01*
G01X22447Y3872D01*
G01X22436Y3866D01*
G01X22425Y3860D01*
G01X22414Y3853D01*
G01X22404Y3846D01*
G01X22393Y3839D01*
G01X22383Y3831D01*
G01X22374Y3823D01*
G01X22364Y3815D01*
G01X22355Y3806D01*
G01X20173Y1623D01*
G01X17018Y1623D01*
G01X17018Y2540D01*
G01X17017Y2550D01*
G01X17017Y2560D01*
G01X17016Y2571D01*
G01X17014Y2581D01*
G01X17012Y2592D01*
G01X17010Y2602D01*
G01X17007Y2612D01*
G01X17004Y2622D01*
G01X17000Y2632D01*
G01X16996Y2642D01*
G01X16992Y2651D01*
G01X16987Y2660D01*
G01X16982Y2670D01*
G01X16976Y2678D01*
G01X16970Y2687D01*
G01X16964Y2696D01*
G01X16957Y2704D01*
G01X16950Y2712D01*
G01X16943Y2719D01*
G01X16936Y2726D01*
G01X16928Y2733D01*
G01X16920Y2740D01*
G01X16911Y2746D01*
G01X16902Y2752D01*
G01X16894Y2758D01*
G01X16884Y2763D01*
G01X16875Y2768D01*
G01X16866Y2772D01*
G01X16856Y2776D01*
G01X16846Y2780D01*
G01X16836Y2783D01*
G01X16826Y2786D01*
G01X16816Y2788D01*
G01X16805Y2790D01*
G01X16795Y2792D01*
G01X16784Y2793D01*
G01X16774Y2793D01*
G01X16764Y2794D01*
G01X15240Y2794D01*
G01X15229Y2793D01*
G01X15219Y2793D01*
G01X15208Y2792D01*
G01X15198Y2790D01*
G01X15187Y2788D01*
G01X15177Y2786D01*
G01X15167Y2783D01*
G01X15157Y2780D01*
G01X15147Y2776D01*
G01X15137Y2772D01*
G01X15128Y2768D01*
G01X15119Y2763D01*
G01X15109Y2758D01*
G01X15101Y2752D01*
G01X15092Y2746D01*
G01X15083Y2740D01*
G01X15075Y2733D01*
G01X15067Y2726D01*
G01X15060Y2719D01*
G01X15053Y2712D01*
G01X15046Y2704D01*
G01X15039Y2696D01*
G01X15033Y2687D01*
G01X15027Y2678D01*
G01X15021Y2670D01*
G01X15016Y2660D01*
G01X15011Y2651D01*
G01X15007Y2642D01*
G01X15003Y2632D01*
G01X14999Y2622D01*
G01X14996Y2612D01*
G01X14993Y2602D01*
G01X14991Y2592D01*
G01X14989Y2581D01*
G01X14987Y2571D01*
G01X14986Y2560D01*
G01X14986Y2550D01*
G01X14986Y2540D01*
G01X14985Y2550D01*
G01X14985Y2560D01*
G01X14984Y2571D01*
G01X14982Y2581D01*
G01X14980Y2592D01*
G01X14978Y2602D01*
G01X14975Y2612D01*
G01X14972Y2622D01*
G01X14968Y2632D01*
G01X14964Y2642D01*
G01X14960Y2651D01*
G01X14955Y2660D01*
G01X14950Y2670D01*
G01X14944Y2678D01*
G01X14938Y2687D01*
G01X14932Y2696D01*
G01X14925Y2704D01*
G01X14918Y2712D01*
G01X14911Y2719D01*
G01X14904Y2726D01*
G01X14896Y2733D01*
G01X14888Y2740D01*
G01X14879Y2746D01*
G01X14870Y2752D01*
G01X14862Y2758D01*
G01X14852Y2763D01*
G01X14843Y2768D01*
G01X14834Y2772D01*
G01X14824Y2776D01*
G01X14814Y2780D01*
G01X14804Y2783D01*
G01X14794Y2786D01*
G01X14784Y2788D01*
G01X14773Y2790D01*
G01X14763Y2792D01*
G01X14752Y2793D01*
G01X14742Y2793D01*
G01X14732Y2794D01*
G01X13208Y2794D01*
G01X13197Y2793D01*
G01X13187Y2793D01*
G01X13176Y2792D01*
G01X13166Y2790D01*
G01X13155Y2788D01*
G01X13145Y2786D01*
G01X13135Y2783D01*
G01X13125Y2780D01*
G01X13115Y2776D01*
G01X13105Y2772D01*
G01X13096Y2768D01*
G01X13087Y2763D01*
G01X13077Y2758D01*
G01X13069Y2752D01*
G01X13060Y2746D01*
G01X13051Y2740D01*
G01X13043Y2733D01*
G01X13035Y2726D01*
G01X13028Y2719D01*
G01X13021Y2712D01*
G01X13014Y2704D01*
G01X13007Y2696D01*
G01X13001Y2687D01*
G01X12995Y2678D01*
G01X12989Y2670D01*
G01X12984Y2660D01*
G01X12979Y2651D01*
G01X12975Y2642D01*
G01X12971Y2632D01*
G01X12967Y2622D01*
G01X12964Y2612D01*
G01X12961Y2602D01*
G01X12959Y2592D01*
G01X12957Y2581D01*
G01X12955Y2571D01*
G01X12954Y2560D01*
G01X12954Y2550D01*
G01X12954Y2540D01*
G01X12953Y2550D01*
G01X12953Y2560D01*
G01X12952Y2571D01*
G01X12950Y2581D01*
G01X12948Y2592D01*
G01X12946Y2602D01*
G01X12943Y2612D01*
G01X12940Y2622D01*
G01X12936Y2632D01*
G01X12932Y2642D01*
G01X12928Y2651D01*
G01X12923Y2660D01*
G01X12918Y2670D01*
G01X12912Y2678D01*
G01X12906Y2687D01*
G01X12900Y2696D01*
G01X12893Y2704D01*
G01X12886Y2712D01*
G01X12879Y2719D01*
G01X12872Y2726D01*
G01X12864Y2733D01*
G01X12856Y2740D01*
G01X12847Y2746D01*
G01X12838Y2752D01*
G01X12830Y2758D01*
G01X12820Y2763D01*
G01X12811Y2768D01*
G01X12802Y2772D01*
G01X12792Y2776D01*
G01X12782Y2780D01*
G01X12772Y2783D01*
G01X12762Y2786D01*
G01X12752Y2788D01*
G01X12741Y2790D01*
G01X12731Y2792D01*
G01X12720Y2793D01*
G01X12710Y2793D01*
G01X12700Y2794D01*
G01X11176Y2794D01*
G01X11165Y2793D01*
G01X11155Y2793D01*
G01X11144Y2792D01*
G01X11134Y2790D01*
G01X11123Y2788D01*
G01X11113Y2786D01*
G01X11103Y2783D01*
G01X11093Y2780D01*
G01X11083Y2776D01*
G01X11073Y2772D01*
G01X11064Y2768D01*
G01X11055Y2763D01*
G01X11045Y2758D01*
G01X11037Y2752D01*
G01X11028Y2746D01*
G01X11019Y2740D01*
G01X11011Y2733D01*
G01X11003Y2726D01*
G01X10996Y2719D01*
G01X10989Y2712D01*
G01X10982Y2704D01*
G01X10975Y2696D01*
G01X10969Y2687D01*
G01X10963Y2678D01*
G01X10957Y2670D01*
G01X10952Y2660D01*
G01X10947Y2651D01*
G01X10943Y2642D01*
G01X10939Y2632D01*
G01X10935Y2622D01*
G01X10932Y2612D01*
G01X10929Y2602D01*
G01X10927Y2592D01*
G01X10925Y2581D01*
G01X10923Y2571D01*
G01X10922Y2560D01*
G01X10922Y2550D01*
G01X10922Y2540D01*
G01X10921Y2550D01*
G01X10921Y2560D01*
G01X10920Y2571D01*
G01X10918Y2581D01*
G01X10916Y2592D01*
G01X10914Y2602D01*
G01X10911Y2612D01*
G01X10908Y2622D01*
G01X10904Y2632D01*
G01X10900Y2642D01*
G01X10896Y2651D01*
G01X10891Y2660D01*
G01X10886Y2670D01*
G01X10880Y2678D01*
G01X10874Y2687D01*
G01X10868Y2696D01*
G01X10861Y2704D01*
G01X10854Y2712D01*
G01X10847Y2719D01*
G01X10840Y2726D01*
G01X10832Y2733D01*
G01X10824Y2740D01*
G01X10815Y2746D01*
G01X10806Y2752D01*
G01X10798Y2758D01*
G01X10788Y2763D01*
G01X10779Y2768D01*
G01X10770Y2772D01*
G01X10760Y2776D01*
G01X10750Y2780D01*
G01X10740Y2783D01*
G01X10730Y2786D01*
G01X10720Y2788D01*
G01X10709Y2790D01*
G01X10699Y2792D01*
G01X10688Y2793D01*
G01X10678Y2793D01*
G01X10668Y2794D01*
G01X9144Y2794D01*
G01X9133Y2793D01*
G01X9123Y2793D01*
G01X9112Y2792D01*
G01X9102Y2790D01*
G01X9091Y2788D01*
G01X9081Y2786D01*
G01X9071Y2783D01*
G01X9061Y2780D01*
G01X9051Y2776D01*
G01X9041Y2772D01*
G01X9032Y2768D01*
G01X9023Y2763D01*
G01X9013Y2758D01*
G01X9005Y2752D01*
G01X8996Y2746D01*
G01X8987Y2740D01*
G01X8979Y2733D01*
G01X8971Y2726D01*
G01X8964Y2719D01*
G01X8957Y2712D01*
G01X8950Y2704D01*
G01X8943Y2696D01*
G01X8937Y2687D01*
G01X8931Y2678D01*
G01X8925Y2670D01*
G01X8920Y2660D01*
G01X8915Y2651D01*
G01X8911Y2642D01*
G01X8907Y2632D01*
G01X8903Y2622D01*
G01X8900Y2612D01*
G01X8897Y2602D01*
G01X8895Y2592D01*
G01X8893Y2581D01*
G01X8891Y2571D01*
G01X8890Y2560D01*
G01X8890Y2550D01*
G01X8890Y2540D01*
G01X8889Y2550D01*
G01X8889Y2560D01*
G01X8888Y2571D01*
G01X8886Y2581D01*
G01X8884Y2592D01*
G01X8882Y2602D01*
G01X8879Y2612D01*
G01X8876Y2622D01*
G01X8872Y2632D01*
G01X8868Y2642D01*
G01X8864Y2651D01*
G01X8859Y2660D01*
G01X8854Y2670D01*
G01X8848Y2678D01*
G01X8842Y2687D01*
G01X8836Y2696D01*
G01X8829Y2704D01*
G01X8822Y2712D01*
G01X8815Y2719D01*
G01X8808Y2726D01*
G01X8800Y2733D01*
G01X8792Y2740D01*
G01X8783Y2746D01*
G01X8774Y2752D01*
G01X8766Y2758D01*
G01X8756Y2763D01*
G01X8747Y2768D01*
G01X8738Y2772D01*
G01X8728Y2776D01*
G01X8718Y2780D01*
G01X8708Y2783D01*
G01X8698Y2786D01*
G01X8688Y2788D01*
G01X8677Y2790D01*
G01X8667Y2792D01*
G01X8656Y2793D01*
G01X8646Y2793D01*
G01X8636Y2794D01*
G01X8305Y2794D01*
G01X8305Y3377D01*
G01X11503Y6575D01*
G01X11503Y6575D01*
G01X11557Y6559D01*
G01X11613Y6549D01*
G01X11669Y6545D01*
G01X11726Y6547D01*
G01X11782Y6554D01*
G01X11837Y6566D01*
G01X11890Y6584D01*
G01X11942Y6607D01*
G01X11991Y6636D01*
G01X12037Y6669D01*
G01X12079Y6706D01*
G01X12117Y6747D01*
G01X12151Y6792D01*
G01X12181Y6841D01*
G01X12205Y6891D01*
G01X12225Y6945D01*
G01X12239Y6999D01*
G01X12247Y7055D01*
G01X12250Y7112D01*
G01X12247Y7168D01*
G01X12239Y7224D01*
G01X12225Y7278D01*
G01X12205Y7332D01*
G01X12181Y7382D01*
G01X12151Y7431D01*
G01X12117Y7476D01*
G01X12079Y7517D01*
G01X12037Y7554D01*
G01X11991Y7587D01*
G01X11942Y7616D01*
G01X11890Y7639D01*
G01X11837Y7657D01*
G01X11782Y7669D01*
G01X11726Y7676D01*
G01X11669Y7678D01*
G01X11613Y7674D01*
G01X11557Y7664D01*
G01X11503Y7648D01*
G01X11451Y7628D01*
G01X11400Y7602D01*
G01X11353Y7571D01*
G01X11309Y7536D01*
G01X11293Y7521D01*
G01X11291Y7520D01*
G01X11278Y7515D01*
G01X11264Y7510D01*
G01X11251Y7505D01*
G01X11239Y7498D01*
G01X11226Y7492D01*
G01X11214Y7485D01*
G01X11202Y7478D01*
G01X11190Y7470D01*
G01X11178Y7462D01*
G01X11167Y7454D01*
G01X11156Y7445D01*
G01X11145Y7436D01*
G01X11135Y7426D01*
G01X11124Y7417D01*
G01X7568Y3861D01*
G01X7559Y3850D01*
G01X7549Y3840D01*
G01X7540Y3829D01*
G01X7531Y3818D01*
G01X7523Y3807D01*
G01X7515Y3795D01*
G01X7507Y3783D01*
G01X7500Y3771D01*
G01X7493Y3759D01*
G01X7487Y3746D01*
G01X7480Y3734D01*
G01X7475Y3721D01*
G01X7470Y3707D01*
G01X7465Y3694D01*
G01X7461Y3681D01*
G01X7457Y3667D01*
G01X7453Y3653D01*
G01X7450Y3640D01*
G01X7448Y3626D01*
G01X7446Y3612D01*
G01X7444Y3598D01*
G01X7443Y3584D01*
G01X7442Y3570D01*
G01X7442Y3556D01*
G01X7442Y2794D01*
G01X7112Y2794D01*
G01X7101Y2793D01*
G01X7091Y2793D01*
G01X7080Y2792D01*
G01X7070Y2790D01*
G01X7059Y2788D01*
G01X7049Y2786D01*
G01X7039Y2783D01*
G01X7029Y2780D01*
G01X7019Y2776D01*
G01X7009Y2772D01*
G01X7000Y2768D01*
G01X6991Y2763D01*
G01X6981Y2758D01*
G01X6973Y2752D01*
G01X6964Y2746D01*
G01X6955Y2740D01*
G01X6947Y2733D01*
G01X6939Y2726D01*
G01X6932Y2719D01*
G01X6925Y2712D01*
G01X6918Y2704D01*
G01X6911Y2696D01*
G01X6905Y2687D01*
G01X6899Y2678D01*
G01X6893Y2670D01*
G01X6888Y2660D01*
G01X6883Y2651D01*
G01X6879Y2642D01*
G01X6875Y2632D01*
G01X6871Y2622D01*
G01X6868Y2612D01*
G01X6865Y2602D01*
G01X6863Y2592D01*
G01X6861Y2581D01*
G01X6859Y2571D01*
G01X6858Y2560D01*
G01X6858Y2550D01*
G01X6858Y2540D01*
G01X6858Y1016D01*
G01X6858Y1005D01*
G01X6858Y995D01*
G01X6859Y984D01*
G01X6861Y974D01*
G01X6863Y963D01*
G01X6865Y953D01*
G01X6868Y943D01*
G01X6871Y933D01*
G01X6875Y923D01*
G01X6879Y913D01*
G01X6883Y904D01*
G01X6888Y895D01*
G01X6893Y885D01*
G01X6899Y877D01*
G01X6905Y868D01*
G01X6911Y859D01*
G01X6918Y851D01*
G01X6925Y843D01*
G01X6932Y836D01*
G01X6939Y829D01*
G01X6947Y822D01*
G01X6955Y815D01*
G01X6964Y809D01*
G01X6973Y803D01*
G01X6981Y797D01*
G01X6991Y792D01*
G01X7000Y787D01*
G01X7009Y783D01*
G01X7019Y779D01*
G01X7029Y775D01*
G01X7039Y772D01*
G01X7049Y769D01*
G01X7059Y767D01*
G01X7070Y765D01*
G01X7080Y763D01*
G01X7091Y762D01*
G01X7101Y762D01*
G37*
G36*
G01X32131Y2540D02*
G01X32131Y1905D01*
G01X32766Y1905D01*
G01X32766Y2286D01*
G01X32765Y2296D01*
G01X32765Y2306D01*
G01X32764Y2317D01*
G01X32762Y2327D01*
G01X32760Y2338D01*
G01X32758Y2348D01*
G01X32755Y2358D01*
G01X32752Y2368D01*
G01X32748Y2378D01*
G01X32744Y2388D01*
G01X32740Y2397D01*
G01X32735Y2406D01*
G01X32730Y2416D01*
G01X32724Y2424D01*
G01X32718Y2433D01*
G01X32712Y2442D01*
G01X32705Y2450D01*
G01X32698Y2458D01*
G01X32691Y2465D01*
G01X32684Y2472D01*
G01X32676Y2479D01*
G01X32668Y2486D01*
G01X32659Y2492D01*
G01X32650Y2498D01*
G01X32642Y2504D01*
G01X32632Y2509D01*
G01X32623Y2514D01*
G01X32614Y2518D01*
G01X32604Y2522D01*
G01X32594Y2526D01*
G01X32584Y2529D01*
G01X32574Y2532D01*
G01X32564Y2534D01*
G01X32553Y2536D01*
G01X32543Y2538D01*
G01X32532Y2539D01*
G01X32522Y2539D01*
G01X32512Y2540D01*
G01X32131Y2540D01*
G37*
G36*
G01X30099Y2540D02*
G01X30099Y1905D01*
G01X31369Y1905D01*
G01X31369Y2540D01*
G01X30988Y2540D01*
G01X30977Y2539D01*
G01X30967Y2539D01*
G01X30956Y2538D01*
G01X30946Y2536D01*
G01X30935Y2534D01*
G01X30925Y2532D01*
G01X30915Y2529D01*
G01X30905Y2526D01*
G01X30895Y2522D01*
G01X30885Y2518D01*
G01X30876Y2514D01*
G01X30867Y2509D01*
G01X30857Y2504D01*
G01X30849Y2498D01*
G01X30840Y2492D01*
G01X30831Y2486D01*
G01X30823Y2479D01*
G01X30815Y2472D01*
G01X30808Y2465D01*
G01X30801Y2458D01*
G01X30794Y2450D01*
G01X30787Y2442D01*
G01X30781Y2433D01*
G01X30775Y2424D01*
G01X30769Y2416D01*
G01X30764Y2406D01*
G01X30759Y2397D01*
G01X30755Y2388D01*
G01X30751Y2378D01*
G01X30747Y2368D01*
G01X30744Y2358D01*
G01X30741Y2348D01*
G01X30739Y2338D01*
G01X30737Y2327D01*
G01X30735Y2317D01*
G01X30734Y2306D01*
G01X30734Y2296D01*
G01X30734Y2286D01*
G01X30733Y2296D01*
G01X30733Y2306D01*
G01X30732Y2317D01*
G01X30730Y2327D01*
G01X30728Y2338D01*
G01X30726Y2348D01*
G01X30723Y2358D01*
G01X30720Y2368D01*
G01X30716Y2378D01*
G01X30712Y2388D01*
G01X30708Y2397D01*
G01X30703Y2406D01*
G01X30698Y2416D01*
G01X30692Y2424D01*
G01X30686Y2433D01*
G01X30680Y2442D01*
G01X30673Y2450D01*
G01X30666Y2458D01*
G01X30659Y2465D01*
G01X30652Y2472D01*
G01X30644Y2479D01*
G01X30636Y2486D01*
G01X30627Y2492D01*
G01X30618Y2498D01*
G01X30610Y2504D01*
G01X30600Y2509D01*
G01X30591Y2514D01*
G01X30582Y2518D01*
G01X30572Y2522D01*
G01X30562Y2526D01*
G01X30552Y2529D01*
G01X30542Y2532D01*
G01X30532Y2534D01*
G01X30521Y2536D01*
G01X30511Y2538D01*
G01X30500Y2539D01*
G01X30490Y2539D01*
G01X30480Y2540D01*
G01X30099Y2540D01*
G37*
G36*
G01X28067Y2540D02*
G01X28067Y1905D01*
G01X29337Y1905D01*
G01X29337Y2540D01*
G01X28956Y2540D01*
G01X28945Y2539D01*
G01X28935Y2539D01*
G01X28924Y2538D01*
G01X28914Y2536D01*
G01X28903Y2534D01*
G01X28893Y2532D01*
G01X28883Y2529D01*
G01X28873Y2526D01*
G01X28863Y2522D01*
G01X28853Y2518D01*
G01X28844Y2514D01*
G01X28835Y2509D01*
G01X28825Y2504D01*
G01X28817Y2498D01*
G01X28808Y2492D01*
G01X28799Y2486D01*
G01X28791Y2479D01*
G01X28783Y2472D01*
G01X28776Y2465D01*
G01X28769Y2458D01*
G01X28762Y2450D01*
G01X28755Y2442D01*
G01X28749Y2433D01*
G01X28743Y2424D01*
G01X28737Y2416D01*
G01X28732Y2406D01*
G01X28727Y2397D01*
G01X28723Y2388D01*
G01X28719Y2378D01*
G01X28715Y2368D01*
G01X28712Y2358D01*
G01X28709Y2348D01*
G01X28707Y2338D01*
G01X28705Y2327D01*
G01X28703Y2317D01*
G01X28702Y2306D01*
G01X28702Y2296D01*
G01X28702Y2286D01*
G01X28701Y2296D01*
G01X28701Y2306D01*
G01X28700Y2317D01*
G01X28698Y2327D01*
G01X28696Y2338D01*
G01X28694Y2348D01*
G01X28691Y2358D01*
G01X28688Y2368D01*
G01X28684Y2378D01*
G01X28680Y2388D01*
G01X28676Y2397D01*
G01X28671Y2406D01*
G01X28666Y2416D01*
G01X28660Y2424D01*
G01X28654Y2433D01*
G01X28648Y2442D01*
G01X28641Y2450D01*
G01X28634Y2458D01*
G01X28627Y2465D01*
G01X28620Y2472D01*
G01X28612Y2479D01*
G01X28604Y2486D01*
G01X28595Y2492D01*
G01X28586Y2498D01*
G01X28578Y2504D01*
G01X28568Y2509D01*
G01X28559Y2514D01*
G01X28550Y2518D01*
G01X28540Y2522D01*
G01X28530Y2526D01*
G01X28520Y2529D01*
G01X28510Y2532D01*
G01X28500Y2534D01*
G01X28489Y2536D01*
G01X28479Y2538D01*
G01X28468Y2539D01*
G01X28458Y2539D01*
G01X28448Y2540D01*
G01X28067Y2540D01*
G37*
G36*
G01X26035Y2540D02*
G01X26035Y1905D01*
G01X27305Y1905D01*
G01X27305Y2540D01*
G01X26924Y2540D01*
G01X26913Y2539D01*
G01X26903Y2539D01*
G01X26892Y2538D01*
G01X26882Y2536D01*
G01X26871Y2534D01*
G01X26861Y2532D01*
G01X26851Y2529D01*
G01X26841Y2526D01*
G01X26831Y2522D01*
G01X26821Y2518D01*
G01X26812Y2514D01*
G01X26803Y2509D01*
G01X26793Y2504D01*
G01X26785Y2498D01*
G01X26776Y2492D01*
G01X26767Y2486D01*
G01X26759Y2479D01*
G01X26751Y2472D01*
G01X26744Y2465D01*
G01X26737Y2458D01*
G01X26730Y2450D01*
G01X26723Y2442D01*
G01X26717Y2433D01*
G01X26711Y2424D01*
G01X26705Y2416D01*
G01X26700Y2406D01*
G01X26695Y2397D01*
G01X26691Y2388D01*
G01X26687Y2378D01*
G01X26683Y2368D01*
G01X26680Y2358D01*
G01X26677Y2348D01*
G01X26675Y2338D01*
G01X26673Y2327D01*
G01X26671Y2317D01*
G01X26670Y2306D01*
G01X26670Y2296D01*
G01X26670Y2286D01*
G01X26669Y2296D01*
G01X26669Y2306D01*
G01X26668Y2317D01*
G01X26666Y2327D01*
G01X26664Y2338D01*
G01X26662Y2348D01*
G01X26659Y2358D01*
G01X26656Y2368D01*
G01X26652Y2378D01*
G01X26648Y2388D01*
G01X26644Y2397D01*
G01X26639Y2406D01*
G01X26634Y2416D01*
G01X26628Y2424D01*
G01X26622Y2433D01*
G01X26616Y2442D01*
G01X26609Y2450D01*
G01X26602Y2458D01*
G01X26595Y2465D01*
G01X26588Y2472D01*
G01X26580Y2479D01*
G01X26572Y2486D01*
G01X26563Y2492D01*
G01X26554Y2498D01*
G01X26546Y2504D01*
G01X26536Y2509D01*
G01X26527Y2514D01*
G01X26518Y2518D01*
G01X26508Y2522D01*
G01X26498Y2526D01*
G01X26488Y2529D01*
G01X26478Y2532D01*
G01X26468Y2534D01*
G01X26457Y2536D01*
G01X26447Y2538D01*
G01X26436Y2539D01*
G01X26426Y2539D01*
G01X26416Y2540D01*
G01X26035Y2540D01*
G37*
G36*
G01X24003Y2540D02*
G01X24003Y1905D01*
G01X25273Y1905D01*
G01X25273Y2540D01*
G01X24892Y2540D01*
G01X24881Y2539D01*
G01X24871Y2539D01*
G01X24860Y2538D01*
G01X24850Y2536D01*
G01X24839Y2534D01*
G01X24829Y2532D01*
G01X24819Y2529D01*
G01X24809Y2526D01*
G01X24799Y2522D01*
G01X24789Y2518D01*
G01X24780Y2514D01*
G01X24771Y2509D01*
G01X24761Y2504D01*
G01X24753Y2498D01*
G01X24744Y2492D01*
G01X24735Y2486D01*
G01X24727Y2479D01*
G01X24719Y2472D01*
G01X24712Y2465D01*
G01X24705Y2458D01*
G01X24698Y2450D01*
G01X24691Y2442D01*
G01X24685Y2433D01*
G01X24679Y2424D01*
G01X24673Y2416D01*
G01X24668Y2406D01*
G01X24663Y2397D01*
G01X24659Y2388D01*
G01X24655Y2378D01*
G01X24651Y2368D01*
G01X24648Y2358D01*
G01X24645Y2348D01*
G01X24643Y2338D01*
G01X24641Y2327D01*
G01X24639Y2317D01*
G01X24638Y2306D01*
G01X24638Y2296D01*
G01X24638Y2286D01*
G01X24637Y2296D01*
G01X24637Y2306D01*
G01X24636Y2317D01*
G01X24634Y2327D01*
G01X24632Y2338D01*
G01X24630Y2348D01*
G01X24627Y2358D01*
G01X24624Y2368D01*
G01X24620Y2378D01*
G01X24616Y2388D01*
G01X24612Y2397D01*
G01X24607Y2406D01*
G01X24602Y2416D01*
G01X24596Y2424D01*
G01X24590Y2433D01*
G01X24584Y2442D01*
G01X24577Y2450D01*
G01X24570Y2458D01*
G01X24563Y2465D01*
G01X24556Y2472D01*
G01X24548Y2479D01*
G01X24540Y2486D01*
G01X24531Y2492D01*
G01X24522Y2498D01*
G01X24514Y2504D01*
G01X24504Y2509D01*
G01X24495Y2514D01*
G01X24486Y2518D01*
G01X24476Y2522D01*
G01X24466Y2526D01*
G01X24456Y2529D01*
G01X24446Y2532D01*
G01X24436Y2534D01*
G01X24425Y2536D01*
G01X24415Y2538D01*
G01X24404Y2539D01*
G01X24394Y2539D01*
G01X24384Y2540D01*
G01X24003Y2540D01*
G37*
G36*
G01X22606Y2286D02*
G01X22606Y1905D01*
G01X23241Y1905D01*
G01X23241Y2540D01*
G01X22860Y2540D01*
G01X22849Y2539D01*
G01X22839Y2539D01*
G01X22828Y2538D01*
G01X22818Y2536D01*
G01X22807Y2534D01*
G01X22797Y2532D01*
G01X22787Y2529D01*
G01X22777Y2526D01*
G01X22767Y2522D01*
G01X22757Y2518D01*
G01X22748Y2514D01*
G01X22739Y2509D01*
G01X22729Y2504D01*
G01X22721Y2498D01*
G01X22712Y2492D01*
G01X22703Y2486D01*
G01X22695Y2479D01*
G01X22687Y2472D01*
G01X22680Y2465D01*
G01X22673Y2458D01*
G01X22666Y2450D01*
G01X22659Y2442D01*
G01X22653Y2433D01*
G01X22647Y2424D01*
G01X22641Y2416D01*
G01X22636Y2406D01*
G01X22631Y2397D01*
G01X22627Y2388D01*
G01X22623Y2378D01*
G01X22619Y2368D01*
G01X22616Y2358D01*
G01X22613Y2348D01*
G01X22611Y2338D01*
G01X22609Y2327D01*
G01X22607Y2317D01*
G01X22606Y2306D01*
G01X22606Y2296D01*
G01X22606Y2286D01*
G37*
G36*
G01X2159Y2794D02*
G01X2159Y2159D01*
G01X2794Y2159D01*
G01X2794Y2540D01*
G01X2793Y2550D01*
G01X2793Y2560D01*
G01X2792Y2571D01*
G01X2790Y2581D01*
G01X2788Y2592D01*
G01X2786Y2602D01*
G01X2783Y2612D01*
G01X2780Y2622D01*
G01X2776Y2632D01*
G01X2772Y2642D01*
G01X2768Y2651D01*
G01X2763Y2660D01*
G01X2758Y2670D01*
G01X2752Y2678D01*
G01X2746Y2687D01*
G01X2740Y2696D01*
G01X2733Y2704D01*
G01X2726Y2712D01*
G01X2719Y2719D01*
G01X2712Y2726D01*
G01X2704Y2733D01*
G01X2696Y2740D01*
G01X2687Y2746D01*
G01X2678Y2752D01*
G01X2670Y2758D01*
G01X2660Y2763D01*
G01X2651Y2768D01*
G01X2642Y2772D01*
G01X2632Y2776D01*
G01X2622Y2780D01*
G01X2612Y2783D01*
G01X2602Y2786D01*
G01X2592Y2788D01*
G01X2581Y2790D01*
G01X2571Y2792D01*
G01X2560Y2793D01*
G01X2550Y2793D01*
G01X2540Y2794D01*
G01X2159Y2794D01*
G37*
G36*
G01X762Y2540D02*
G01X762Y2159D01*
G01X1397Y2159D01*
G01X1397Y2794D01*
G01X1016Y2794D01*
G01X1005Y2793D01*
G01X995Y2793D01*
G01X984Y2792D01*
G01X974Y2790D01*
G01X963Y2788D01*
G01X953Y2786D01*
G01X943Y2783D01*
G01X933Y2780D01*
G01X923Y2776D01*
G01X913Y2772D01*
G01X904Y2768D01*
G01X895Y2763D01*
G01X885Y2758D01*
G01X877Y2752D01*
G01X868Y2746D01*
G01X859Y2740D01*
G01X851Y2733D01*
G01X843Y2726D01*
G01X836Y2719D01*
G01X829Y2712D01*
G01X822Y2704D01*
G01X815Y2696D01*
G01X809Y2687D01*
G01X803Y2678D01*
G01X797Y2670D01*
G01X792Y2660D01*
G01X787Y2651D01*
G01X783Y2642D01*
G01X779Y2632D01*
G01X775Y2622D01*
G01X772Y2612D01*
G01X769Y2602D01*
G01X767Y2592D01*
G01X765Y2581D01*
G01X763Y2571D01*
G01X762Y2560D01*
G01X762Y2550D01*
G01X762Y2540D01*
G37*
G36*
G01X1005Y3048D02*
G01X1016Y3048D01*
G01X2540Y3048D01*
G01X2550Y3048D01*
G01X2560Y3048D01*
G01X2571Y3049D01*
G01X2581Y3051D01*
G01X2592Y3053D01*
G01X2602Y3055D01*
G01X2612Y3058D01*
G01X2622Y3061D01*
G01X2632Y3065D01*
G01X2642Y3069D01*
G01X2651Y3073D01*
G01X2660Y3078D01*
G01X2670Y3083D01*
G01X2678Y3089D01*
G01X2687Y3095D01*
G01X2696Y3101D01*
G01X2704Y3108D01*
G01X2712Y3115D01*
G01X2719Y3122D01*
G01X2726Y3129D01*
G01X2733Y3137D01*
G01X2740Y3145D01*
G01X2746Y3154D01*
G01X2752Y3163D01*
G01X2758Y3171D01*
G01X2763Y3181D01*
G01X2768Y3190D01*
G01X2772Y3199D01*
G01X2776Y3209D01*
G01X2780Y3219D01*
G01X2783Y3229D01*
G01X2786Y3239D01*
G01X2788Y3249D01*
G01X2790Y3260D01*
G01X2792Y3270D01*
G01X2793Y3281D01*
G01X2793Y3291D01*
G01X2794Y3302D01*
G01X2794Y4826D01*
G01X2793Y4836D01*
G01X2793Y4846D01*
G01X2792Y4857D01*
G01X2790Y4867D01*
G01X2788Y4878D01*
G01X2786Y4888D01*
G01X2783Y4898D01*
G01X2780Y4908D01*
G01X2776Y4918D01*
G01X2772Y4928D01*
G01X2768Y4937D01*
G01X2763Y4946D01*
G01X2758Y4956D01*
G01X2752Y4964D01*
G01X2746Y4973D01*
G01X2740Y4982D01*
G01X2733Y4990D01*
G01X2726Y4998D01*
G01X2719Y5005D01*
G01X2712Y5012D01*
G01X2704Y5019D01*
G01X2696Y5026D01*
G01X2687Y5032D01*
G01X2678Y5038D01*
G01X2670Y5044D01*
G01X2660Y5049D01*
G01X2651Y5054D01*
G01X2642Y5058D01*
G01X2632Y5062D01*
G01X2622Y5066D01*
G01X2612Y5069D01*
G01X2602Y5072D01*
G01X2592Y5074D01*
G01X2581Y5076D01*
G01X2571Y5078D01*
G01X2560Y5079D01*
G01X2550Y5079D01*
G01X2540Y5080D01*
G01X1016Y5080D01*
G01X1005Y5079D01*
G01X995Y5079D01*
G01X984Y5078D01*
G01X974Y5076D01*
G01X963Y5074D01*
G01X953Y5072D01*
G01X943Y5069D01*
G01X933Y5066D01*
G01X923Y5062D01*
G01X913Y5058D01*
G01X904Y5054D01*
G01X895Y5049D01*
G01X885Y5044D01*
G01X877Y5038D01*
G01X868Y5032D01*
G01X859Y5026D01*
G01X851Y5019D01*
G01X843Y5012D01*
G01X836Y5005D01*
G01X829Y4998D01*
G01X822Y4990D01*
G01X815Y4982D01*
G01X809Y4973D01*
G01X803Y4964D01*
G01X797Y4956D01*
G01X792Y4946D01*
G01X787Y4937D01*
G01X783Y4928D01*
G01X779Y4918D01*
G01X775Y4908D01*
G01X772Y4898D01*
G01X769Y4888D01*
G01X767Y4878D01*
G01X765Y4867D01*
G01X763Y4857D01*
G01X762Y4846D01*
G01X762Y4836D01*
G01X762Y4826D01*
G01X762Y3302D01*
G01X762Y3291D01*
G01X762Y3281D01*
G01X763Y3270D01*
G01X765Y3260D01*
G01X767Y3249D01*
G01X769Y3239D01*
G01X772Y3229D01*
G01X775Y3219D01*
G01X779Y3209D01*
G01X783Y3199D01*
G01X787Y3190D01*
G01X792Y3181D01*
G01X797Y3171D01*
G01X803Y3163D01*
G01X809Y3154D01*
G01X815Y3145D01*
G01X822Y3137D01*
G01X829Y3129D01*
G01X836Y3122D01*
G01X843Y3115D01*
G01X851Y3108D01*
G01X859Y3101D01*
G01X868Y3095D01*
G01X877Y3089D01*
G01X885Y3083D01*
G01X895Y3078D01*
G01X904Y3073D01*
G01X913Y3069D01*
G01X923Y3065D01*
G01X933Y3061D01*
G01X943Y3058D01*
G01X953Y3055D01*
G01X963Y3053D01*
G01X974Y3051D01*
G01X984Y3049D01*
G01X995Y3048D01*
G01X1005Y3048D01*
G37*
G36*
G01X4849Y3237D02*
G01X5033Y3224D01*
G01X5218Y3228D01*
G01X5402Y3251D01*
G01X5582Y3292D01*
G01X5758Y3351D01*
G01X5926Y3427D01*
G01X6087Y3520D01*
G01X6237Y3628D01*
G01X6376Y3750D01*
G01X6502Y3886D01*
G01X6613Y4034D01*
G01X6710Y4192D01*
G01X6790Y4358D01*
G01X6854Y4532D01*
G01X6899Y4712D01*
G01X6927Y4895D01*
G01X6936Y5080D01*
G01X6927Y5264D01*
G01X6899Y5447D01*
G01X6854Y5627D01*
G01X6790Y5801D01*
G01X6710Y5967D01*
G01X6613Y6125D01*
G01X6502Y6273D01*
G01X6376Y6409D01*
G01X6237Y6531D01*
G01X6087Y6639D01*
G01X5926Y6732D01*
G01X5758Y6808D01*
G01X5582Y6867D01*
G01X5402Y6908D01*
G01X5218Y6931D01*
G01X5033Y6935D01*
G01X4849Y6922D01*
G01X4666Y6889D01*
G01X4488Y6839D01*
G01X4316Y6772D01*
G01X4151Y6687D01*
G01X3996Y6587D01*
G01X3851Y6471D01*
G01X3719Y6342D01*
G01X3600Y6200D01*
G01X3495Y6048D01*
G01X3407Y5885D01*
G01X3335Y5714D01*
G01X3280Y5538D01*
G01X3244Y5356D01*
G01X3225Y5172D01*
G01X3225Y4987D01*
G01X3244Y4803D01*
G01X3280Y4621D01*
G01X3335Y4445D01*
G01X3407Y4274D01*
G01X3495Y4111D01*
G01X3600Y3959D01*
G01X3719Y3817D01*
G01X3851Y3688D01*
G01X3996Y3572D01*
G01X4151Y3472D01*
G01X4316Y3387D01*
G01X4488Y3320D01*
G01X4666Y3270D01*
G01X4849Y3237D01*
G37*
G36*
G01X35583Y3237D02*
G01X35767Y3224D01*
G01X35952Y3228D01*
G01X36136Y3251D01*
G01X36316Y3292D01*
G01X36492Y3351D01*
G01X36660Y3427D01*
G01X36821Y3520D01*
G01X36971Y3628D01*
G01X37110Y3750D01*
G01X37236Y3886D01*
G01X37347Y4034D01*
G01X37444Y4192D01*
G01X37524Y4358D01*
G01X37588Y4532D01*
G01X37633Y4712D01*
G01X37661Y4895D01*
G01X37670Y5080D01*
G01X37661Y5264D01*
G01X37633Y5447D01*
G01X37588Y5627D01*
G01X37524Y5801D01*
G01X37444Y5967D01*
G01X37347Y6125D01*
G01X37236Y6273D01*
G01X37110Y6409D01*
G01X36971Y6531D01*
G01X36821Y6639D01*
G01X36660Y6732D01*
G01X36492Y6808D01*
G01X36316Y6867D01*
G01X36136Y6908D01*
G01X35952Y6931D01*
G01X35767Y6935D01*
G01X35583Y6922D01*
G01X35400Y6889D01*
G01X35222Y6839D01*
G01X35050Y6772D01*
G01X34885Y6687D01*
G01X34730Y6587D01*
G01X34585Y6471D01*
G01X34453Y6342D01*
G01X34334Y6200D01*
G01X34229Y6048D01*
G01X34141Y5885D01*
G01X34069Y5714D01*
G01X34014Y5538D01*
G01X33978Y5356D01*
G01X33959Y5172D01*
G01X33959Y4987D01*
G01X33978Y4803D01*
G01X34014Y4621D01*
G01X34069Y4445D01*
G01X34141Y4274D01*
G01X34229Y4111D01*
G01X34334Y3959D01*
G01X34453Y3817D01*
G01X34585Y3688D01*
G01X34730Y3572D01*
G01X34885Y3472D01*
G01X35050Y3387D01*
G01X35222Y3320D01*
G01X35400Y3270D01*
G01X35583Y3237D01*
G37*
G36*
G01X12375Y4517D02*
G01X12431Y4513D01*
G01X12488Y4515D01*
G01X12544Y4522D01*
G01X12599Y4534D01*
G01X12652Y4552D01*
G01X12704Y4575D01*
G01X12753Y4604D01*
G01X12799Y4637D01*
G01X12841Y4674D01*
G01X12879Y4715D01*
G01X12887Y4726D01*
G01X28702Y4726D01*
G01X28714Y4726D01*
G01X28727Y4726D01*
G01X28739Y4728D01*
G01X28752Y4729D01*
G01X28764Y4731D01*
G01X28777Y4734D01*
G01X28789Y4736D01*
G01X28801Y4740D01*
G01X28813Y4744D01*
G01X28825Y4748D01*
G01X28837Y4752D01*
G01X28849Y4757D01*
G01X28860Y4763D01*
G01X28871Y4769D01*
G01X28882Y4775D01*
G01X28893Y4782D01*
G01X28903Y4789D01*
G01X28914Y4796D01*
G01X28924Y4804D01*
G01X28933Y4812D01*
G01X28943Y4820D01*
G01X28952Y4829D01*
G01X29655Y5533D01*
G01X29703Y5529D01*
G01X29760Y5531D01*
G01X29816Y5538D01*
G01X29871Y5550D01*
G01X29924Y5568D01*
G01X29976Y5591D01*
G01X30025Y5620D01*
G01X30071Y5653D01*
G01X30113Y5690D01*
G01X30151Y5731D01*
G01X30185Y5776D01*
G01X30215Y5825D01*
G01X30239Y5875D01*
G01X30259Y5929D01*
G01X30273Y5983D01*
G01X30281Y6039D01*
G01X30284Y6096D01*
G01X30281Y6152D01*
G01X30273Y6208D01*
G01X30259Y6262D01*
G01X30239Y6316D01*
G01X30215Y6366D01*
G01X30185Y6415D01*
G01X30151Y6460D01*
G01X30113Y6501D01*
G01X30071Y6538D01*
G01X30025Y6571D01*
G01X29976Y6600D01*
G01X29924Y6623D01*
G01X29871Y6641D01*
G01X29816Y6653D01*
G01X29760Y6660D01*
G01X29703Y6662D01*
G01X29647Y6658D01*
G01X29591Y6648D01*
G01X29537Y6632D01*
G01X29485Y6612D01*
G01X29434Y6586D01*
G01X29387Y6555D01*
G01X29343Y6520D01*
G01X29302Y6481D01*
G01X29266Y6438D01*
G01X29234Y6391D01*
G01X29207Y6341D01*
G01X29185Y6289D01*
G01X29169Y6235D01*
G01X29157Y6180D01*
G01X29152Y6124D01*
G01X29152Y6067D01*
G01X29155Y6034D01*
G01X28555Y5433D01*
G01X12887Y5433D01*
G01X12879Y5444D01*
G01X12841Y5485D01*
G01X12799Y5522D01*
G01X12753Y5555D01*
G01X12704Y5584D01*
G01X12652Y5607D01*
G01X12599Y5625D01*
G01X12544Y5637D01*
G01X12488Y5644D01*
G01X12431Y5646D01*
G01X12375Y5642D01*
G01X12319Y5632D01*
G01X12265Y5616D01*
G01X12213Y5596D01*
G01X12162Y5570D01*
G01X12115Y5539D01*
G01X12071Y5504D01*
G01X12030Y5465D01*
G01X11994Y5422D01*
G01X11962Y5375D01*
G01X11935Y5325D01*
G01X11913Y5273D01*
G01X11897Y5219D01*
G01X11885Y5164D01*
G01X11880Y5108D01*
G01X11880Y5051D01*
G01X11885Y4995D01*
G01X11897Y4940D01*
G01X11913Y4886D01*
G01X11935Y4834D01*
G01X11962Y4784D01*
G01X11994Y4737D01*
G01X12030Y4694D01*
G01X12071Y4655D01*
G01X12115Y4620D01*
G01X12162Y4589D01*
G01X12213Y4563D01*
G01X12265Y4543D01*
G01X12319Y4527D01*
G01X12375Y4517D01*
G37*
G36*
G01X14153Y5533D02*
G01X14209Y5529D01*
G01X14266Y5531D01*
G01X14322Y5538D01*
G01X14377Y5550D01*
G01X14430Y5568D01*
G01X14482Y5591D01*
G01X14531Y5620D01*
G01X14577Y5653D01*
G01X14619Y5690D01*
G01X14657Y5731D01*
G01X14691Y5776D01*
G01X14721Y5825D01*
G01X14745Y5875D01*
G01X14765Y5929D01*
G01X14779Y5983D01*
G01X14787Y6039D01*
G01X14790Y6096D01*
G01X14787Y6152D01*
G01X14779Y6208D01*
G01X14765Y6262D01*
G01X14745Y6316D01*
G01X14721Y6366D01*
G01X14691Y6415D01*
G01X14657Y6460D01*
G01X14619Y6501D01*
G01X14577Y6538D01*
G01X14531Y6571D01*
G01X14482Y6600D01*
G01X14430Y6623D01*
G01X14377Y6641D01*
G01X14322Y6653D01*
G01X14269Y6660D01*
G01X12877Y8052D01*
G01X12877Y13284D01*
G01X14782Y13284D01*
G01X14797Y13284D01*
G01X14811Y13285D01*
G01X14826Y13286D01*
G01X14840Y13288D01*
G01X14854Y13290D01*
G01X14869Y13293D01*
G01X14883Y13296D01*
G01X14897Y13299D01*
G01X14911Y13304D01*
G01X14924Y13308D01*
G01X14938Y13313D01*
G01X14951Y13319D01*
G01X14965Y13324D01*
G01X14978Y13331D01*
G01X14990Y13338D01*
G01X15003Y13345D01*
G01X15015Y13352D01*
G01X15027Y13360D01*
G01X15039Y13369D01*
G01X17647Y15301D01*
G01X17649Y15298D01*
G01X17655Y15286D01*
G01X17662Y15274D01*
G01X17669Y15262D01*
G01X17677Y15251D01*
G01X17684Y15240D01*
G01X17693Y15229D01*
G01X17701Y15218D01*
G01X17710Y15208D01*
G01X17719Y15198D01*
G01X17728Y15188D01*
G01X17738Y15179D01*
G01X17748Y15170D01*
G01X17758Y15161D01*
G01X17769Y15153D01*
G01X17780Y15144D01*
G01X17791Y15137D01*
G01X17802Y15129D01*
G01X17814Y15122D01*
G01X17826Y15115D01*
G01X17838Y15109D01*
G01X17850Y15103D01*
G01X17862Y15097D01*
G01X17875Y15092D01*
G01X17887Y15088D01*
G01X17900Y15083D01*
G01X17913Y15079D01*
G01X17926Y15076D01*
G01X17939Y15072D01*
G01X17953Y15070D01*
G01X17966Y15067D01*
G01X17979Y15065D01*
G01X17993Y15064D01*
G01X18006Y15063D01*
G01X18020Y15062D01*
G01X18034Y15062D01*
G01X27319Y15062D01*
G01X27355Y15034D01*
G01X27402Y15003D01*
G01X27453Y14977D01*
G01X27505Y14957D01*
G01X27559Y14941D01*
G01X27615Y14931D01*
G01X27671Y14927D01*
G01X27728Y14929D01*
G01X27784Y14936D01*
G01X27839Y14948D01*
G01X27892Y14966D01*
G01X27944Y14989D01*
G01X27993Y15018D01*
G01X28039Y15051D01*
G01X28081Y15088D01*
G01X28119Y15129D01*
G01X28153Y15174D01*
G01X28183Y15223D01*
G01X28207Y15273D01*
G01X28227Y15327D01*
G01X28241Y15381D01*
G01X28249Y15437D01*
G01X28252Y15494D01*
G01X28249Y15550D01*
G01X28241Y15606D01*
G01X28227Y15660D01*
G01X28207Y15714D01*
G01X28183Y15764D01*
G01X28153Y15813D01*
G01X28119Y15858D01*
G01X28081Y15899D01*
G01X28039Y15936D01*
G01X27993Y15969D01*
G01X27944Y15998D01*
G01X27892Y16021D01*
G01X27839Y16039D01*
G01X27784Y16051D01*
G01X27728Y16058D01*
G01X27671Y16060D01*
G01X27615Y16056D01*
G01X27559Y16046D01*
G01X27505Y16030D01*
G01X27453Y16010D01*
G01X27402Y15984D01*
G01X27355Y15953D01*
G01X27319Y15925D01*
G01X18427Y15925D01*
G01X18425Y15930D01*
G01X18422Y15935D01*
G01X18420Y15940D01*
G01X18417Y15944D01*
G01X18415Y15949D01*
G01X18412Y15954D01*
G01X18410Y15959D01*
G01X18407Y15963D01*
G01X18404Y15968D01*
G01X18402Y15972D01*
G01X18399Y15977D01*
G01X18396Y15982D01*
G01X18393Y15986D01*
G01X18390Y15991D01*
G01X18387Y15995D01*
G01X18384Y15999D01*
G01X18381Y16004D01*
G01X18377Y16008D01*
G01X18374Y16012D01*
G01X18371Y16017D01*
G01X18367Y16021D01*
G01X18364Y16025D01*
G01X18360Y16029D01*
G01X18357Y16033D01*
G01X18353Y16037D01*
G01X18350Y16041D01*
G01X18346Y16045D01*
G01X18342Y16049D01*
G01X18339Y16053D01*
G01X18335Y16056D01*
G01X18331Y16060D01*
G01X18327Y16064D01*
G01X18323Y16067D01*
G01X18319Y16071D01*
G01X18315Y16074D01*
G01X18311Y16078D01*
G01X18306Y16082D01*
G01X18303Y16085D01*
G01X18298Y16088D01*
G01X18294Y16091D01*
G01X18290Y16095D01*
G01X18285Y16098D01*
G01X18281Y16101D01*
G01X18277Y16104D01*
G01X18272Y16107D01*
G01X18268Y16110D01*
G01X18263Y16113D01*
G01X18258Y16116D01*
G01X18254Y16118D01*
G01X18249Y16121D01*
G01X18245Y16124D01*
G01X18240Y16126D01*
G01X18235Y16129D01*
G01X18230Y16131D01*
G01X18226Y16134D01*
G01X18221Y16136D01*
G01X18216Y16139D01*
G01X18211Y16141D01*
G01X18206Y16143D01*
G01X18201Y16145D01*
G01X18196Y16147D01*
G01X18191Y16149D01*
G01X18186Y16151D01*
G01X18181Y16153D01*
G01X18176Y16155D01*
G01X18171Y16157D01*
G01X18166Y16158D01*
G01X18161Y16160D01*
G01X18155Y16161D01*
G01X18150Y16163D01*
G01X18145Y16164D01*
G01X18140Y16166D01*
G01X18134Y16167D01*
G01X18130Y16168D01*
G01X18124Y16169D01*
G01X18119Y16170D01*
G01X18114Y16171D01*
G01X18108Y16172D01*
G01X18103Y16173D01*
G01X18098Y16174D01*
G01X18092Y16175D01*
G01X18087Y16176D01*
G01X18082Y16176D01*
G01X18076Y16177D01*
G01X18070Y16177D01*
G01X18066Y16178D01*
G01X18061Y16178D01*
G01X18055Y16178D01*
G01X18050Y16179D01*
G01X18044Y16179D01*
G01X18039Y16179D01*
G01X18034Y16179D01*
G01X17526Y16179D01*
G01X17511Y16179D01*
G01X17497Y16178D01*
G01X17482Y16177D01*
G01X17468Y16175D01*
G01X17453Y16173D01*
G01X17439Y16170D01*
G01X17425Y16167D01*
G01X17411Y16164D01*
G01X17397Y16159D01*
G01X17383Y16155D01*
G01X17370Y16150D01*
G01X17356Y16144D01*
G01X17343Y16139D01*
G01X17330Y16132D01*
G01X17317Y16125D01*
G01X17305Y16118D01*
G01X17292Y16111D01*
G01X17280Y16103D01*
G01X17269Y16094D01*
G01X14640Y14147D01*
G01X13768Y14147D01*
G01X13771Y14167D01*
G01X13774Y14224D01*
G01X13771Y14280D01*
G01X13763Y14336D01*
G01X13749Y14390D01*
G01X13729Y14444D01*
G01X13705Y14494D01*
G01X13675Y14543D01*
G01X13641Y14588D01*
G01X13603Y14629D01*
G01X13561Y14666D01*
G01X13515Y14699D01*
G01X13466Y14728D01*
G01X13414Y14751D01*
G01X13361Y14769D01*
G01X13306Y14781D01*
G01X13250Y14788D01*
G01X13193Y14790D01*
G01X13137Y14786D01*
G01X13081Y14776D01*
G01X13027Y14760D01*
G01X12975Y14740D01*
G01X12924Y14714D01*
G01X12877Y14683D01*
G01X12833Y14648D01*
G01X12792Y14609D01*
G01X12756Y14566D01*
G01X12724Y14519D01*
G01X12697Y14469D01*
G01X12675Y14417D01*
G01X12659Y14363D01*
G01X12647Y14308D01*
G01X12642Y14252D01*
G01X12642Y14195D01*
G01X12647Y14147D01*
G01X10927Y14147D01*
G01X10845Y16517D01*
G01X10845Y16743D01*
G01X10866Y16964D01*
G01X10869Y16933D01*
G01X10881Y16878D01*
G01X10897Y16824D01*
G01X10919Y16772D01*
G01X10946Y16722D01*
G01X10978Y16675D01*
G01X11014Y16632D01*
G01X11055Y16593D01*
G01X11099Y16558D01*
G01X11146Y16527D01*
G01X11180Y16510D01*
G01X11146Y16492D01*
G01X11099Y16461D01*
G01X11055Y16426D01*
G01X11014Y16387D01*
G01X10978Y16344D01*
G01X10946Y16297D01*
G01X10919Y16247D01*
G01X10897Y16195D01*
G01X10881Y16141D01*
G01X10869Y16086D01*
G01X10864Y16030D01*
G01X10864Y15973D01*
G01X10869Y15917D01*
G01X10881Y15862D01*
G01X10897Y15808D01*
G01X10919Y15756D01*
G01X10946Y15706D01*
G01X10978Y15659D01*
G01X11014Y15616D01*
G01X11055Y15577D01*
G01X11099Y15542D01*
G01X11146Y15511D01*
G01X11197Y15485D01*
G01X11249Y15465D01*
G01X11303Y15449D01*
G01X11359Y15439D01*
G01X11415Y15435D01*
G01X11472Y15437D01*
G01X11506Y15441D01*
G01X11514Y15437D01*
G01X11525Y15431D01*
G01X11536Y15425D01*
G01X11548Y15420D01*
G01X11560Y15416D01*
G01X11572Y15412D01*
G01X11584Y15408D01*
G01X11596Y15404D01*
G01X11608Y15402D01*
G01X11621Y15399D01*
G01X11633Y15397D01*
G01X11646Y15396D01*
G01X11658Y15394D01*
G01X11671Y15394D01*
G01X11684Y15394D01*
G01X15052Y15394D01*
G01X15078Y15362D01*
G01X15119Y15323D01*
G01X15163Y15288D01*
G01X15210Y15257D01*
G01X15261Y15231D01*
G01X15313Y15211D01*
G01X15367Y15195D01*
G01X15423Y15185D01*
G01X15479Y15181D01*
G01X15536Y15183D01*
G01X15592Y15190D01*
G01X15647Y15202D01*
G01X15700Y15220D01*
G01X15752Y15243D01*
G01X15801Y15272D01*
G01X15847Y15305D01*
G01X15889Y15342D01*
G01X15927Y15383D01*
G01X15961Y15428D01*
G01X15991Y15477D01*
G01X16015Y15527D01*
G01X16035Y15581D01*
G01X16049Y15635D01*
G01X16057Y15691D01*
G01X16060Y15748D01*
G01X16057Y15804D01*
G01X16049Y15860D01*
G01X16035Y15914D01*
G01X16015Y15968D01*
G01X15991Y16018D01*
G01X15961Y16067D01*
G01X15927Y16112D01*
G01X15889Y16153D01*
G01X15847Y16190D01*
G01X15801Y16223D01*
G01X15752Y16252D01*
G01X15700Y16275D01*
G01X15647Y16293D01*
G01X15592Y16305D01*
G01X15536Y16312D01*
G01X15479Y16314D01*
G01X15423Y16310D01*
G01X15367Y16300D01*
G01X15313Y16284D01*
G01X15261Y16264D01*
G01X15210Y16238D01*
G01X15163Y16207D01*
G01X15119Y16172D01*
G01X15078Y16133D01*
G01X15052Y16101D01*
G01X11987Y16101D01*
G01X11985Y16114D01*
G01X11971Y16168D01*
G01X11951Y16222D01*
G01X11927Y16272D01*
G01X11897Y16321D01*
G01X11863Y16366D01*
G01X11825Y16407D01*
G01X11822Y16410D01*
G01X15240Y16410D01*
G01X15247Y16410D01*
G01X15253Y16410D01*
G01X15255Y16410D01*
G01X15257Y16410D01*
G01X15264Y16410D01*
G01X15270Y16411D01*
G01X15272Y16411D01*
G01X15275Y16411D01*
G01X15282Y16412D01*
G01X15288Y16413D01*
G01X15290Y16413D01*
G01X15292Y16413D01*
G01X15299Y16415D01*
G01X15305Y16416D01*
G01X15307Y16416D01*
G01X15310Y16417D01*
G01X15317Y16418D01*
G01X15323Y16419D01*
G01X15325Y16420D01*
G01X15327Y16420D01*
G01X15333Y16422D01*
G01X15340Y16424D01*
G01X15342Y16425D01*
G01X15344Y16425D01*
G01X15350Y16427D01*
G01X15356Y16429D01*
G01X15359Y16430D01*
G01X15361Y16431D01*
G01X15367Y16433D01*
G01X15373Y16436D01*
G01X15375Y16436D01*
G01X15377Y16437D01*
G01X15384Y16440D01*
G01X15389Y16443D01*
G01X15391Y16444D01*
G01X15393Y16445D01*
G01X15399Y16448D01*
G01X15405Y16451D01*
G01X15407Y16452D01*
G01X15409Y16453D01*
G01X15415Y16456D01*
G01X15420Y16459D01*
G01X15422Y16460D01*
G01X15424Y16461D01*
G01X15429Y16465D01*
G01X15435Y16469D01*
G01X15437Y16470D01*
G01X15439Y16471D01*
G01X15444Y16475D01*
G01X15450Y16479D01*
G01X15451Y16480D01*
G01X15453Y16481D01*
G01X15458Y16485D01*
G01X15464Y16490D01*
G01X15465Y16491D01*
G01X15467Y16492D01*
G01X15473Y16497D01*
G01X15477Y16501D01*
G01X15478Y16502D01*
G01X15480Y16504D01*
G01X15486Y16510D01*
G01X15490Y16513D01*
G01X15640Y16664D01*
G01X23180Y16664D01*
G01X23206Y16632D01*
G01X23247Y16593D01*
G01X23291Y16558D01*
G01X23338Y16527D01*
G01X23389Y16501D01*
G01X23441Y16481D01*
G01X23495Y16465D01*
G01X23551Y16455D01*
G01X23607Y16451D01*
G01X23664Y16453D01*
G01X23720Y16460D01*
G01X23775Y16472D01*
G01X23828Y16490D01*
G01X23880Y16513D01*
G01X23929Y16542D01*
G01X23975Y16575D01*
G01X24017Y16612D01*
G01X24055Y16653D01*
G01X24089Y16698D01*
G01X24119Y16747D01*
G01X24129Y16766D01*
G01X24151Y16755D01*
G01X24203Y16735D01*
G01X24257Y16719D01*
G01X24313Y16709D01*
G01X24369Y16705D01*
G01X24426Y16707D01*
G01X24482Y16714D01*
G01X24537Y16726D01*
G01X24590Y16744D01*
G01X24642Y16767D01*
G01X24691Y16796D01*
G01X24737Y16829D01*
G01X24779Y16866D01*
G01X24817Y16907D01*
G01X24851Y16952D01*
G01X24881Y17001D01*
G01X24905Y17051D01*
G01X24925Y17105D01*
G01X24939Y17159D01*
G01X24943Y17190D01*
G01X24948Y17183D01*
G01X24984Y17140D01*
G01X25025Y17101D01*
G01X25069Y17066D01*
G01X25116Y17035D01*
G01X25167Y17009D01*
G01X25219Y16989D01*
G01X25273Y16973D01*
G01X25329Y16963D01*
G01X25385Y16959D01*
G01X25442Y16961D01*
G01X25498Y16968D01*
G01X25553Y16980D01*
G01X25596Y16995D01*
G01X25596Y16989D01*
G01X25601Y16933D01*
G01X25613Y16878D01*
G01X25629Y16824D01*
G01X25651Y16772D01*
G01X25678Y16722D01*
G01X25710Y16675D01*
G01X25746Y16632D01*
G01X25787Y16593D01*
G01X25831Y16558D01*
G01X25878Y16527D01*
G01X25929Y16501D01*
G01X25981Y16481D01*
G01X26035Y16465D01*
G01X26091Y16455D01*
G01X26147Y16451D01*
G01X26204Y16453D01*
G01X26260Y16460D01*
G01X26315Y16472D01*
G01X26368Y16490D01*
G01X26420Y16513D01*
G01X26469Y16542D01*
G01X26515Y16575D01*
G01X26557Y16612D01*
G01X26595Y16653D01*
G01X26629Y16698D01*
G01X26659Y16747D01*
G01X26683Y16797D01*
G01X26703Y16851D01*
G01X26717Y16905D01*
G01X26725Y16961D01*
G01X26728Y17018D01*
G01X26725Y17074D01*
G01X26717Y17130D01*
G01X26703Y17184D01*
G01X26683Y17238D01*
G01X26659Y17288D01*
G01X26629Y17337D01*
G01X26595Y17382D01*
G01X26557Y17423D01*
G01X26515Y17460D01*
G01X26515Y18957D01*
G01X27181Y18291D01*
G01X27190Y18282D01*
G01X27200Y18274D01*
G01X27209Y18266D01*
G01X27219Y18258D01*
G01X27230Y18251D01*
G01X27240Y18244D01*
G01X27251Y18237D01*
G01X27262Y18231D01*
G01X27273Y18225D01*
G01X27284Y18219D01*
G01X27296Y18214D01*
G01X27308Y18210D01*
G01X27320Y18206D01*
G01X27332Y18202D01*
G01X27344Y18198D01*
G01X27356Y18196D01*
G01X27369Y18193D01*
G01X27381Y18191D01*
G01X27394Y18190D01*
G01X27406Y18188D01*
G01X27419Y18188D01*
G01X27432Y18188D01*
G01X30546Y18188D01*
G01X30572Y18156D01*
G01X30613Y18117D01*
G01X30657Y18082D01*
G01X30704Y18051D01*
G01X30755Y18025D01*
G01X30807Y18005D01*
G01X30861Y17989D01*
G01X30917Y17979D01*
G01X30973Y17975D01*
G01X31030Y17977D01*
G01X31086Y17984D01*
G01X31141Y17996D01*
G01X31194Y18014D01*
G01X31246Y18037D01*
G01X31295Y18066D01*
G01X31341Y18099D01*
G01X31383Y18136D01*
G01X31421Y18177D01*
G01X31455Y18222D01*
G01X31485Y18271D01*
G01X31509Y18321D01*
G01X31529Y18375D01*
G01X31543Y18429D01*
G01X31551Y18485D01*
G01X31554Y18542D01*
G01X31551Y18598D01*
G01X31543Y18654D01*
G01X31529Y18708D01*
G01X31509Y18762D01*
G01X31485Y18812D01*
G01X31455Y18861D01*
G01X31421Y18906D01*
G01X31383Y18947D01*
G01X31341Y18984D01*
G01X31295Y19017D01*
G01X31246Y19046D01*
G01X31194Y19069D01*
G01X31141Y19087D01*
G01X31086Y19099D01*
G01X31030Y19106D01*
G01X30973Y19108D01*
G01X30917Y19104D01*
G01X30861Y19094D01*
G01X30807Y19078D01*
G01X30755Y19058D01*
G01X30704Y19032D01*
G01X30657Y19001D01*
G01X30613Y18966D01*
G01X30572Y18927D01*
G01X30546Y18895D01*
G01X27578Y18895D01*
G01X27270Y19204D01*
G01X29784Y19204D01*
G01X29810Y19172D01*
G01X29851Y19133D01*
G01X29895Y19098D01*
G01X29942Y19067D01*
G01X29993Y19041D01*
G01X30045Y19021D01*
G01X30099Y19005D01*
G01X30155Y18995D01*
G01X30211Y18991D01*
G01X30268Y18993D01*
G01X30324Y19000D01*
G01X30379Y19012D01*
G01X30432Y19030D01*
G01X30484Y19053D01*
G01X30533Y19082D01*
G01X30579Y19115D01*
G01X30621Y19152D01*
G01X30659Y19193D01*
G01X30693Y19238D01*
G01X30723Y19287D01*
G01X30747Y19337D01*
G01X30767Y19391D01*
G01X30781Y19445D01*
G01X30789Y19501D01*
G01X30792Y19558D01*
G01X30789Y19614D01*
G01X30781Y19670D01*
G01X30767Y19724D01*
G01X30747Y19778D01*
G01X30723Y19828D01*
G01X30693Y19877D01*
G01X30659Y19922D01*
G01X30621Y19963D01*
G01X30579Y20000D01*
G01X30533Y20033D01*
G01X30484Y20062D01*
G01X30475Y20065D01*
G01X30484Y20069D01*
G01X30533Y20098D01*
G01X30579Y20131D01*
G01X30621Y20168D01*
G01X30660Y20209D01*
G01X30667Y20220D01*
G01X32766Y20220D01*
G01X32778Y20220D01*
G01X32791Y20220D01*
G01X32803Y20222D01*
G01X32816Y20223D01*
G01X32828Y20225D01*
G01X32841Y20228D01*
G01X32853Y20230D01*
G01X32865Y20234D01*
G01X32877Y20238D01*
G01X32889Y20242D01*
G01X32901Y20246D01*
G01X32913Y20251D01*
G01X32924Y20257D01*
G01X32935Y20263D01*
G01X32946Y20269D01*
G01X32957Y20276D01*
G01X32967Y20283D01*
G01X32978Y20290D01*
G01X32988Y20298D01*
G01X32997Y20306D01*
G01X33007Y20314D01*
G01X33016Y20323D01*
G01X35452Y22760D01*
G01X36830Y22760D01*
G01X36842Y22760D01*
G01X36855Y22760D01*
G01X36867Y22762D01*
G01X36880Y22763D01*
G01X36892Y22765D01*
G01X36905Y22768D01*
G01X36917Y22770D01*
G01X36929Y22774D01*
G01X36941Y22778D01*
G01X36953Y22782D01*
G01X36965Y22786D01*
G01X36977Y22791D01*
G01X36988Y22797D01*
G01X36999Y22803D01*
G01X37010Y22809D01*
G01X37021Y22816D01*
G01X37031Y22823D01*
G01X37042Y22830D01*
G01X37052Y22838D01*
G01X37061Y22846D01*
G01X37071Y22854D01*
G01X37080Y22863D01*
G01X37842Y23625D01*
G01X37851Y23634D01*
G01X37859Y23644D01*
G01X37867Y23653D01*
G01X37875Y23663D01*
G01X37882Y23674D01*
G01X37889Y23684D01*
G01X37896Y23695D01*
G01X37902Y23706D01*
G01X37908Y23717D01*
G01X37914Y23728D01*
G01X37919Y23740D01*
G01X37923Y23752D01*
G01X37927Y23764D01*
G01X37931Y23776D01*
G01X37935Y23788D01*
G01X37937Y23800D01*
G01X37940Y23813D01*
G01X37942Y23825D01*
G01X37943Y23838D01*
G01X37945Y23850D01*
G01X37945Y23863D01*
G01X37945Y23876D01*
G01X37945Y24237D01*
G01X38346Y24638D01*
G01X39624Y24638D01*
G01X39634Y24638D01*
G01X39644Y24638D01*
G01X39655Y24639D01*
G01X39665Y24641D01*
G01X39676Y24643D01*
G01X39686Y24645D01*
G01X39696Y24648D01*
G01X39706Y24651D01*
G01X39716Y24655D01*
G01X39726Y24659D01*
G01X39735Y24663D01*
G01X39744Y24668D01*
G01X39754Y24673D01*
G01X39762Y24679D01*
G01X39771Y24685D01*
G01X39780Y24691D01*
G01X39788Y24698D01*
G01X39796Y24705D01*
G01X39803Y24712D01*
G01X39810Y24719D01*
G01X39817Y24727D01*
G01X39824Y24735D01*
G01X39830Y24744D01*
G01X39836Y24753D01*
G01X39842Y24761D01*
G01X39847Y24771D01*
G01X39852Y24780D01*
G01X39856Y24789D01*
G01X39860Y24799D01*
G01X39864Y24809D01*
G01X39867Y24819D01*
G01X39870Y24829D01*
G01X39872Y24839D01*
G01X39874Y24850D01*
G01X39876Y24860D01*
G01X39877Y24871D01*
G01X39877Y24881D01*
G01X39878Y24892D01*
G01X39878Y26416D01*
G01X39877Y26426D01*
G01X39877Y26436D01*
G01X39876Y26447D01*
G01X39874Y26457D01*
G01X39872Y26468D01*
G01X39870Y26478D01*
G01X39867Y26488D01*
G01X39864Y26498D01*
G01X39860Y26508D01*
G01X39856Y26518D01*
G01X39852Y26527D01*
G01X39847Y26536D01*
G01X39842Y26546D01*
G01X39836Y26554D01*
G01X39830Y26563D01*
G01X39824Y26572D01*
G01X39817Y26580D01*
G01X39810Y26588D01*
G01X39803Y26595D01*
G01X39796Y26602D01*
G01X39788Y26609D01*
G01X39780Y26616D01*
G01X39771Y26622D01*
G01X39762Y26628D01*
G01X39754Y26634D01*
G01X39744Y26639D01*
G01X39735Y26644D01*
G01X39726Y26648D01*
G01X39716Y26652D01*
G01X39706Y26656D01*
G01X39696Y26659D01*
G01X39686Y26662D01*
G01X39676Y26664D01*
G01X39665Y26666D01*
G01X39655Y26668D01*
G01X39644Y26669D01*
G01X39634Y26669D01*
G01X39624Y26670D01*
G01X39634Y26670D01*
G01X39644Y26670D01*
G01X39655Y26671D01*
G01X39665Y26673D01*
G01X39676Y26675D01*
G01X39686Y26677D01*
G01X39696Y26680D01*
G01X39706Y26683D01*
G01X39716Y26687D01*
G01X39726Y26691D01*
G01X39735Y26695D01*
G01X39744Y26700D01*
G01X39754Y26705D01*
G01X39762Y26711D01*
G01X39771Y26717D01*
G01X39780Y26723D01*
G01X39788Y26730D01*
G01X39796Y26737D01*
G01X39803Y26744D01*
G01X39810Y26751D01*
G01X39817Y26759D01*
G01X39824Y26767D01*
G01X39830Y26776D01*
G01X39836Y26785D01*
G01X39842Y26793D01*
G01X39847Y26803D01*
G01X39852Y26812D01*
G01X39856Y26821D01*
G01X39860Y26831D01*
G01X39864Y26841D01*
G01X39867Y26851D01*
G01X39870Y26861D01*
G01X39872Y26871D01*
G01X39874Y26882D01*
G01X39876Y26892D01*
G01X39877Y26903D01*
G01X39877Y26913D01*
G01X39878Y26924D01*
G01X39878Y27305D01*
G01X39243Y27305D01*
G01X39243Y26670D01*
G01X38481Y26670D01*
G01X38481Y27305D01*
G01X37846Y27305D01*
G01X37846Y26924D01*
G01X37846Y26913D01*
G01X37846Y26903D01*
G01X37847Y26892D01*
G01X37849Y26882D01*
G01X37851Y26871D01*
G01X37853Y26861D01*
G01X37856Y26851D01*
G01X37859Y26841D01*
G01X37863Y26831D01*
G01X37867Y26821D01*
G01X37871Y26812D01*
G01X37876Y26803D01*
G01X37881Y26793D01*
G01X37887Y26785D01*
G01X37893Y26776D01*
G01X37899Y26767D01*
G01X37906Y26759D01*
G01X37913Y26751D01*
G01X37920Y26744D01*
G01X37927Y26737D01*
G01X37935Y26730D01*
G01X37943Y26723D01*
G01X37952Y26717D01*
G01X37961Y26711D01*
G01X37969Y26705D01*
G01X37979Y26700D01*
G01X37988Y26695D01*
G01X37997Y26691D01*
G01X38007Y26687D01*
G01X38017Y26683D01*
G01X38027Y26680D01*
G01X38037Y26677D01*
G01X38047Y26675D01*
G01X38058Y26673D01*
G01X38068Y26671D01*
G01X38079Y26670D01*
G01X38089Y26670D01*
G01X38100Y26670D01*
G01X38089Y26669D01*
G01X38079Y26669D01*
G01X38068Y26668D01*
G01X38058Y26666D01*
G01X38047Y26664D01*
G01X38037Y26662D01*
G01X38027Y26659D01*
G01X38017Y26656D01*
G01X38007Y26652D01*
G01X37997Y26648D01*
G01X37988Y26644D01*
G01X37979Y26639D01*
G01X37969Y26634D01*
G01X37961Y26628D01*
G01X37952Y26622D01*
G01X37943Y26616D01*
G01X37935Y26609D01*
G01X37927Y26602D01*
G01X37920Y26595D01*
G01X37913Y26588D01*
G01X37906Y26580D01*
G01X37899Y26572D01*
G01X37893Y26563D01*
G01X37887Y26554D01*
G01X37881Y26546D01*
G01X37876Y26536D01*
G01X37871Y26527D01*
G01X37867Y26518D01*
G01X37863Y26508D01*
G01X37859Y26498D01*
G01X37856Y26488D01*
G01X37853Y26478D01*
G01X37851Y26468D01*
G01X37849Y26457D01*
G01X37847Y26447D01*
G01X37846Y26436D01*
G01X37846Y26426D01*
G01X37846Y26416D01*
G01X37846Y25138D01*
G01X37341Y24634D01*
G01X37332Y24625D01*
G01X37324Y24615D01*
G01X37316Y24606D01*
G01X37308Y24596D01*
G01X37301Y24585D01*
G01X37294Y24575D01*
G01X37287Y24564D01*
G01X37281Y24553D01*
G01X37275Y24542D01*
G01X37269Y24531D01*
G01X37264Y24519D01*
G01X37260Y24507D01*
G01X37257Y24500D01*
G01X37225Y24535D01*
G01X37183Y24572D01*
G01X37183Y27793D01*
G01X37846Y28455D01*
G01X37846Y28448D01*
G01X37846Y28067D01*
G01X38481Y28067D01*
G01X38481Y28702D01*
G01X38100Y28702D01*
G01X38092Y28701D01*
G01X38346Y28956D01*
G01X39624Y28956D01*
G01X39634Y28956D01*
G01X39644Y28956D01*
G01X39655Y28957D01*
G01X39665Y28959D01*
G01X39676Y28961D01*
G01X39686Y28963D01*
G01X39696Y28966D01*
G01X39706Y28969D01*
G01X39716Y28973D01*
G01X39726Y28977D01*
G01X39735Y28981D01*
G01X39744Y28986D01*
G01X39754Y28991D01*
G01X39762Y28997D01*
G01X39771Y29003D01*
G01X39780Y29009D01*
G01X39788Y29016D01*
G01X39796Y29023D01*
G01X39803Y29030D01*
G01X39810Y29037D01*
G01X39817Y29045D01*
G01X39824Y29053D01*
G01X39830Y29062D01*
G01X39836Y29071D01*
G01X39842Y29079D01*
G01X39847Y29089D01*
G01X39852Y29098D01*
G01X39856Y29107D01*
G01X39860Y29117D01*
G01X39864Y29127D01*
G01X39867Y29137D01*
G01X39870Y29147D01*
G01X39872Y29157D01*
G01X39874Y29168D01*
G01X39876Y29178D01*
G01X39877Y29189D01*
G01X39877Y29199D01*
G01X39878Y29210D01*
G01X39878Y30734D01*
G01X39877Y30744D01*
G01X39877Y30754D01*
G01X39876Y30765D01*
G01X39874Y30775D01*
G01X39872Y30786D01*
G01X39870Y30796D01*
G01X39867Y30806D01*
G01X39864Y30816D01*
G01X39860Y30826D01*
G01X39856Y30836D01*
G01X39852Y30845D01*
G01X39847Y30854D01*
G01X39842Y30864D01*
G01X39836Y30872D01*
G01X39830Y30881D01*
G01X39824Y30890D01*
G01X39817Y30898D01*
G01X39810Y30906D01*
G01X39803Y30913D01*
G01X39796Y30920D01*
G01X39788Y30927D01*
G01X39780Y30934D01*
G01X39771Y30940D01*
G01X39762Y30946D01*
G01X39754Y30952D01*
G01X39744Y30957D01*
G01X39735Y30962D01*
G01X39726Y30966D01*
G01X39716Y30970D01*
G01X39706Y30974D01*
G01X39696Y30977D01*
G01X39686Y30980D01*
G01X39676Y30982D01*
G01X39665Y30984D01*
G01X39655Y30986D01*
G01X39644Y30987D01*
G01X39634Y30987D01*
G01X39624Y30988D01*
G01X39634Y30988D01*
G01X39644Y30988D01*
G01X39655Y30989D01*
G01X39665Y30991D01*
G01X39676Y30993D01*
G01X39686Y30995D01*
G01X39696Y30998D01*
G01X39706Y31001D01*
G01X39716Y31005D01*
G01X39726Y31009D01*
G01X39735Y31013D01*
G01X39744Y31018D01*
G01X39754Y31023D01*
G01X39762Y31029D01*
G01X39771Y31035D01*
G01X39780Y31041D01*
G01X39788Y31048D01*
G01X39796Y31055D01*
G01X39803Y31062D01*
G01X39810Y31069D01*
G01X39817Y31077D01*
G01X39824Y31085D01*
G01X39830Y31094D01*
G01X39836Y31103D01*
G01X39842Y31111D01*
G01X39847Y31121D01*
G01X39852Y31130D01*
G01X39856Y31139D01*
G01X39860Y31149D01*
G01X39864Y31159D01*
G01X39867Y31169D01*
G01X39870Y31179D01*
G01X39872Y31189D01*
G01X39874Y31200D01*
G01X39876Y31210D01*
G01X39877Y31221D01*
G01X39877Y31231D01*
G01X39878Y31242D01*
G01X39878Y32766D01*
G01X39877Y32776D01*
G01X39877Y32786D01*
G01X39876Y32797D01*
G01X39874Y32807D01*
G01X39872Y32818D01*
G01X39870Y32828D01*
G01X39867Y32838D01*
G01X39864Y32848D01*
G01X39860Y32858D01*
G01X39856Y32868D01*
G01X39852Y32877D01*
G01X39847Y32886D01*
G01X39842Y32896D01*
G01X39836Y32904D01*
G01X39830Y32913D01*
G01X39824Y32922D01*
G01X39817Y32930D01*
G01X39810Y32938D01*
G01X39803Y32945D01*
G01X39796Y32952D01*
G01X39788Y32959D01*
G01X39780Y32966D01*
G01X39771Y32972D01*
G01X39762Y32978D01*
G01X39754Y32984D01*
G01X39744Y32989D01*
G01X39735Y32994D01*
G01X39726Y32998D01*
G01X39716Y33002D01*
G01X39706Y33006D01*
G01X39696Y33009D01*
G01X39686Y33012D01*
G01X39676Y33014D01*
G01X39665Y33016D01*
G01X39655Y33018D01*
G01X39644Y33019D01*
G01X39634Y33019D01*
G01X39624Y33020D01*
G01X38100Y33020D01*
G01X38089Y33019D01*
G01X38079Y33019D01*
G01X38068Y33018D01*
G01X38058Y33016D01*
G01X38047Y33014D01*
G01X38037Y33012D01*
G01X38027Y33009D01*
G01X38017Y33006D01*
G01X38007Y33002D01*
G01X37997Y32998D01*
G01X37988Y32994D01*
G01X37979Y32989D01*
G01X37969Y32984D01*
G01X37961Y32978D01*
G01X37952Y32972D01*
G01X37943Y32966D01*
G01X37935Y32959D01*
G01X37927Y32952D01*
G01X37920Y32945D01*
G01X37913Y32938D01*
G01X37906Y32930D01*
G01X37899Y32922D01*
G01X37893Y32913D01*
G01X37887Y32904D01*
G01X37881Y32896D01*
G01X37876Y32886D01*
G01X37871Y32877D01*
G01X37867Y32868D01*
G01X37863Y32858D01*
G01X37859Y32848D01*
G01X37856Y32838D01*
G01X37853Y32828D01*
G01X37851Y32818D01*
G01X37849Y32807D01*
G01X37847Y32797D01*
G01X37846Y32786D01*
G01X37846Y32776D01*
G01X37846Y32766D01*
G01X37846Y31595D01*
G01X36576Y31595D01*
G01X36563Y31595D01*
G01X36550Y31595D01*
G01X36538Y31593D01*
G01X36525Y31592D01*
G01X36513Y31590D01*
G01X36500Y31587D01*
G01X36488Y31585D01*
G01X36476Y31581D01*
G01X36464Y31577D01*
G01X36452Y31573D01*
G01X36440Y31569D01*
G01X36428Y31564D01*
G01X36417Y31558D01*
G01X36406Y31552D01*
G01X36395Y31546D01*
G01X36384Y31539D01*
G01X36374Y31532D01*
G01X36363Y31525D01*
G01X36353Y31517D01*
G01X36344Y31509D01*
G01X36334Y31501D01*
G01X36325Y31492D01*
G01X30229Y25396D01*
G01X30220Y25387D01*
G01X30212Y25377D01*
G01X30204Y25368D01*
G01X30196Y25358D01*
G01X30189Y25347D01*
G01X30182Y25337D01*
G01X30175Y25326D01*
G01X30169Y25315D01*
G01X30163Y25304D01*
G01X30157Y25293D01*
G01X30152Y25281D01*
G01X30148Y25269D01*
G01X30144Y25257D01*
G01X30140Y25245D01*
G01X30136Y25233D01*
G01X30134Y25221D01*
G01X30131Y25208D01*
G01X30129Y25196D01*
G01X30128Y25183D01*
G01X30126Y25171D01*
G01X30126Y25158D01*
G01X30126Y25146D01*
G01X30126Y22031D01*
G01X30105Y22014D01*
G01X30064Y21975D01*
G01X30028Y21932D01*
G01X29996Y21885D01*
G01X29969Y21835D01*
G01X29947Y21783D01*
G01X29930Y21729D01*
G01X29919Y21674D01*
G01X29914Y21618D01*
G01X29914Y21561D01*
G01X29919Y21505D01*
G01X29930Y21450D01*
G01X29947Y21396D01*
G01X29969Y21344D01*
G01X29996Y21294D01*
G01X30028Y21247D01*
G01X30064Y21204D01*
G01X30105Y21165D01*
G01X30144Y21134D01*
G01X30099Y21126D01*
G01X30045Y21111D01*
G01X29992Y21090D01*
G01X29942Y21064D01*
G01X29895Y21033D01*
G01X29851Y20998D01*
G01X29810Y20959D01*
G01X29774Y20916D01*
G01X29742Y20869D01*
G01X29715Y20819D01*
G01X29693Y20767D01*
G01X29676Y20713D01*
G01X29665Y20658D01*
G01X29660Y20602D01*
G01X29660Y20545D01*
G01X29665Y20489D01*
G01X29676Y20434D01*
G01X29693Y20380D01*
G01X29715Y20328D01*
G01X29742Y20278D01*
G01X29774Y20231D01*
G01X29810Y20188D01*
G01X29851Y20149D01*
G01X29895Y20114D01*
G01X29942Y20083D01*
G01X29976Y20065D01*
G01X29942Y20048D01*
G01X29895Y20017D01*
G01X29851Y19982D01*
G01X29810Y19943D01*
G01X29784Y19911D01*
G01X27587Y19911D01*
G01X27587Y21753D01*
G01X27936Y22101D01*
G01X27945Y22110D01*
G01X27953Y22120D01*
G01X27961Y22129D01*
G01X27969Y22139D01*
G01X27976Y22150D01*
G01X27983Y22160D01*
G01X27990Y22171D01*
G01X27996Y22182D01*
G01X28002Y22193D01*
G01X28008Y22204D01*
G01X28013Y22216D01*
G01X28017Y22228D01*
G01X28021Y22240D01*
G01X28025Y22252D01*
G01X28029Y22264D01*
G01X28031Y22276D01*
G01X28034Y22289D01*
G01X28036Y22301D01*
G01X28037Y22314D01*
G01X28039Y22326D01*
G01X28039Y22339D01*
G01X28039Y22352D01*
G01X28039Y23622D01*
G01X28039Y23634D01*
G01X28039Y23647D01*
G01X28037Y23659D01*
G01X28036Y23672D01*
G01X28034Y23684D01*
G01X28031Y23697D01*
G01X28029Y23709D01*
G01X28025Y23721D01*
G01X28021Y23733D01*
G01X28017Y23745D01*
G01X28013Y23757D01*
G01X28008Y23769D01*
G01X28002Y23780D01*
G01X27996Y23791D01*
G01X27990Y23802D01*
G01X27983Y23813D01*
G01X27976Y23823D01*
G01X27969Y23834D01*
G01X27961Y23844D01*
G01X27953Y23853D01*
G01X27945Y23863D01*
G01X27936Y23872D01*
G01X27486Y24321D01*
G01X27487Y24327D01*
G01X27490Y24384D01*
G01X27487Y24440D01*
G01X27479Y24496D01*
G01X27465Y24550D01*
G01X27445Y24604D01*
G01X27421Y24654D01*
G01X27391Y24703D01*
G01X27357Y24748D01*
G01X27319Y24789D01*
G01X27277Y24826D01*
G01X27231Y24859D01*
G01X27182Y24888D01*
G01X27130Y24911D01*
G01X27077Y24929D01*
G01X27022Y24941D01*
G01X26966Y24948D01*
G01X26909Y24950D01*
G01X26853Y24946D01*
G01X26797Y24936D01*
G01X26743Y24920D01*
G01X26691Y24900D01*
G01X26640Y24874D01*
G01X26593Y24843D01*
G01X26549Y24808D01*
G01X26508Y24769D01*
G01X26472Y24726D01*
G01X26440Y24679D01*
G01X26413Y24629D01*
G01X26391Y24577D01*
G01X26375Y24523D01*
G01X26363Y24468D01*
G01X26358Y24412D01*
G01X26358Y24355D01*
G01X26363Y24299D01*
G01X26375Y24244D01*
G01X26391Y24190D01*
G01X26413Y24138D01*
G01X26440Y24088D01*
G01X26472Y24041D01*
G01X26508Y23998D01*
G01X26549Y23959D01*
G01X26593Y23924D01*
G01X26640Y23893D01*
G01X26691Y23867D01*
G01X26743Y23847D01*
G01X26797Y23831D01*
G01X26853Y23821D01*
G01X26909Y23817D01*
G01X26966Y23819D01*
G01X26985Y23821D01*
G01X27332Y23475D01*
G01X27332Y23252D01*
G01X27319Y23265D01*
G01X27277Y23302D01*
G01X27231Y23335D01*
G01X27182Y23364D01*
G01X27130Y23387D01*
G01X27077Y23405D01*
G01X27022Y23417D01*
G01X26966Y23424D01*
G01X26909Y23426D01*
G01X26853Y23422D01*
G01X26797Y23412D01*
G01X26743Y23396D01*
G01X26691Y23376D01*
G01X26640Y23350D01*
G01X26593Y23319D01*
G01X26549Y23284D01*
G01X26508Y23245D01*
G01X26472Y23202D01*
G01X26440Y23155D01*
G01X26413Y23105D01*
G01X26412Y23102D01*
G01X26406Y23096D01*
G01X26398Y23087D01*
G01X26391Y23077D01*
G01X26383Y23068D01*
G01X26376Y23057D01*
G01X26369Y23047D01*
G01X26363Y23037D01*
G01X26357Y23026D01*
G01X26351Y23015D01*
G01X26346Y23003D01*
G01X26341Y22992D01*
G01X26337Y22981D01*
G01X26333Y22969D01*
G01X26329Y22957D01*
G01X26326Y22945D01*
G01X26323Y22933D01*
G01X26321Y22921D01*
G01X26319Y22909D01*
G01X26317Y22897D01*
G01X26316Y22884D01*
G01X26316Y22872D01*
G01X26316Y22860D01*
G01X26316Y21428D01*
G01X23347Y24396D01*
G01X23389Y24375D01*
G01X23441Y24355D01*
G01X23495Y24339D01*
G01X23551Y24329D01*
G01X23607Y24325D01*
G01X23664Y24327D01*
G01X23720Y24334D01*
G01X23775Y24346D01*
G01X23828Y24364D01*
G01X23880Y24387D01*
G01X23929Y24416D01*
G01X23975Y24449D01*
G01X24017Y24486D01*
G01X24055Y24527D01*
G01X24089Y24572D01*
G01X24119Y24621D01*
G01X24143Y24671D01*
G01X24163Y24725D01*
G01X24177Y24779D01*
G01X24185Y24835D01*
G01X24188Y24892D01*
G01X24185Y24948D01*
G01X24184Y24954D01*
G01X24888Y25657D01*
G01X24897Y25666D01*
G01X24905Y25676D01*
G01X24913Y25685D01*
G01X24921Y25695D01*
G01X24928Y25706D01*
G01X24935Y25716D01*
G01X24942Y25727D01*
G01X24948Y25738D01*
G01X24954Y25749D01*
G01X24960Y25760D01*
G01X24965Y25772D01*
G01X24969Y25784D01*
G01X24973Y25796D01*
G01X24977Y25808D01*
G01X24981Y25820D01*
G01X24983Y25832D01*
G01X24986Y25845D01*
G01X24988Y25857D01*
G01X24989Y25870D01*
G01X24991Y25882D01*
G01X24991Y25895D01*
G01X24991Y25908D01*
G01X24991Y29021D01*
G01X25033Y29058D01*
G01X25046Y29071D01*
G01X25046Y24825D01*
G01X25025Y24808D01*
G01X24984Y24769D01*
G01X24948Y24726D01*
G01X24916Y24679D01*
G01X24889Y24629D01*
G01X24867Y24577D01*
G01X24850Y24523D01*
G01X24839Y24468D01*
G01X24834Y24412D01*
G01X24834Y24355D01*
G01X24839Y24299D01*
G01X24850Y24244D01*
G01X24867Y24190D01*
G01X24889Y24138D01*
G01X24916Y24088D01*
G01X24948Y24041D01*
G01X24984Y23998D01*
G01X25025Y23959D01*
G01X25069Y23924D01*
G01X25116Y23893D01*
G01X25166Y23867D01*
G01X25219Y23846D01*
G01X25273Y23831D01*
G01X25329Y23821D01*
G01X25385Y23817D01*
G01X25442Y23819D01*
G01X25498Y23826D01*
G01X25553Y23838D01*
G01X25606Y23856D01*
G01X25658Y23879D01*
G01X25707Y23908D01*
G01X25753Y23941D01*
G01X25795Y23978D01*
G01X25834Y24019D01*
G01X25868Y24064D01*
G01X25897Y24113D01*
G01X25922Y24163D01*
G01X25941Y24216D01*
G01X25955Y24271D01*
G01X25963Y24327D01*
G01X25966Y24384D01*
G01X25963Y24440D01*
G01X25955Y24496D01*
G01X25941Y24551D01*
G01X25922Y24604D01*
G01X25897Y24654D01*
G01X25868Y24703D01*
G01X25834Y24748D01*
G01X25795Y24789D01*
G01X25753Y24826D01*
G01X25753Y29972D01*
G01X25753Y29984D01*
G01X25753Y29997D01*
G01X25751Y30009D01*
G01X25750Y30022D01*
G01X25748Y30034D01*
G01X25745Y30047D01*
G01X25743Y30059D01*
G01X25739Y30071D01*
G01X25735Y30083D01*
G01X25731Y30095D01*
G01X25727Y30107D01*
G01X25722Y30119D01*
G01X25716Y30130D01*
G01X25710Y30141D01*
G01X25704Y30152D01*
G01X25697Y30163D01*
G01X25690Y30173D01*
G01X25683Y30184D01*
G01X25675Y30194D01*
G01X25667Y30203D01*
G01X25659Y30213D01*
G01X25650Y30222D01*
G01X25142Y30730D01*
G01X25133Y30739D01*
G01X25123Y30747D01*
G01X25114Y30755D01*
G01X25104Y30763D01*
G01X25093Y30770D01*
G01X25083Y30777D01*
G01X25072Y30784D01*
G01X25061Y30790D01*
G01X25050Y30796D01*
G01X25039Y30802D01*
G01X25027Y30807D01*
G01X25015Y30811D01*
G01X25003Y30815D01*
G01X24991Y30819D01*
G01X24979Y30823D01*
G01X24967Y30825D01*
G01X24954Y30828D01*
G01X24942Y30830D01*
G01X24929Y30831D01*
G01X24917Y30833D01*
G01X24904Y30833D01*
G01X24892Y30833D01*
G01X16256Y30833D01*
G01X16243Y30833D01*
G01X16230Y30833D01*
G01X16218Y30831D01*
G01X16205Y30830D01*
G01X16193Y30828D01*
G01X16180Y30825D01*
G01X16168Y30823D01*
G01X16156Y30819D01*
G01X16144Y30815D01*
G01X16132Y30811D01*
G01X16120Y30807D01*
G01X16108Y30802D01*
G01X16097Y30796D01*
G01X16086Y30790D01*
G01X16075Y30784D01*
G01X16064Y30777D01*
G01X16054Y30770D01*
G01X16043Y30763D01*
G01X16033Y30755D01*
G01X16024Y30747D01*
G01X16014Y30739D01*
G01X16005Y30730D01*
G01X15735Y30460D01*
G01X15737Y30463D01*
G01X15761Y30513D01*
G01X15781Y30567D01*
G01X15795Y30621D01*
G01X15803Y30677D01*
G01X15806Y30734D01*
G01X15803Y30790D01*
G01X15795Y30846D01*
G01X15781Y30900D01*
G01X15761Y30954D01*
G01X15737Y31004D01*
G01X15707Y31053D01*
G01X15673Y31098D01*
G01X15635Y31139D01*
G01X15593Y31176D01*
G01X15547Y31209D01*
G01X15498Y31238D01*
G01X15446Y31261D01*
G01X15393Y31279D01*
G01X15338Y31291D01*
G01X15282Y31298D01*
G01X15259Y31299D01*
G01X15151Y31407D01*
G01X15135Y31422D01*
G01X15119Y31436D01*
G01X15102Y31449D01*
G01X15084Y31461D01*
G01X15066Y31473D01*
G01X15047Y31483D01*
G01X15028Y31493D01*
G01X15008Y31501D01*
G01X14988Y31509D01*
G01X14968Y31516D01*
G01X14947Y31521D01*
G01X14926Y31526D01*
G01X14905Y31529D01*
G01X14883Y31532D01*
G01X14871Y31532D01*
G01X15926Y32588D01*
G01X25984Y32588D01*
G01X25984Y30083D01*
G01X25964Y30060D01*
G01X25932Y30013D01*
G01X25905Y29963D01*
G01X25883Y29911D01*
G01X25867Y29857D01*
G01X25855Y29802D01*
G01X25850Y29746D01*
G01X25850Y29689D01*
G01X25855Y29633D01*
G01X25867Y29578D01*
G01X25883Y29524D01*
G01X25905Y29472D01*
G01X25932Y29422D01*
G01X25964Y29375D01*
G01X26000Y29332D01*
G01X26041Y29293D01*
G01X26085Y29258D01*
G01X26132Y29227D01*
G01X26183Y29201D01*
G01X26235Y29181D01*
G01X26289Y29165D01*
G01X26345Y29155D01*
G01X26401Y29151D01*
G01X26458Y29153D01*
G01X26514Y29160D01*
G01X26569Y29172D01*
G01X26622Y29190D01*
G01X26674Y29213D01*
G01X26723Y29242D01*
G01X26769Y29275D01*
G01X26811Y29312D01*
G01X26849Y29353D01*
G01X26883Y29398D01*
G01X26913Y29447D01*
G01X26937Y29497D01*
G01X26957Y29551D01*
G01X26971Y29605D01*
G01X26979Y29661D01*
G01X26982Y29718D01*
G01X26979Y29774D01*
G01X26971Y29830D01*
G01X26957Y29884D01*
G01X26937Y29938D01*
G01X26913Y29988D01*
G01X26883Y30037D01*
G01X26849Y30082D01*
G01X26847Y30084D01*
G01X26847Y33020D01*
G01X26847Y33028D01*
G01X26847Y33030D01*
G01X26847Y33031D01*
G01X26847Y33033D01*
G01X26846Y33047D01*
G01X26846Y33050D01*
G01X26846Y33052D01*
G01X26846Y33054D01*
G01X26845Y33060D01*
G01X26844Y33074D01*
G01X26842Y33087D01*
G01X26841Y33092D01*
G01X26840Y33094D01*
G01X26840Y33096D01*
G01X26839Y33100D01*
G01X26837Y33114D01*
G01X26836Y33115D01*
G01X26836Y33116D01*
G01X26836Y33117D01*
G01X26833Y33127D01*
G01X26832Y33134D01*
G01X26831Y33136D01*
G01X26830Y33138D01*
G01X26830Y33140D01*
G01X26826Y33153D01*
G01X26825Y33156D01*
G01X26825Y33157D01*
G01X26824Y33158D01*
G01X26821Y33166D01*
G01X26818Y33176D01*
G01X26817Y33177D01*
G01X26817Y33178D01*
G01X26817Y33178D01*
G01X26812Y33191D01*
G01X26810Y33195D01*
G01X26809Y33197D01*
G01X26808Y33199D01*
G01X26806Y33203D01*
G01X26800Y33215D01*
G01X26800Y33216D01*
G01X26799Y33216D01*
G01X26799Y33218D01*
G01X26794Y33227D01*
G01X26790Y33233D01*
G01X26789Y33235D01*
G01X26788Y33237D01*
G01X26787Y33239D01*
G01X26780Y33251D01*
G01X26779Y33253D01*
G01X26778Y33254D01*
G01X26777Y33256D01*
G01X26772Y33262D01*
G01X26767Y33270D01*
G01X26766Y33271D01*
G01X26765Y33272D01*
G01X26765Y33273D01*
G01X26756Y33284D01*
G01X26754Y33287D01*
G01X26753Y33289D01*
G01X26751Y33291D01*
G01X26748Y33295D01*
G01X26739Y33305D01*
G01X26730Y33315D01*
G01X26726Y33319D01*
G01X26724Y33321D01*
G01X26723Y33322D01*
G01X26721Y33325D01*
G01X26711Y33334D01*
G01X26710Y33335D01*
G01X26709Y33336D01*
G01X26707Y33337D01*
G01X26701Y33343D01*
G01X26695Y33348D01*
G01X26693Y33350D01*
G01X26692Y33351D01*
G01X26691Y33352D01*
G01X26680Y33360D01*
G01X26677Y33362D01*
G01X26676Y33363D01*
G01X26674Y33365D01*
G01X26669Y33369D01*
G01X26660Y33375D01*
G01X26659Y33376D01*
G01X26658Y33376D01*
G01X26658Y33376D01*
G01X26647Y33384D01*
G01X26643Y33386D01*
G01X26640Y33388D01*
G01X26639Y33389D01*
G01X26635Y33391D01*
G01X26623Y33398D01*
G01X26622Y33398D01*
G01X26622Y33398D01*
G01X26620Y33399D01*
G01X26611Y33404D01*
G01X26606Y33407D01*
G01X26603Y33408D01*
G01X26601Y33409D01*
G01X26599Y33410D01*
G01X26587Y33416D01*
G01X26584Y33417D01*
G01X26583Y33417D01*
G01X26581Y33418D01*
G01X26574Y33421D01*
G01X26562Y33425D01*
G01X26549Y33430D01*
G01X26544Y33431D01*
G01X26543Y33432D01*
G01X26541Y33432D01*
G01X26536Y33434D01*
G01X26523Y33437D01*
G01X26523Y33437D01*
G01X26522Y33438D01*
G01X26520Y33438D01*
G01X26510Y33441D01*
G01X26503Y33442D01*
G01X26501Y33442D01*
G01X26499Y33443D01*
G01X26496Y33443D01*
G01X26483Y33446D01*
G01X26481Y33446D01*
G01X26480Y33446D01*
G01X26478Y33446D01*
G01X26470Y33448D01*
G01X26461Y33449D01*
G01X26458Y33449D01*
G01X26458Y33449D01*
G01X26456Y33449D01*
G01X26443Y33450D01*
G01X26439Y33450D01*
G01X26437Y33450D01*
G01X26435Y33451D01*
G01X26429Y33451D01*
G01X26416Y33451D01*
G01X15748Y33451D01*
G01X15733Y33451D01*
G01X15719Y33450D01*
G01X15705Y33449D01*
G01X15691Y33447D01*
G01X15677Y33445D01*
G01X15663Y33443D01*
G01X15650Y33440D01*
G01X15636Y33436D01*
G01X15622Y33432D01*
G01X15609Y33428D01*
G01X15596Y33423D01*
G01X15582Y33418D01*
G01X15569Y33413D01*
G01X15557Y33406D01*
G01X15544Y33400D01*
G01X15532Y33393D01*
G01X15520Y33386D01*
G01X15508Y33378D01*
G01X15496Y33370D01*
G01X15485Y33362D01*
G01X15474Y33353D01*
G01X15463Y33344D01*
G01X15453Y33334D01*
G01X15442Y33325D01*
G01X9854Y27737D01*
G01X9845Y27726D01*
G01X9835Y27716D01*
G01X9826Y27705D01*
G01X9817Y27694D01*
G01X9809Y27683D01*
G01X9801Y27671D01*
G01X9793Y27659D01*
G01X9786Y27647D01*
G01X9779Y27635D01*
G01X9773Y27622D01*
G01X9766Y27610D01*
G01X9761Y27597D01*
G01X9756Y27583D01*
G01X9751Y27570D01*
G01X9747Y27557D01*
G01X9743Y27543D01*
G01X9739Y27529D01*
G01X9736Y27516D01*
G01X9734Y27502D01*
G01X9732Y27488D01*
G01X9730Y27474D01*
G01X9729Y27460D01*
G01X9728Y27446D01*
G01X9728Y27432D01*
G01X9728Y22860D01*
G01X9728Y22845D01*
G01X9729Y22831D01*
G01X9730Y22817D01*
G01X9732Y22803D01*
G01X9734Y22789D01*
G01X9736Y22775D01*
G01X9739Y22762D01*
G01X9743Y22748D01*
G01X9747Y22734D01*
G01X9751Y22721D01*
G01X9756Y22708D01*
G01X9761Y22694D01*
G01X9766Y22681D01*
G01X9773Y22669D01*
G01X9779Y22656D01*
G01X9786Y22644D01*
G01X9793Y22632D01*
G01X9801Y22620D01*
G01X9809Y22608D01*
G01X9817Y22597D01*
G01X9826Y22586D01*
G01X9835Y22575D01*
G01X9845Y22565D01*
G01X9854Y22554D01*
G01X10074Y22335D01*
G01X9957Y18134D01*
G01X9958Y18090D01*
G01X10024Y17215D01*
G01X9984Y16805D01*
G01X9982Y16764D01*
G01X9982Y16510D01*
G01X9982Y16495D01*
G01X10063Y14147D01*
G01X2286Y14147D01*
G01X2271Y14147D01*
G01X2257Y14146D01*
G01X2243Y14145D01*
G01X2229Y14143D01*
G01X2215Y14141D01*
G01X2201Y14139D01*
G01X2188Y14136D01*
G01X2174Y14132D01*
G01X2160Y14128D01*
G01X2147Y14124D01*
G01X2134Y14119D01*
G01X2120Y14114D01*
G01X2107Y14109D01*
G01X2095Y14102D01*
G01X2082Y14096D01*
G01X2070Y14089D01*
G01X2058Y14082D01*
G01X2046Y14074D01*
G01X2034Y14066D01*
G01X2023Y14058D01*
G01X2012Y14049D01*
G01X2001Y14040D01*
G01X1991Y14030D01*
G01X1980Y14021D01*
G01X964Y13005D01*
G01X955Y12994D01*
G01X945Y12984D01*
G01X936Y12973D01*
G01X927Y12962D01*
G01X919Y12951D01*
G01X911Y12939D01*
G01X903Y12927D01*
G01X896Y12915D01*
G01X889Y12903D01*
G01X883Y12890D01*
G01X876Y12878D01*
G01X871Y12865D01*
G01X866Y12851D01*
G01X861Y12838D01*
G01X857Y12825D01*
G01X853Y12811D01*
G01X849Y12797D01*
G01X846Y12784D01*
G01X844Y12770D01*
G01X842Y12756D01*
G01X840Y12742D01*
G01X839Y12728D01*
G01X838Y12714D01*
G01X838Y12700D01*
G01X838Y11795D01*
G01X818Y11772D01*
G01X786Y11725D01*
G01X759Y11675D01*
G01X737Y11623D01*
G01X721Y11569D01*
G01X709Y11514D01*
G01X704Y11458D01*
G01X704Y11401D01*
G01X709Y11345D01*
G01X721Y11290D01*
G01X737Y11236D01*
G01X759Y11184D01*
G01X786Y11134D01*
G01X818Y11087D01*
G01X854Y11044D01*
G01X895Y11005D01*
G01X939Y10970D01*
G01X986Y10939D01*
G01X1037Y10913D01*
G01X1089Y10893D01*
G01X1143Y10877D01*
G01X1199Y10867D01*
G01X1255Y10863D01*
G01X1312Y10865D01*
G01X1368Y10872D01*
G01X1423Y10884D01*
G01X1476Y10902D01*
G01X1528Y10925D01*
G01X1577Y10954D01*
G01X1623Y10987D01*
G01X1665Y11024D01*
G01X1703Y11065D01*
G01X1737Y11110D01*
G01X1767Y11159D01*
G01X1791Y11209D01*
G01X1811Y11263D01*
G01X1825Y11317D01*
G01X1833Y11373D01*
G01X1836Y11430D01*
G01X1833Y11486D01*
G01X1825Y11542D01*
G01X1811Y11596D01*
G01X1791Y11650D01*
G01X1767Y11700D01*
G01X1737Y11749D01*
G01X1703Y11794D01*
G01X1701Y11796D01*
G01X1701Y12521D01*
G01X2464Y13284D01*
G01X12014Y13284D01*
G01X12014Y7874D01*
G01X12014Y7859D01*
G01X12015Y7845D01*
G01X12016Y7831D01*
G01X12018Y7817D01*
G01X12020Y7803D01*
G01X12022Y7789D01*
G01X12025Y7776D01*
G01X12029Y7762D01*
G01X12033Y7748D01*
G01X12037Y7735D01*
G01X12042Y7722D01*
G01X12047Y7708D01*
G01X12052Y7695D01*
G01X12059Y7683D01*
G01X12065Y7670D01*
G01X12072Y7658D01*
G01X12079Y7646D01*
G01X12087Y7634D01*
G01X12095Y7622D01*
G01X12103Y7611D01*
G01X12112Y7600D01*
G01X12121Y7589D01*
G01X12131Y7579D01*
G01X12140Y7568D01*
G01X13660Y6049D01*
G01X13663Y6011D01*
G01X13675Y5956D01*
G01X13691Y5902D01*
G01X13713Y5850D01*
G01X13740Y5800D01*
G01X13772Y5753D01*
G01X13808Y5710D01*
G01X13849Y5671D01*
G01X13893Y5636D01*
G01X13940Y5605D01*
G01X13991Y5579D01*
G01X14043Y5559D01*
G01X14097Y5543D01*
G01X14153Y5533D01*
G37*
G36*
G01X17963Y7565D02*
G01X18019Y7561D01*
G01X18076Y7563D01*
G01X18132Y7570D01*
G01X18187Y7582D01*
G01X18240Y7600D01*
G01X18292Y7623D01*
G01X18341Y7652D01*
G01X18387Y7685D01*
G01X18429Y7722D01*
G01X18467Y7763D01*
G01X18501Y7808D01*
G01X18531Y7857D01*
G01X18555Y7907D01*
G01X18575Y7961D01*
G01X18589Y8015D01*
G01X18597Y8071D01*
G01X18600Y8128D01*
G01X18597Y8184D01*
G01X18589Y8240D01*
G01X18575Y8294D01*
G01X18555Y8348D01*
G01X18531Y8398D01*
G01X18501Y8447D01*
G01X18467Y8492D01*
G01X18429Y8533D01*
G01X18387Y8570D01*
G01X18387Y10733D01*
G01X18429Y10770D01*
G01X18467Y10811D01*
G01X18501Y10856D01*
G01X18531Y10905D01*
G01X18555Y10955D01*
G01X18575Y11009D01*
G01X18589Y11063D01*
G01X18597Y11119D01*
G01X18600Y11176D01*
G01X18597Y11232D01*
G01X18589Y11288D01*
G01X18575Y11342D01*
G01X18555Y11396D01*
G01X18531Y11446D01*
G01X18501Y11495D01*
G01X18467Y11540D01*
G01X18429Y11581D01*
G01X18387Y11618D01*
G01X18341Y11651D01*
G01X18292Y11680D01*
G01X18240Y11703D01*
G01X18187Y11721D01*
G01X18132Y11733D01*
G01X18076Y11740D01*
G01X18019Y11742D01*
G01X17963Y11738D01*
G01X17907Y11728D01*
G01X17853Y11712D01*
G01X17801Y11692D01*
G01X17750Y11666D01*
G01X17703Y11635D01*
G01X17659Y11600D01*
G01X17618Y11561D01*
G01X17582Y11518D01*
G01X17550Y11471D01*
G01X17523Y11421D01*
G01X17501Y11369D01*
G01X17485Y11315D01*
G01X17473Y11260D01*
G01X17468Y11204D01*
G01X17468Y11147D01*
G01X17473Y11091D01*
G01X17485Y11036D01*
G01X17501Y10982D01*
G01X17523Y10930D01*
G01X17550Y10880D01*
G01X17582Y10833D01*
G01X17618Y10790D01*
G01X17659Y10751D01*
G01X17680Y10734D01*
G01X17680Y8569D01*
G01X17659Y8552D01*
G01X17618Y8513D01*
G01X17582Y8470D01*
G01X17550Y8423D01*
G01X17523Y8373D01*
G01X17501Y8321D01*
G01X17485Y8267D01*
G01X17473Y8212D01*
G01X17468Y8156D01*
G01X17468Y8099D01*
G01X17473Y8043D01*
G01X17485Y7988D01*
G01X17501Y7934D01*
G01X17523Y7882D01*
G01X17550Y7832D01*
G01X17582Y7785D01*
G01X17618Y7742D01*
G01X17659Y7703D01*
G01X17703Y7668D01*
G01X17750Y7637D01*
G01X17801Y7611D01*
G01X17853Y7591D01*
G01X17907Y7575D01*
G01X17963Y7565D01*
G37*
G36*
G01X21011Y9089D02*
G01X21067Y9085D01*
G01X21124Y9087D01*
G01X21180Y9094D01*
G01X21235Y9106D01*
G01X21288Y9124D01*
G01X21340Y9147D01*
G01X21389Y9176D01*
G01X21435Y9209D01*
G01X21477Y9246D01*
G01X21515Y9287D01*
G01X21549Y9332D01*
G01X21579Y9381D01*
G01X21603Y9431D01*
G01X21623Y9485D01*
G01X21637Y9539D01*
G01X21645Y9595D01*
G01X21648Y9652D01*
G01X21645Y9708D01*
G01X21637Y9764D01*
G01X21623Y9818D01*
G01X21603Y9872D01*
G01X21579Y9922D01*
G01X21549Y9971D01*
G01X21515Y10016D01*
G01X21477Y10057D01*
G01X21435Y10094D01*
G01X21435Y12511D01*
G01X21477Y12548D01*
G01X21515Y12589D01*
G01X21537Y12618D01*
G01X21537Y12615D01*
G01X21549Y12560D01*
G01X21565Y12506D01*
G01X21587Y12454D01*
G01X21614Y12404D01*
G01X21646Y12357D01*
G01X21682Y12314D01*
G01X21723Y12275D01*
G01X21767Y12240D01*
G01X21814Y12209D01*
G01X21865Y12183D01*
G01X21917Y12163D01*
G01X21971Y12147D01*
G01X22027Y12137D01*
G01X22083Y12133D01*
G01X22140Y12135D01*
G01X22196Y12142D01*
G01X22251Y12154D01*
G01X22304Y12172D01*
G01X22356Y12195D01*
G01X22405Y12224D01*
G01X22451Y12257D01*
G01X22493Y12294D01*
G01X22531Y12335D01*
G01X22539Y12346D01*
G01X23983Y12346D01*
G01X24538Y11791D01*
G01X24538Y11617D01*
G01X24517Y11600D01*
G01X24476Y11561D01*
G01X24440Y11518D01*
G01X24408Y11471D01*
G01X24381Y11421D01*
G01X24359Y11369D01*
G01X24343Y11315D01*
G01X24331Y11260D01*
G01X24326Y11204D01*
G01X24326Y11147D01*
G01X24331Y11091D01*
G01X24343Y11036D01*
G01X24359Y10982D01*
G01X24381Y10930D01*
G01X24408Y10880D01*
G01X24440Y10833D01*
G01X24476Y10790D01*
G01X24517Y10751D01*
G01X24561Y10716D01*
G01X24608Y10685D01*
G01X24659Y10659D01*
G01X24711Y10639D01*
G01X24765Y10623D01*
G01X24821Y10613D01*
G01X24877Y10609D01*
G01X24934Y10611D01*
G01X24990Y10618D01*
G01X25045Y10630D01*
G01X25098Y10648D01*
G01X25150Y10671D01*
G01X25199Y10700D01*
G01X25245Y10733D01*
G01X25287Y10770D01*
G01X25325Y10811D01*
G01X25359Y10856D01*
G01X25389Y10905D01*
G01X25413Y10955D01*
G01X25433Y11009D01*
G01X25447Y11063D01*
G01X25455Y11119D01*
G01X25458Y11176D01*
G01X25455Y11232D01*
G01X25447Y11288D01*
G01X25433Y11342D01*
G01X25413Y11396D01*
G01X25389Y11446D01*
G01X25359Y11495D01*
G01X25325Y11540D01*
G01X25287Y11581D01*
G01X25245Y11618D01*
G01X25245Y11938D01*
G01X25245Y11950D01*
G01X25245Y11963D01*
G01X25243Y11975D01*
G01X25242Y11988D01*
G01X25240Y12000D01*
G01X25237Y12013D01*
G01X25235Y12025D01*
G01X25231Y12037D01*
G01X25227Y12049D01*
G01X25223Y12061D01*
G01X25219Y12073D01*
G01X25214Y12085D01*
G01X25208Y12096D01*
G01X25202Y12107D01*
G01X25196Y12118D01*
G01X25189Y12129D01*
G01X25182Y12139D01*
G01X25175Y12150D01*
G01X25167Y12160D01*
G01X25159Y12169D01*
G01X25151Y12179D01*
G01X25142Y12188D01*
G01X24380Y12950D01*
G01X24371Y12959D01*
G01X24361Y12967D01*
G01X24352Y12975D01*
G01X24342Y12983D01*
G01X24331Y12990D01*
G01X24321Y12997D01*
G01X24310Y13004D01*
G01X24299Y13010D01*
G01X24288Y13016D01*
G01X24277Y13022D01*
G01X24265Y13027D01*
G01X24253Y13031D01*
G01X24241Y13035D01*
G01X24229Y13039D01*
G01X24217Y13043D01*
G01X24205Y13045D01*
G01X24192Y13048D01*
G01X24180Y13050D01*
G01X24167Y13051D01*
G01X24155Y13053D01*
G01X24142Y13053D01*
G01X24130Y13053D01*
G01X22539Y13053D01*
G01X22531Y13064D01*
G01X22493Y13105D01*
G01X22451Y13142D01*
G01X22405Y13175D01*
G01X22356Y13204D01*
G01X22304Y13227D01*
G01X22251Y13245D01*
G01X22196Y13257D01*
G01X22140Y13264D01*
G01X22083Y13266D01*
G01X22027Y13262D01*
G01X21971Y13252D01*
G01X21917Y13236D01*
G01X21865Y13216D01*
G01X21814Y13190D01*
G01X21767Y13159D01*
G01X21723Y13124D01*
G01X21682Y13085D01*
G01X21646Y13042D01*
G01X21641Y13035D01*
G01X21637Y13066D01*
G01X21623Y13120D01*
G01X21603Y13174D01*
G01X21579Y13224D01*
G01X21549Y13273D01*
G01X21515Y13318D01*
G01X21477Y13359D01*
G01X21435Y13396D01*
G01X21389Y13429D01*
G01X21340Y13458D01*
G01X21288Y13481D01*
G01X21235Y13499D01*
G01X21180Y13511D01*
G01X21124Y13518D01*
G01X21067Y13520D01*
G01X21011Y13516D01*
G01X20955Y13506D01*
G01X20901Y13490D01*
G01X20849Y13470D01*
G01X20798Y13444D01*
G01X20751Y13413D01*
G01X20707Y13378D01*
G01X20666Y13339D01*
G01X20630Y13296D01*
G01X20598Y13249D01*
G01X20571Y13199D01*
G01X20549Y13147D01*
G01X20533Y13093D01*
G01X20521Y13038D01*
G01X20516Y12982D01*
G01X20516Y12925D01*
G01X20521Y12869D01*
G01X20533Y12814D01*
G01X20549Y12760D01*
G01X20571Y12708D01*
G01X20598Y12658D01*
G01X20630Y12611D01*
G01X20666Y12568D01*
G01X20707Y12529D01*
G01X20728Y12512D01*
G01X20728Y10093D01*
G01X20707Y10076D01*
G01X20666Y10037D01*
G01X20630Y9994D01*
G01X20598Y9947D01*
G01X20571Y9897D01*
G01X20549Y9845D01*
G01X20533Y9791D01*
G01X20521Y9736D01*
G01X20516Y9680D01*
G01X20516Y9623D01*
G01X20521Y9567D01*
G01X20533Y9512D01*
G01X20549Y9458D01*
G01X20571Y9406D01*
G01X20598Y9356D01*
G01X20630Y9309D01*
G01X20666Y9266D01*
G01X20707Y9227D01*
G01X20751Y9192D01*
G01X20798Y9161D01*
G01X20849Y9135D01*
G01X20901Y9115D01*
G01X20955Y9099D01*
G01X21011Y9089D01*
G37*
G36*
G01X18217Y12137D02*
G01X18273Y12133D01*
G01X18330Y12135D01*
G01X18386Y12142D01*
G01X18441Y12154D01*
G01X18494Y12172D01*
G01X18546Y12195D01*
G01X18595Y12224D01*
G01X18641Y12257D01*
G01X18683Y12294D01*
G01X18721Y12335D01*
G01X18755Y12380D01*
G01X18785Y12429D01*
G01X18809Y12479D01*
G01X18829Y12533D01*
G01X18843Y12587D01*
G01X18851Y12643D01*
G01X18854Y12700D01*
G01X18851Y12756D01*
G01X18850Y12762D01*
G01X19704Y13616D01*
G01X22672Y13616D01*
G01X22698Y13584D01*
G01X22739Y13545D01*
G01X22783Y13510D01*
G01X22830Y13479D01*
G01X22881Y13453D01*
G01X22933Y13433D01*
G01X22987Y13417D01*
G01X23043Y13407D01*
G01X23099Y13403D01*
G01X23156Y13405D01*
G01X23212Y13412D01*
G01X23267Y13424D01*
G01X23320Y13442D01*
G01X23372Y13465D01*
G01X23421Y13494D01*
G01X23467Y13527D01*
G01X23509Y13564D01*
G01X23547Y13605D01*
G01X23581Y13650D01*
G01X23611Y13699D01*
G01X23635Y13749D01*
G01X23655Y13803D01*
G01X23669Y13857D01*
G01X23677Y13913D01*
G01X23680Y13970D01*
G01X23677Y14026D01*
G01X23669Y14082D01*
G01X23655Y14136D01*
G01X23635Y14190D01*
G01X23611Y14240D01*
G01X23581Y14289D01*
G01X23547Y14334D01*
G01X23509Y14375D01*
G01X23467Y14412D01*
G01X23421Y14445D01*
G01X23372Y14474D01*
G01X23320Y14497D01*
G01X23267Y14515D01*
G01X23212Y14527D01*
G01X23156Y14534D01*
G01X23099Y14536D01*
G01X23043Y14532D01*
G01X22987Y14522D01*
G01X22933Y14506D01*
G01X22881Y14486D01*
G01X22830Y14460D01*
G01X22783Y14429D01*
G01X22739Y14394D01*
G01X22698Y14355D01*
G01X22672Y14323D01*
G01X19558Y14323D01*
G01X19545Y14323D01*
G01X19532Y14323D01*
G01X19520Y14321D01*
G01X19507Y14320D01*
G01X19495Y14318D01*
G01X19482Y14315D01*
G01X19470Y14313D01*
G01X19458Y14309D01*
G01X19446Y14305D01*
G01X19434Y14301D01*
G01X19422Y14297D01*
G01X19410Y14292D01*
G01X19399Y14286D01*
G01X19388Y14280D01*
G01X19377Y14274D01*
G01X19366Y14267D01*
G01X19356Y14260D01*
G01X19345Y14253D01*
G01X19335Y14245D01*
G01X19326Y14237D01*
G01X19316Y14229D01*
G01X19307Y14220D01*
G01X18349Y13262D01*
G01X18330Y13264D01*
G01X18273Y13266D01*
G01X18217Y13262D01*
G01X18161Y13252D01*
G01X18107Y13236D01*
G01X18055Y13216D01*
G01X18004Y13190D01*
G01X17957Y13159D01*
G01X17913Y13124D01*
G01X17872Y13085D01*
G01X17836Y13042D01*
G01X17804Y12995D01*
G01X17777Y12945D01*
G01X17755Y12893D01*
G01X17739Y12839D01*
G01X17727Y12784D01*
G01X17722Y12728D01*
G01X17722Y12671D01*
G01X17727Y12615D01*
G01X17739Y12560D01*
G01X17755Y12506D01*
G01X17777Y12454D01*
G01X17804Y12404D01*
G01X17836Y12357D01*
G01X17872Y12314D01*
G01X17913Y12275D01*
G01X17957Y12240D01*
G01X18004Y12209D01*
G01X18055Y12183D01*
G01X18107Y12163D01*
G01X18161Y12147D01*
G01X18217Y12137D01*
G37*
G36*
G01X29647Y12645D02*
G01X29703Y12641D01*
G01X29760Y12643D01*
G01X29816Y12650D01*
G01X29871Y12662D01*
G01X29924Y12680D01*
G01X29976Y12703D01*
G01X30025Y12732D01*
G01X30071Y12765D01*
G01X30113Y12802D01*
G01X30151Y12843D01*
G01X30185Y12888D01*
G01X30215Y12937D01*
G01X30239Y12987D01*
G01X30259Y13041D01*
G01X30273Y13095D01*
G01X30281Y13151D01*
G01X30284Y13208D01*
G01X30281Y13264D01*
G01X30273Y13320D01*
G01X30259Y13374D01*
G01X30239Y13428D01*
G01X30215Y13478D01*
G01X30185Y13527D01*
G01X30151Y13572D01*
G01X30113Y13613D01*
G01X30071Y13650D01*
G01X30071Y15093D01*
G01X30925Y15947D01*
G01X30973Y15943D01*
G01X31030Y15945D01*
G01X31086Y15952D01*
G01X31141Y15964D01*
G01X31194Y15982D01*
G01X31246Y16005D01*
G01X31295Y16034D01*
G01X31341Y16067D01*
G01X31383Y16104D01*
G01X31421Y16145D01*
G01X31455Y16190D01*
G01X31485Y16239D01*
G01X31509Y16289D01*
G01X31529Y16343D01*
G01X31543Y16397D01*
G01X31551Y16453D01*
G01X31554Y16510D01*
G01X31551Y16566D01*
G01X31543Y16622D01*
G01X31529Y16676D01*
G01X31509Y16730D01*
G01X31485Y16780D01*
G01X31455Y16829D01*
G01X31421Y16874D01*
G01X31383Y16915D01*
G01X31341Y16952D01*
G01X31295Y16985D01*
G01X31246Y17014D01*
G01X31194Y17037D01*
G01X31141Y17055D01*
G01X31086Y17067D01*
G01X31030Y17074D01*
G01X30973Y17076D01*
G01X30917Y17072D01*
G01X30861Y17062D01*
G01X30807Y17046D01*
G01X30755Y17026D01*
G01X30704Y17000D01*
G01X30657Y16969D01*
G01X30613Y16934D01*
G01X30572Y16895D01*
G01X30536Y16852D01*
G01X30504Y16805D01*
G01X30477Y16755D01*
G01X30455Y16703D01*
G01X30439Y16649D01*
G01X30427Y16594D01*
G01X30422Y16538D01*
G01X30422Y16481D01*
G01X30425Y16448D01*
G01X29467Y15490D01*
G01X29458Y15481D01*
G01X29450Y15471D01*
G01X29442Y15462D01*
G01X29434Y15452D01*
G01X29427Y15441D01*
G01X29420Y15431D01*
G01X29413Y15420D01*
G01X29407Y15409D01*
G01X29401Y15398D01*
G01X29395Y15387D01*
G01X29390Y15375D01*
G01X29386Y15363D01*
G01X29382Y15351D01*
G01X29378Y15339D01*
G01X29374Y15327D01*
G01X29372Y15315D01*
G01X29369Y15302D01*
G01X29367Y15290D01*
G01X29366Y15277D01*
G01X29364Y15265D01*
G01X29364Y15252D01*
G01X29364Y15240D01*
G01X29364Y13649D01*
G01X29343Y13632D01*
G01X29302Y13593D01*
G01X29266Y13550D01*
G01X29234Y13503D01*
G01X29207Y13453D01*
G01X29185Y13401D01*
G01X29169Y13347D01*
G01X29157Y13292D01*
G01X29152Y13236D01*
G01X29152Y13179D01*
G01X29157Y13123D01*
G01X29169Y13068D01*
G01X29185Y13014D01*
G01X29207Y12962D01*
G01X29234Y12912D01*
G01X29266Y12865D01*
G01X29302Y12822D01*
G01X29343Y12783D01*
G01X29387Y12748D01*
G01X29434Y12717D01*
G01X29485Y12691D01*
G01X29537Y12671D01*
G01X29591Y12655D01*
G01X29647Y12645D01*
G37*
G36*
G01X36254Y16981D02*
G01X36322Y16976D01*
G01X36389Y16978D01*
G01X36457Y16986D01*
G01X36523Y17002D01*
G01X36587Y17023D01*
G01X36649Y17051D01*
G01X36708Y17085D01*
G01X36763Y17125D01*
G01X36814Y17170D01*
G01X36861Y17220D01*
G01X36902Y17274D01*
G01X36937Y17332D01*
G01X36966Y17393D01*
G01X36990Y17457D01*
G01X37006Y17523D01*
G01X37017Y17590D01*
G01X37020Y17658D01*
G01X37017Y17725D01*
G01X37006Y17793D01*
G01X36990Y17858D01*
G01X36966Y17922D01*
G01X36937Y17984D01*
G01X36902Y18041D01*
G01X36861Y18096D01*
G01X36814Y18145D01*
G01X36763Y18190D01*
G01X36708Y18230D01*
G01X36649Y18264D01*
G01X36587Y18292D01*
G01X36523Y18314D01*
G01X36457Y18329D01*
G01X36389Y18337D01*
G01X36322Y18339D01*
G01X36254Y18334D01*
G01X36187Y18322D01*
G01X36121Y18304D01*
G01X36058Y18279D01*
G01X35998Y18248D01*
G01X35941Y18211D01*
G01X35888Y18169D01*
G01X35839Y18121D01*
G01X35795Y18069D01*
G01X35757Y18013D01*
G01X35725Y17953D01*
G01X35698Y17891D01*
G01X35678Y17826D01*
G01X35665Y17759D01*
G01X35658Y17692D01*
G01X35658Y17624D01*
G01X35665Y17556D01*
G01X35678Y17489D01*
G01X35698Y17425D01*
G01X35725Y17362D01*
G01X35757Y17302D01*
G01X35795Y17246D01*
G01X35839Y17194D01*
G01X35888Y17147D01*
G01X35941Y17104D01*
G01X35998Y17067D01*
G01X36058Y17036D01*
G01X36121Y17012D01*
G01X36187Y16993D01*
G01X36254Y16981D01*
G37*
G36*
G01X9327Y18741D02*
G01X9383Y18737D01*
G01X9440Y18739D01*
G01X9496Y18746D01*
G01X9551Y18758D01*
G01X9604Y18776D01*
G01X9656Y18799D01*
G01X9705Y18828D01*
G01X9751Y18861D01*
G01X9793Y18898D01*
G01X9831Y18939D01*
G01X9865Y18984D01*
G01X9895Y19033D01*
G01X9919Y19083D01*
G01X9939Y19137D01*
G01X9953Y19191D01*
G01X9961Y19247D01*
G01X9964Y19304D01*
G01X9961Y19360D01*
G01X9953Y19416D01*
G01X9939Y19470D01*
G01X9919Y19524D01*
G01X9895Y19574D01*
G01X9865Y19623D01*
G01X9831Y19668D01*
G01X9793Y19709D01*
G01X9751Y19746D01*
G01X9751Y21401D01*
G01X9793Y21438D01*
G01X9831Y21479D01*
G01X9865Y21524D01*
G01X9895Y21573D01*
G01X9919Y21623D01*
G01X9939Y21677D01*
G01X9953Y21731D01*
G01X9961Y21787D01*
G01X9964Y21844D01*
G01X9961Y21900D01*
G01X9953Y21956D01*
G01X9939Y22010D01*
G01X9919Y22064D01*
G01X9895Y22114D01*
G01X9865Y22163D01*
G01X9831Y22208D01*
G01X9793Y22249D01*
G01X9751Y22286D01*
G01X9705Y22319D01*
G01X9656Y22348D01*
G01X9604Y22371D01*
G01X9551Y22389D01*
G01X9496Y22401D01*
G01X9440Y22408D01*
G01X9383Y22410D01*
G01X9327Y22406D01*
G01X9271Y22396D01*
G01X9217Y22380D01*
G01X9165Y22360D01*
G01X9114Y22334D01*
G01X9067Y22303D01*
G01X9023Y22268D01*
G01X8982Y22229D01*
G01X8946Y22186D01*
G01X8914Y22139D01*
G01X8887Y22089D01*
G01X8865Y22037D01*
G01X8849Y21983D01*
G01X8837Y21928D01*
G01X8832Y21872D01*
G01X8832Y21815D01*
G01X8837Y21759D01*
G01X8849Y21704D01*
G01X8865Y21650D01*
G01X8887Y21598D01*
G01X8914Y21548D01*
G01X8946Y21501D01*
G01X8982Y21458D01*
G01X9023Y21419D01*
G01X9044Y21402D01*
G01X9044Y19745D01*
G01X9023Y19728D01*
G01X8982Y19689D01*
G01X8946Y19646D01*
G01X8914Y19599D01*
G01X8887Y19549D01*
G01X8865Y19497D01*
G01X8849Y19443D01*
G01X8837Y19388D01*
G01X8832Y19332D01*
G01X8832Y19275D01*
G01X8837Y19219D01*
G01X8849Y19164D01*
G01X8865Y19110D01*
G01X8887Y19058D01*
G01X8914Y19008D01*
G01X8946Y18961D01*
G01X8982Y18918D01*
G01X9023Y18879D01*
G01X9067Y18844D01*
G01X9114Y18813D01*
G01X9165Y18787D01*
G01X9217Y18767D01*
G01X9271Y18751D01*
G01X9327Y18741D01*
G37*
G36*
G01X36254Y20781D02*
G01X36322Y20776D01*
G01X36389Y20778D01*
G01X36457Y20786D01*
G01X36523Y20801D01*
G01X36587Y20823D01*
G01X36649Y20851D01*
G01X36708Y20885D01*
G01X36763Y20925D01*
G01X36814Y20970D01*
G01X36861Y21019D01*
G01X36902Y21074D01*
G01X36937Y21131D01*
G01X36966Y21193D01*
G01X36990Y21257D01*
G01X37006Y21322D01*
G01X37017Y21390D01*
G01X37020Y21457D01*
G01X37017Y21525D01*
G01X37006Y21592D01*
G01X36990Y21658D01*
G01X36966Y21722D01*
G01X36937Y21783D01*
G01X36902Y21841D01*
G01X36861Y21895D01*
G01X36814Y21945D01*
G01X36763Y21990D01*
G01X36708Y22030D01*
G01X36649Y22064D01*
G01X36587Y22092D01*
G01X36523Y22113D01*
G01X36457Y22129D01*
G01X36389Y22137D01*
G01X36322Y22139D01*
G01X36254Y22134D01*
G01X36187Y22122D01*
G01X36121Y22103D01*
G01X36058Y22079D01*
G01X35998Y22048D01*
G01X35941Y22011D01*
G01X35888Y21968D01*
G01X35839Y21921D01*
G01X35795Y21869D01*
G01X35757Y21813D01*
G01X35725Y21753D01*
G01X35698Y21690D01*
G01X35678Y21626D01*
G01X35665Y21559D01*
G01X35658Y21491D01*
G01X35658Y21423D01*
G01X35665Y21356D01*
G01X35678Y21289D01*
G01X35698Y21224D01*
G01X35725Y21162D01*
G01X35757Y21102D01*
G01X35795Y21046D01*
G01X35839Y20994D01*
G01X35888Y20946D01*
G01X35941Y20904D01*
G01X35998Y20867D01*
G01X36058Y20836D01*
G01X36121Y20811D01*
G01X36187Y20793D01*
G01X36254Y20781D01*
G37*
G36*
G01X1005Y23622D02*
G01X1016Y23622D01*
G01X2540Y23622D01*
G01X2550Y23622D01*
G01X2560Y23622D01*
G01X2571Y23623D01*
G01X2581Y23625D01*
G01X2592Y23627D01*
G01X2602Y23629D01*
G01X2612Y23632D01*
G01X2622Y23635D01*
G01X2632Y23639D01*
G01X2642Y23643D01*
G01X2651Y23647D01*
G01X2660Y23652D01*
G01X2670Y23657D01*
G01X2678Y23663D01*
G01X2687Y23669D01*
G01X2696Y23675D01*
G01X2704Y23682D01*
G01X2712Y23689D01*
G01X2719Y23696D01*
G01X2726Y23703D01*
G01X2733Y23711D01*
G01X2740Y23719D01*
G01X2746Y23728D01*
G01X2752Y23737D01*
G01X2758Y23745D01*
G01X2763Y23755D01*
G01X2768Y23764D01*
G01X2772Y23773D01*
G01X2776Y23783D01*
G01X2780Y23793D01*
G01X2783Y23803D01*
G01X2786Y23813D01*
G01X2788Y23823D01*
G01X2790Y23834D01*
G01X2792Y23844D01*
G01X2793Y23855D01*
G01X2793Y23865D01*
G01X2794Y23876D01*
G01X2794Y25400D01*
G01X2793Y25410D01*
G01X2793Y25420D01*
G01X2792Y25431D01*
G01X2790Y25441D01*
G01X2788Y25452D01*
G01X2786Y25462D01*
G01X2783Y25472D01*
G01X2780Y25482D01*
G01X2776Y25492D01*
G01X2772Y25502D01*
G01X2768Y25511D01*
G01X2763Y25520D01*
G01X2758Y25530D01*
G01X2752Y25538D01*
G01X2746Y25547D01*
G01X2740Y25556D01*
G01X2733Y25564D01*
G01X2726Y25572D01*
G01X2719Y25579D01*
G01X2712Y25586D01*
G01X2704Y25593D01*
G01X2696Y25600D01*
G01X2687Y25606D01*
G01X2678Y25612D01*
G01X2670Y25618D01*
G01X2660Y25623D01*
G01X2651Y25628D01*
G01X2642Y25632D01*
G01X2632Y25636D01*
G01X2622Y25640D01*
G01X2612Y25643D01*
G01X2602Y25646D01*
G01X2592Y25648D01*
G01X2581Y25650D01*
G01X2571Y25652D01*
G01X2560Y25653D01*
G01X2550Y25653D01*
G01X2540Y25654D01*
G01X1016Y25654D01*
G01X1005Y25653D01*
G01X995Y25653D01*
G01X984Y25652D01*
G01X974Y25650D01*
G01X963Y25648D01*
G01X953Y25646D01*
G01X943Y25643D01*
G01X933Y25640D01*
G01X923Y25636D01*
G01X913Y25632D01*
G01X904Y25628D01*
G01X895Y25623D01*
G01X885Y25618D01*
G01X877Y25612D01*
G01X868Y25606D01*
G01X859Y25600D01*
G01X851Y25593D01*
G01X843Y25586D01*
G01X836Y25579D01*
G01X829Y25572D01*
G01X822Y25564D01*
G01X815Y25556D01*
G01X809Y25547D01*
G01X803Y25538D01*
G01X797Y25530D01*
G01X792Y25520D01*
G01X787Y25511D01*
G01X783Y25502D01*
G01X779Y25492D01*
G01X775Y25482D01*
G01X772Y25472D01*
G01X769Y25462D01*
G01X767Y25452D01*
G01X765Y25441D01*
G01X763Y25431D01*
G01X762Y25420D01*
G01X762Y25410D01*
G01X762Y25400D01*
G01X762Y23876D01*
G01X762Y23865D01*
G01X762Y23855D01*
G01X763Y23844D01*
G01X765Y23834D01*
G01X767Y23823D01*
G01X769Y23813D01*
G01X772Y23803D01*
G01X775Y23793D01*
G01X779Y23783D01*
G01X783Y23773D01*
G01X787Y23764D01*
G01X792Y23755D01*
G01X797Y23745D01*
G01X803Y23737D01*
G01X809Y23728D01*
G01X815Y23719D01*
G01X822Y23711D01*
G01X829Y23703D01*
G01X836Y23696D01*
G01X843Y23689D01*
G01X851Y23682D01*
G01X859Y23675D01*
G01X868Y23669D01*
G01X877Y23663D01*
G01X885Y23657D01*
G01X895Y23652D01*
G01X904Y23647D01*
G01X913Y23643D01*
G01X923Y23639D01*
G01X933Y23635D01*
G01X943Y23632D01*
G01X953Y23629D01*
G01X963Y23627D01*
G01X974Y23625D01*
G01X984Y23623D01*
G01X995Y23622D01*
G01X1005Y23622D01*
G37*
G36*
G01X6025Y23821D02*
G01X6081Y23817D01*
G01X6138Y23819D01*
G01X6194Y23826D01*
G01X6249Y23838D01*
G01X6302Y23856D01*
G01X6354Y23879D01*
G01X6403Y23908D01*
G01X6449Y23941D01*
G01X6491Y23978D01*
G01X6530Y24019D01*
G01X6564Y24064D01*
G01X6593Y24113D01*
G01X6618Y24163D01*
G01X6637Y24216D01*
G01X6651Y24271D01*
G01X6659Y24327D01*
G01X6662Y24384D01*
G01X6659Y24440D01*
G01X6651Y24496D01*
G01X6637Y24551D01*
G01X6618Y24604D01*
G01X6593Y24654D01*
G01X6564Y24703D01*
G01X6530Y24748D01*
G01X6491Y24789D01*
G01X6449Y24826D01*
G01X6449Y28702D01*
G01X6604Y28702D01*
G01X6614Y28702D01*
G01X6624Y28702D01*
G01X6635Y28703D01*
G01X6645Y28705D01*
G01X6656Y28707D01*
G01X6666Y28709D01*
G01X6676Y28712D01*
G01X6686Y28715D01*
G01X6696Y28719D01*
G01X6706Y28723D01*
G01X6715Y28727D01*
G01X6724Y28732D01*
G01X6734Y28737D01*
G01X6742Y28743D01*
G01X6751Y28749D01*
G01X6760Y28755D01*
G01X6768Y28762D01*
G01X6776Y28769D01*
G01X6783Y28776D01*
G01X6790Y28783D01*
G01X6797Y28791D01*
G01X6804Y28799D01*
G01X6810Y28808D01*
G01X6816Y28817D01*
G01X6822Y28825D01*
G01X6827Y28835D01*
G01X6832Y28844D01*
G01X6836Y28853D01*
G01X6840Y28863D01*
G01X6844Y28873D01*
G01X6847Y28883D01*
G01X6850Y28893D01*
G01X6852Y28903D01*
G01X6854Y28914D01*
G01X6856Y28924D01*
G01X6857Y28935D01*
G01X6857Y28945D01*
G01X6858Y28956D01*
G01X6858Y30480D01*
G01X6857Y30490D01*
G01X6857Y30500D01*
G01X6856Y30511D01*
G01X6854Y30521D01*
G01X6852Y30532D01*
G01X6850Y30542D01*
G01X6847Y30552D01*
G01X6844Y30562D01*
G01X6840Y30572D01*
G01X6836Y30582D01*
G01X6832Y30591D01*
G01X6827Y30600D01*
G01X6822Y30610D01*
G01X6816Y30618D01*
G01X6810Y30627D01*
G01X6804Y30636D01*
G01X6797Y30644D01*
G01X6790Y30652D01*
G01X6783Y30659D01*
G01X6776Y30666D01*
G01X6768Y30673D01*
G01X6760Y30680D01*
G01X6751Y30686D01*
G01X6742Y30692D01*
G01X6734Y30698D01*
G01X6724Y30703D01*
G01X6715Y30708D01*
G01X6706Y30712D01*
G01X6696Y30716D01*
G01X6686Y30720D01*
G01X6676Y30723D01*
G01X6666Y30726D01*
G01X6656Y30728D01*
G01X6645Y30730D01*
G01X6635Y30732D01*
G01X6624Y30733D01*
G01X6614Y30733D01*
G01X6604Y30734D01*
G01X5080Y30734D01*
G01X5072Y30733D01*
G01X5326Y30988D01*
G01X6604Y30988D01*
G01X6614Y30988D01*
G01X6624Y30988D01*
G01X6635Y30989D01*
G01X6645Y30991D01*
G01X6656Y30993D01*
G01X6666Y30995D01*
G01X6676Y30998D01*
G01X6686Y31001D01*
G01X6696Y31005D01*
G01X6706Y31009D01*
G01X6715Y31013D01*
G01X6724Y31018D01*
G01X6734Y31023D01*
G01X6742Y31029D01*
G01X6751Y31035D01*
G01X6760Y31041D01*
G01X6768Y31048D01*
G01X6776Y31055D01*
G01X6783Y31062D01*
G01X6790Y31069D01*
G01X6797Y31077D01*
G01X6804Y31085D01*
G01X6810Y31094D01*
G01X6816Y31103D01*
G01X6822Y31111D01*
G01X6827Y31121D01*
G01X6832Y31130D01*
G01X6836Y31139D01*
G01X6840Y31149D01*
G01X6844Y31159D01*
G01X6847Y31169D01*
G01X6850Y31179D01*
G01X6852Y31189D01*
G01X6854Y31200D01*
G01X6856Y31210D01*
G01X6857Y31221D01*
G01X6857Y31231D01*
G01X6858Y31242D01*
G01X6858Y32766D01*
G01X6857Y32776D01*
G01X6857Y32786D01*
G01X6856Y32797D01*
G01X6854Y32807D01*
G01X6852Y32818D01*
G01X6850Y32828D01*
G01X6847Y32838D01*
G01X6844Y32848D01*
G01X6840Y32858D01*
G01X6836Y32868D01*
G01X6832Y32877D01*
G01X6827Y32886D01*
G01X6822Y32896D01*
G01X6816Y32904D01*
G01X6810Y32913D01*
G01X6804Y32922D01*
G01X6797Y32930D01*
G01X6790Y32938D01*
G01X6783Y32945D01*
G01X6776Y32952D01*
G01X6768Y32959D01*
G01X6760Y32966D01*
G01X6751Y32972D01*
G01X6742Y32978D01*
G01X6734Y32984D01*
G01X6724Y32989D01*
G01X6715Y32994D01*
G01X6706Y32998D01*
G01X6696Y33002D01*
G01X6686Y33006D01*
G01X6676Y33009D01*
G01X6666Y33012D01*
G01X6656Y33014D01*
G01X6645Y33016D01*
G01X6635Y33018D01*
G01X6624Y33019D01*
G01X6614Y33019D01*
G01X6604Y33020D01*
G01X5080Y33020D01*
G01X5069Y33019D01*
G01X5059Y33019D01*
G01X5048Y33018D01*
G01X5038Y33016D01*
G01X5027Y33014D01*
G01X5017Y33012D01*
G01X5007Y33009D01*
G01X4997Y33006D01*
G01X4987Y33002D01*
G01X4977Y32998D01*
G01X4968Y32994D01*
G01X4959Y32989D01*
G01X4949Y32984D01*
G01X4941Y32978D01*
G01X4932Y32972D01*
G01X4923Y32966D01*
G01X4915Y32959D01*
G01X4907Y32952D01*
G01X4900Y32945D01*
G01X4893Y32938D01*
G01X4886Y32930D01*
G01X4879Y32922D01*
G01X4873Y32913D01*
G01X4867Y32904D01*
G01X4861Y32896D01*
G01X4856Y32886D01*
G01X4851Y32877D01*
G01X4847Y32868D01*
G01X4843Y32858D01*
G01X4839Y32848D01*
G01X4836Y32838D01*
G01X4833Y32828D01*
G01X4831Y32818D01*
G01X4829Y32807D01*
G01X4827Y32797D01*
G01X4826Y32786D01*
G01X4826Y32776D01*
G01X4826Y32766D01*
G01X4826Y31488D01*
G01X3813Y30476D01*
G01X3804Y30467D01*
G01X3796Y30457D01*
G01X3788Y30448D01*
G01X3780Y30438D01*
G01X3773Y30427D01*
G01X3766Y30417D01*
G01X3759Y30406D01*
G01X3753Y30395D01*
G01X3747Y30384D01*
G01X3741Y30373D01*
G01X3736Y30361D01*
G01X3732Y30349D01*
G01X3728Y30337D01*
G01X3724Y30325D01*
G01X3720Y30313D01*
G01X3718Y30301D01*
G01X3715Y30288D01*
G01X3713Y30276D01*
G01X3712Y30263D01*
G01X3710Y30251D01*
G01X3710Y30238D01*
G01X3710Y30226D01*
G01X3710Y27873D01*
G01X3689Y27856D01*
G01X3648Y27817D01*
G01X3612Y27774D01*
G01X3580Y27727D01*
G01X3553Y27677D01*
G01X3531Y27625D01*
G01X3514Y27571D01*
G01X3503Y27516D01*
G01X3498Y27460D01*
G01X3498Y27403D01*
G01X3503Y27347D01*
G01X3514Y27292D01*
G01X3531Y27238D01*
G01X3553Y27186D01*
G01X3580Y27136D01*
G01X3612Y27089D01*
G01X3648Y27046D01*
G01X3689Y27007D01*
G01X3733Y26972D01*
G01X3780Y26941D01*
G01X3830Y26915D01*
G01X3883Y26894D01*
G01X3937Y26879D01*
G01X3993Y26869D01*
G01X4049Y26865D01*
G01X4106Y26867D01*
G01X4162Y26874D01*
G01X4217Y26886D01*
G01X4270Y26904D01*
G01X4322Y26927D01*
G01X4371Y26956D01*
G01X4417Y26989D01*
G01X4459Y27026D01*
G01X4498Y27067D01*
G01X4532Y27112D01*
G01X4561Y27161D01*
G01X4586Y27211D01*
G01X4605Y27264D01*
G01X4619Y27319D01*
G01X4627Y27375D01*
G01X4630Y27432D01*
G01X4627Y27488D01*
G01X4619Y27544D01*
G01X4605Y27599D01*
G01X4586Y27652D01*
G01X4561Y27702D01*
G01X4532Y27751D01*
G01X4498Y27796D01*
G01X4459Y27837D01*
G01X4417Y27874D01*
G01X4417Y30079D01*
G01X4826Y30487D01*
G01X4826Y30480D01*
G01X4826Y28956D01*
G01X4826Y28945D01*
G01X4826Y28935D01*
G01X4827Y28924D01*
G01X4829Y28914D01*
G01X4831Y28903D01*
G01X4833Y28893D01*
G01X4836Y28883D01*
G01X4839Y28873D01*
G01X4843Y28863D01*
G01X4847Y28853D01*
G01X4851Y28844D01*
G01X4856Y28835D01*
G01X4861Y28825D01*
G01X4867Y28817D01*
G01X4873Y28808D01*
G01X4879Y28799D01*
G01X4886Y28791D01*
G01X4893Y28783D01*
G01X4900Y28776D01*
G01X4907Y28769D01*
G01X4915Y28762D01*
G01X4923Y28755D01*
G01X4932Y28749D01*
G01X4941Y28743D01*
G01X4949Y28737D01*
G01X4959Y28732D01*
G01X4968Y28727D01*
G01X4977Y28723D01*
G01X4987Y28719D01*
G01X4997Y28715D01*
G01X5007Y28712D01*
G01X5017Y28709D01*
G01X5027Y28707D01*
G01X5038Y28705D01*
G01X5048Y28703D01*
G01X5059Y28702D01*
G01X5069Y28702D01*
G01X5080Y28702D01*
G01X5742Y28702D01*
G01X5742Y24825D01*
G01X5721Y24808D01*
G01X5680Y24769D01*
G01X5644Y24726D01*
G01X5612Y24679D01*
G01X5585Y24629D01*
G01X5563Y24577D01*
G01X5546Y24523D01*
G01X5535Y24468D01*
G01X5530Y24412D01*
G01X5530Y24355D01*
G01X5535Y24299D01*
G01X5546Y24244D01*
G01X5563Y24190D01*
G01X5585Y24138D01*
G01X5612Y24088D01*
G01X5644Y24041D01*
G01X5680Y23998D01*
G01X5721Y23959D01*
G01X5765Y23924D01*
G01X5812Y23893D01*
G01X5862Y23867D01*
G01X5915Y23846D01*
G01X5969Y23831D01*
G01X6025Y23821D01*
G37*
G36*
G01X8057Y23821D02*
G01X8113Y23817D01*
G01X8170Y23819D01*
G01X8226Y23826D01*
G01X8281Y23838D01*
G01X8334Y23856D01*
G01X8386Y23879D01*
G01X8435Y23908D01*
G01X8481Y23941D01*
G01X8523Y23978D01*
G01X8562Y24019D01*
G01X8596Y24064D01*
G01X8625Y24113D01*
G01X8650Y24163D01*
G01X8669Y24216D01*
G01X8683Y24271D01*
G01X8691Y24327D01*
G01X8694Y24384D01*
G01X8691Y24440D01*
G01X8683Y24496D01*
G01X8669Y24551D01*
G01X8650Y24604D01*
G01X8625Y24654D01*
G01X8596Y24703D01*
G01X8562Y24748D01*
G01X8523Y24789D01*
G01X8481Y24826D01*
G01X8481Y32873D01*
G01X12692Y37084D01*
G01X13970Y37084D01*
G01X13977Y37084D01*
G01X8893Y32000D01*
G01X8884Y31991D01*
G01X8876Y31981D01*
G01X8868Y31972D01*
G01X8860Y31962D01*
G01X8853Y31951D01*
G01X8846Y31941D01*
G01X8839Y31930D01*
G01X8833Y31919D01*
G01X8827Y31908D01*
G01X8821Y31897D01*
G01X8816Y31885D01*
G01X8812Y31873D01*
G01X8808Y31861D01*
G01X8804Y31849D01*
G01X8800Y31837D01*
G01X8798Y31825D01*
G01X8795Y31812D01*
G01X8793Y31800D01*
G01X8792Y31787D01*
G01X8790Y31775D01*
G01X8790Y31762D01*
G01X8790Y31750D01*
G01X8790Y25587D01*
G01X8769Y25570D01*
G01X8728Y25531D01*
G01X8692Y25488D01*
G01X8660Y25441D01*
G01X8633Y25391D01*
G01X8611Y25339D01*
G01X8594Y25285D01*
G01X8583Y25230D01*
G01X8578Y25174D01*
G01X8578Y25117D01*
G01X8583Y25061D01*
G01X8594Y25006D01*
G01X8611Y24952D01*
G01X8633Y24900D01*
G01X8660Y24850D01*
G01X8692Y24803D01*
G01X8728Y24760D01*
G01X8769Y24721D01*
G01X8813Y24686D01*
G01X8860Y24655D01*
G01X8910Y24629D01*
G01X8963Y24608D01*
G01X9017Y24593D01*
G01X9073Y24583D01*
G01X9129Y24579D01*
G01X9186Y24581D01*
G01X9242Y24588D01*
G01X9297Y24600D01*
G01X9350Y24618D01*
G01X9402Y24641D01*
G01X9451Y24670D01*
G01X9497Y24703D01*
G01X9539Y24740D01*
G01X9578Y24781D01*
G01X9612Y24826D01*
G01X9641Y24875D01*
G01X9666Y24925D01*
G01X9685Y24978D01*
G01X9699Y25033D01*
G01X9707Y25089D01*
G01X9710Y25146D01*
G01X9707Y25202D01*
G01X9699Y25258D01*
G01X9685Y25313D01*
G01X9666Y25366D01*
G01X9641Y25416D01*
G01X9612Y25465D01*
G01X9578Y25510D01*
G01X9539Y25551D01*
G01X9497Y25588D01*
G01X9497Y31603D01*
G01X14978Y37084D01*
G01X16256Y37084D01*
G01X16266Y37084D01*
G01X16276Y37084D01*
G01X16287Y37085D01*
G01X16297Y37087D01*
G01X16308Y37089D01*
G01X16318Y37091D01*
G01X16328Y37094D01*
G01X16338Y37097D01*
G01X16348Y37101D01*
G01X16358Y37105D01*
G01X16367Y37109D01*
G01X16376Y37114D01*
G01X16386Y37119D01*
G01X16394Y37125D01*
G01X16403Y37131D01*
G01X16412Y37137D01*
G01X16420Y37144D01*
G01X16428Y37151D01*
G01X16435Y37158D01*
G01X16442Y37165D01*
G01X16449Y37173D01*
G01X16456Y37181D01*
G01X16462Y37190D01*
G01X16468Y37199D01*
G01X16474Y37207D01*
G01X16479Y37217D01*
G01X16484Y37226D01*
G01X16488Y37235D01*
G01X16492Y37245D01*
G01X16496Y37255D01*
G01X16499Y37265D01*
G01X16502Y37275D01*
G01X16504Y37285D01*
G01X16506Y37296D01*
G01X16508Y37306D01*
G01X16509Y37317D01*
G01X16509Y37327D01*
G01X16510Y37338D01*
G01X16510Y38862D01*
G01X16509Y38872D01*
G01X16509Y38882D01*
G01X16508Y38893D01*
G01X16506Y38903D01*
G01X16504Y38914D01*
G01X16502Y38924D01*
G01X16499Y38934D01*
G01X16496Y38944D01*
G01X16492Y38954D01*
G01X16488Y38964D01*
G01X16484Y38973D01*
G01X16479Y38982D01*
G01X16474Y38992D01*
G01X16468Y39000D01*
G01X16462Y39009D01*
G01X16456Y39018D01*
G01X16449Y39026D01*
G01X16442Y39034D01*
G01X16435Y39041D01*
G01X16428Y39048D01*
G01X16420Y39055D01*
G01X16412Y39062D01*
G01X16403Y39068D01*
G01X16394Y39074D01*
G01X16386Y39080D01*
G01X16376Y39085D01*
G01X16367Y39090D01*
G01X16358Y39094D01*
G01X16348Y39098D01*
G01X16338Y39102D01*
G01X16328Y39105D01*
G01X16318Y39108D01*
G01X16308Y39110D01*
G01X16297Y39112D01*
G01X16287Y39114D01*
G01X16276Y39115D01*
G01X16266Y39115D01*
G01X16256Y39116D01*
G01X14732Y39116D01*
G01X14721Y39115D01*
G01X14711Y39115D01*
G01X14700Y39114D01*
G01X14690Y39112D01*
G01X14679Y39110D01*
G01X14669Y39108D01*
G01X14659Y39105D01*
G01X14649Y39102D01*
G01X14639Y39098D01*
G01X14629Y39094D01*
G01X14620Y39090D01*
G01X14611Y39085D01*
G01X14601Y39080D01*
G01X14593Y39074D01*
G01X14584Y39068D01*
G01X14575Y39062D01*
G01X14567Y39055D01*
G01X14559Y39048D01*
G01X14552Y39041D01*
G01X14545Y39034D01*
G01X14538Y39026D01*
G01X14531Y39018D01*
G01X14525Y39009D01*
G01X14519Y39000D01*
G01X14513Y38992D01*
G01X14508Y38982D01*
G01X14503Y38973D01*
G01X14499Y38964D01*
G01X14495Y38954D01*
G01X14491Y38944D01*
G01X14488Y38934D01*
G01X14485Y38924D01*
G01X14483Y38914D01*
G01X14481Y38903D01*
G01X14479Y38893D01*
G01X14478Y38882D01*
G01X14478Y38872D01*
G01X14478Y38862D01*
G01X14478Y37584D01*
G01X14223Y37330D01*
G01X14224Y37338D01*
G01X14224Y38862D01*
G01X14223Y38872D01*
G01X14223Y38882D01*
G01X14222Y38893D01*
G01X14220Y38903D01*
G01X14218Y38914D01*
G01X14216Y38924D01*
G01X14213Y38934D01*
G01X14210Y38944D01*
G01X14206Y38954D01*
G01X14202Y38964D01*
G01X14198Y38973D01*
G01X14193Y38982D01*
G01X14188Y38992D01*
G01X14182Y39000D01*
G01X14176Y39009D01*
G01X14170Y39018D01*
G01X14163Y39026D01*
G01X14156Y39034D01*
G01X14149Y39041D01*
G01X14142Y39048D01*
G01X14134Y39055D01*
G01X14126Y39062D01*
G01X14117Y39068D01*
G01X14108Y39074D01*
G01X14100Y39080D01*
G01X14090Y39085D01*
G01X14081Y39090D01*
G01X14072Y39094D01*
G01X14062Y39098D01*
G01X14052Y39102D01*
G01X14042Y39105D01*
G01X14032Y39108D01*
G01X14022Y39110D01*
G01X14011Y39112D01*
G01X14001Y39114D01*
G01X13990Y39115D01*
G01X13980Y39115D01*
G01X13970Y39116D01*
G01X12446Y39116D01*
G01X12435Y39115D01*
G01X12425Y39115D01*
G01X12414Y39114D01*
G01X12404Y39112D01*
G01X12393Y39110D01*
G01X12383Y39108D01*
G01X12373Y39105D01*
G01X12363Y39102D01*
G01X12353Y39098D01*
G01X12343Y39094D01*
G01X12334Y39090D01*
G01X12325Y39085D01*
G01X12315Y39080D01*
G01X12307Y39074D01*
G01X12298Y39068D01*
G01X12289Y39062D01*
G01X12281Y39055D01*
G01X12273Y39048D01*
G01X12266Y39041D01*
G01X12259Y39034D01*
G01X12252Y39026D01*
G01X12245Y39018D01*
G01X12239Y39009D01*
G01X12233Y39000D01*
G01X12227Y38992D01*
G01X12222Y38982D01*
G01X12217Y38973D01*
G01X12213Y38964D01*
G01X12209Y38954D01*
G01X12205Y38944D01*
G01X12202Y38934D01*
G01X12199Y38924D01*
G01X12197Y38914D01*
G01X12195Y38903D01*
G01X12193Y38893D01*
G01X12192Y38882D01*
G01X12192Y38872D01*
G01X12192Y38862D01*
G01X12192Y37584D01*
G01X11937Y37330D01*
G01X11938Y37338D01*
G01X11938Y38862D01*
G01X11937Y38872D01*
G01X11937Y38882D01*
G01X11936Y38893D01*
G01X11934Y38903D01*
G01X11932Y38914D01*
G01X11930Y38924D01*
G01X11927Y38934D01*
G01X11924Y38944D01*
G01X11920Y38954D01*
G01X11916Y38964D01*
G01X11912Y38973D01*
G01X11907Y38982D01*
G01X11902Y38992D01*
G01X11896Y39000D01*
G01X11890Y39009D01*
G01X11884Y39018D01*
G01X11877Y39026D01*
G01X11870Y39034D01*
G01X11863Y39041D01*
G01X11856Y39048D01*
G01X11848Y39055D01*
G01X11840Y39062D01*
G01X11831Y39068D01*
G01X11822Y39074D01*
G01X11814Y39080D01*
G01X11804Y39085D01*
G01X11795Y39090D01*
G01X11786Y39094D01*
G01X11776Y39098D01*
G01X11766Y39102D01*
G01X11756Y39105D01*
G01X11746Y39108D01*
G01X11736Y39110D01*
G01X11725Y39112D01*
G01X11715Y39114D01*
G01X11704Y39115D01*
G01X11694Y39115D01*
G01X11684Y39116D01*
G01X10160Y39116D01*
G01X10149Y39115D01*
G01X10139Y39115D01*
G01X10128Y39114D01*
G01X10118Y39112D01*
G01X10107Y39110D01*
G01X10097Y39108D01*
G01X10087Y39105D01*
G01X10077Y39102D01*
G01X10067Y39098D01*
G01X10057Y39094D01*
G01X10048Y39090D01*
G01X10039Y39085D01*
G01X10029Y39080D01*
G01X10021Y39074D01*
G01X10012Y39068D01*
G01X10003Y39062D01*
G01X9995Y39055D01*
G01X9987Y39048D01*
G01X9980Y39041D01*
G01X9973Y39034D01*
G01X9966Y39026D01*
G01X9959Y39018D01*
G01X9953Y39009D01*
G01X9947Y39000D01*
G01X9941Y38992D01*
G01X9936Y38982D01*
G01X9931Y38973D01*
G01X9927Y38964D01*
G01X9923Y38954D01*
G01X9919Y38944D01*
G01X9916Y38934D01*
G01X9913Y38924D01*
G01X9911Y38914D01*
G01X9909Y38903D01*
G01X9907Y38893D01*
G01X9906Y38882D01*
G01X9906Y38872D01*
G01X9906Y38862D01*
G01X9906Y37338D01*
G01X9906Y37327D01*
G01X9906Y37317D01*
G01X9907Y37306D01*
G01X9909Y37296D01*
G01X9911Y37285D01*
G01X9913Y37275D01*
G01X9916Y37265D01*
G01X9919Y37255D01*
G01X9923Y37245D01*
G01X9927Y37235D01*
G01X9931Y37226D01*
G01X9936Y37217D01*
G01X9941Y37207D01*
G01X9947Y37199D01*
G01X9953Y37190D01*
G01X9959Y37181D01*
G01X9966Y37173D01*
G01X9973Y37165D01*
G01X9980Y37158D01*
G01X9987Y37151D01*
G01X9995Y37144D01*
G01X10003Y37137D01*
G01X10012Y37131D01*
G01X10021Y37125D01*
G01X10029Y37119D01*
G01X10039Y37114D01*
G01X10048Y37109D01*
G01X10057Y37105D01*
G01X10067Y37101D01*
G01X10077Y37097D01*
G01X10087Y37094D01*
G01X10097Y37091D01*
G01X10107Y37089D01*
G01X10118Y37087D01*
G01X10128Y37085D01*
G01X10139Y37084D01*
G01X10149Y37084D01*
G01X10160Y37084D01*
G01X11684Y37084D01*
G01X11691Y37084D01*
G01X7877Y33270D01*
G01X7868Y33261D01*
G01X7860Y33251D01*
G01X7852Y33242D01*
G01X7844Y33232D01*
G01X7837Y33221D01*
G01X7830Y33211D01*
G01X7823Y33200D01*
G01X7817Y33189D01*
G01X7811Y33178D01*
G01X7805Y33167D01*
G01X7800Y33155D01*
G01X7796Y33143D01*
G01X7792Y33131D01*
G01X7788Y33119D01*
G01X7784Y33107D01*
G01X7782Y33095D01*
G01X7779Y33082D01*
G01X7777Y33070D01*
G01X7776Y33057D01*
G01X7774Y33045D01*
G01X7774Y33032D01*
G01X7774Y33020D01*
G01X7774Y24825D01*
G01X7753Y24808D01*
G01X7712Y24769D01*
G01X7676Y24726D01*
G01X7644Y24679D01*
G01X7617Y24629D01*
G01X7595Y24577D01*
G01X7578Y24523D01*
G01X7567Y24468D01*
G01X7562Y24412D01*
G01X7562Y24355D01*
G01X7567Y24299D01*
G01X7578Y24244D01*
G01X7595Y24190D01*
G01X7617Y24138D01*
G01X7644Y24088D01*
G01X7676Y24041D01*
G01X7712Y23998D01*
G01X7753Y23959D01*
G01X7797Y23924D01*
G01X7844Y23893D01*
G01X7894Y23867D01*
G01X7947Y23846D01*
G01X8001Y23831D01*
G01X8057Y23821D01*
G37*
G36*
G01X2159Y26543D02*
G01X2159Y25908D01*
G01X2540Y25908D01*
G01X2550Y25908D01*
G01X2560Y25908D01*
G01X2571Y25909D01*
G01X2581Y25911D01*
G01X2592Y25913D01*
G01X2602Y25915D01*
G01X2612Y25918D01*
G01X2622Y25921D01*
G01X2632Y25925D01*
G01X2642Y25929D01*
G01X2651Y25933D01*
G01X2660Y25938D01*
G01X2670Y25943D01*
G01X2678Y25949D01*
G01X2687Y25955D01*
G01X2696Y25961D01*
G01X2704Y25968D01*
G01X2712Y25975D01*
G01X2719Y25982D01*
G01X2726Y25989D01*
G01X2733Y25997D01*
G01X2740Y26005D01*
G01X2746Y26014D01*
G01X2752Y26023D01*
G01X2758Y26031D01*
G01X2763Y26041D01*
G01X2768Y26050D01*
G01X2772Y26059D01*
G01X2776Y26069D01*
G01X2780Y26079D01*
G01X2783Y26089D01*
G01X2786Y26099D01*
G01X2788Y26109D01*
G01X2790Y26120D01*
G01X2792Y26130D01*
G01X2793Y26141D01*
G01X2793Y26151D01*
G01X2794Y26162D01*
G01X2794Y26543D01*
G01X2159Y26543D01*
G37*
G36*
G01X1005Y25908D02*
G01X1016Y25908D01*
G01X1397Y25908D01*
G01X1397Y26543D01*
G01X762Y26543D01*
G01X762Y26162D01*
G01X762Y26151D01*
G01X762Y26141D01*
G01X763Y26130D01*
G01X765Y26120D01*
G01X767Y26109D01*
G01X769Y26099D01*
G01X772Y26089D01*
G01X775Y26079D01*
G01X779Y26069D01*
G01X783Y26059D01*
G01X787Y26050D01*
G01X792Y26041D01*
G01X797Y26031D01*
G01X803Y26023D01*
G01X809Y26014D01*
G01X815Y26005D01*
G01X822Y25997D01*
G01X829Y25989D01*
G01X836Y25982D01*
G01X843Y25975D01*
G01X851Y25968D01*
G01X859Y25961D01*
G01X868Y25955D01*
G01X877Y25949D01*
G01X885Y25943D01*
G01X895Y25938D01*
G01X904Y25933D01*
G01X913Y25929D01*
G01X923Y25925D01*
G01X933Y25921D01*
G01X943Y25918D01*
G01X953Y25915D01*
G01X963Y25913D01*
G01X974Y25911D01*
G01X984Y25909D01*
G01X995Y25908D01*
G01X1005Y25908D01*
G37*
G36*
G01X2159Y27940D02*
G01X2159Y27305D01*
G01X2794Y27305D01*
G01X2794Y27686D01*
G01X2793Y27696D01*
G01X2793Y27706D01*
G01X2792Y27717D01*
G01X2790Y27727D01*
G01X2788Y27738D01*
G01X2786Y27748D01*
G01X2783Y27758D01*
G01X2780Y27768D01*
G01X2776Y27778D01*
G01X2772Y27788D01*
G01X2768Y27797D01*
G01X2763Y27806D01*
G01X2758Y27816D01*
G01X2752Y27824D01*
G01X2746Y27833D01*
G01X2740Y27842D01*
G01X2733Y27850D01*
G01X2726Y27858D01*
G01X2719Y27865D01*
G01X2712Y27872D01*
G01X2704Y27879D01*
G01X2696Y27886D01*
G01X2687Y27892D01*
G01X2678Y27898D01*
G01X2670Y27904D01*
G01X2660Y27909D01*
G01X2651Y27914D01*
G01X2642Y27918D01*
G01X2632Y27922D01*
G01X2622Y27926D01*
G01X2612Y27929D01*
G01X2602Y27932D01*
G01X2592Y27934D01*
G01X2581Y27936D01*
G01X2571Y27938D01*
G01X2560Y27939D01*
G01X2550Y27939D01*
G01X2540Y27940D01*
G01X2550Y27940D01*
G01X2560Y27940D01*
G01X2571Y27941D01*
G01X2581Y27943D01*
G01X2592Y27945D01*
G01X2602Y27947D01*
G01X2612Y27950D01*
G01X2622Y27953D01*
G01X2632Y27957D01*
G01X2642Y27961D01*
G01X2651Y27965D01*
G01X2660Y27970D01*
G01X2670Y27975D01*
G01X2678Y27981D01*
G01X2687Y27987D01*
G01X2696Y27993D01*
G01X2704Y28000D01*
G01X2712Y28007D01*
G01X2719Y28014D01*
G01X2726Y28021D01*
G01X2733Y28029D01*
G01X2740Y28037D01*
G01X2746Y28046D01*
G01X2752Y28055D01*
G01X2758Y28063D01*
G01X2763Y28073D01*
G01X2768Y28082D01*
G01X2772Y28091D01*
G01X2776Y28101D01*
G01X2780Y28111D01*
G01X2783Y28121D01*
G01X2786Y28131D01*
G01X2788Y28141D01*
G01X2790Y28152D01*
G01X2792Y28162D01*
G01X2793Y28173D01*
G01X2793Y28183D01*
G01X2794Y28194D01*
G01X2794Y29718D01*
G01X2793Y29728D01*
G01X2793Y29738D01*
G01X2792Y29749D01*
G01X2790Y29759D01*
G01X2788Y29770D01*
G01X2786Y29780D01*
G01X2783Y29790D01*
G01X2780Y29800D01*
G01X2776Y29810D01*
G01X2772Y29820D01*
G01X2768Y29829D01*
G01X2763Y29838D01*
G01X2758Y29848D01*
G01X2752Y29856D01*
G01X2746Y29865D01*
G01X2740Y29874D01*
G01X2733Y29882D01*
G01X2726Y29890D01*
G01X2719Y29897D01*
G01X2712Y29904D01*
G01X2704Y29911D01*
G01X2696Y29918D01*
G01X2687Y29924D01*
G01X2678Y29930D01*
G01X2670Y29936D01*
G01X2660Y29941D01*
G01X2651Y29946D01*
G01X2642Y29950D01*
G01X2632Y29954D01*
G01X2622Y29958D01*
G01X2612Y29961D01*
G01X2602Y29964D01*
G01X2592Y29966D01*
G01X2581Y29968D01*
G01X2571Y29970D01*
G01X2560Y29971D01*
G01X2550Y29971D01*
G01X2540Y29972D01*
G01X2550Y29972D01*
G01X2560Y29972D01*
G01X2571Y29973D01*
G01X2581Y29975D01*
G01X2592Y29977D01*
G01X2602Y29979D01*
G01X2612Y29982D01*
G01X2622Y29985D01*
G01X2632Y29989D01*
G01X2642Y29993D01*
G01X2651Y29997D01*
G01X2660Y30002D01*
G01X2670Y30007D01*
G01X2678Y30013D01*
G01X2687Y30019D01*
G01X2696Y30025D01*
G01X2704Y30032D01*
G01X2712Y30039D01*
G01X2719Y30046D01*
G01X2726Y30053D01*
G01X2733Y30061D01*
G01X2740Y30069D01*
G01X2746Y30078D01*
G01X2752Y30087D01*
G01X2758Y30095D01*
G01X2763Y30105D01*
G01X2768Y30114D01*
G01X2772Y30123D01*
G01X2776Y30133D01*
G01X2780Y30143D01*
G01X2783Y30153D01*
G01X2786Y30163D01*
G01X2788Y30173D01*
G01X2790Y30184D01*
G01X2792Y30194D01*
G01X2793Y30205D01*
G01X2793Y30215D01*
G01X2794Y30226D01*
G01X2794Y30607D01*
G01X2159Y30607D01*
G01X2159Y29972D01*
G01X1397Y29972D01*
G01X1397Y30607D01*
G01X762Y30607D01*
G01X762Y30226D01*
G01X762Y30215D01*
G01X762Y30205D01*
G01X763Y30194D01*
G01X765Y30184D01*
G01X767Y30173D01*
G01X769Y30163D01*
G01X772Y30153D01*
G01X775Y30143D01*
G01X779Y30133D01*
G01X783Y30123D01*
G01X787Y30114D01*
G01X792Y30105D01*
G01X797Y30095D01*
G01X803Y30087D01*
G01X809Y30078D01*
G01X815Y30069D01*
G01X822Y30061D01*
G01X829Y30053D01*
G01X836Y30046D01*
G01X843Y30039D01*
G01X851Y30032D01*
G01X859Y30025D01*
G01X868Y30019D01*
G01X877Y30013D01*
G01X885Y30007D01*
G01X895Y30002D01*
G01X904Y29997D01*
G01X913Y29993D01*
G01X923Y29989D01*
G01X933Y29985D01*
G01X943Y29982D01*
G01X953Y29979D01*
G01X963Y29977D01*
G01X974Y29975D01*
G01X984Y29973D01*
G01X995Y29972D01*
G01X1005Y29972D01*
G01X1016Y29972D01*
G01X1005Y29971D01*
G01X995Y29971D01*
G01X984Y29970D01*
G01X974Y29968D01*
G01X963Y29966D01*
G01X953Y29964D01*
G01X943Y29961D01*
G01X933Y29958D01*
G01X923Y29954D01*
G01X913Y29950D01*
G01X904Y29946D01*
G01X895Y29941D01*
G01X885Y29936D01*
G01X877Y29930D01*
G01X868Y29924D01*
G01X859Y29918D01*
G01X851Y29911D01*
G01X843Y29904D01*
G01X836Y29897D01*
G01X829Y29890D01*
G01X822Y29882D01*
G01X815Y29874D01*
G01X809Y29865D01*
G01X803Y29856D01*
G01X797Y29848D01*
G01X792Y29838D01*
G01X787Y29829D01*
G01X783Y29820D01*
G01X779Y29810D01*
G01X775Y29800D01*
G01X772Y29790D01*
G01X769Y29780D01*
G01X767Y29770D01*
G01X765Y29759D01*
G01X763Y29749D01*
G01X762Y29738D01*
G01X762Y29728D01*
G01X762Y29718D01*
G01X762Y28194D01*
G01X762Y28183D01*
G01X762Y28173D01*
G01X763Y28162D01*
G01X765Y28152D01*
G01X767Y28141D01*
G01X769Y28131D01*
G01X772Y28121D01*
G01X775Y28111D01*
G01X779Y28101D01*
G01X783Y28091D01*
G01X787Y28082D01*
G01X792Y28073D01*
G01X797Y28063D01*
G01X803Y28055D01*
G01X809Y28046D01*
G01X815Y28037D01*
G01X822Y28029D01*
G01X829Y28021D01*
G01X836Y28014D01*
G01X843Y28007D01*
G01X851Y28000D01*
G01X859Y27993D01*
G01X868Y27987D01*
G01X877Y27981D01*
G01X885Y27975D01*
G01X895Y27970D01*
G01X904Y27965D01*
G01X913Y27961D01*
G01X923Y27957D01*
G01X933Y27953D01*
G01X943Y27950D01*
G01X953Y27947D01*
G01X963Y27945D01*
G01X974Y27943D01*
G01X984Y27941D01*
G01X995Y27940D01*
G01X1005Y27940D01*
G01X1016Y27940D01*
G01X1005Y27939D01*
G01X995Y27939D01*
G01X984Y27938D01*
G01X974Y27936D01*
G01X963Y27934D01*
G01X953Y27932D01*
G01X943Y27929D01*
G01X933Y27926D01*
G01X923Y27922D01*
G01X913Y27918D01*
G01X904Y27914D01*
G01X895Y27909D01*
G01X885Y27904D01*
G01X877Y27898D01*
G01X868Y27892D01*
G01X859Y27886D01*
G01X851Y27879D01*
G01X843Y27872D01*
G01X836Y27865D01*
G01X829Y27858D01*
G01X822Y27850D01*
G01X815Y27842D01*
G01X809Y27833D01*
G01X803Y27824D01*
G01X797Y27816D01*
G01X792Y27806D01*
G01X787Y27797D01*
G01X783Y27788D01*
G01X779Y27778D01*
G01X775Y27768D01*
G01X772Y27758D01*
G01X769Y27748D01*
G01X767Y27738D01*
G01X765Y27727D01*
G01X763Y27717D01*
G01X762Y27706D01*
G01X762Y27696D01*
G01X762Y27686D01*
G01X762Y27305D01*
G01X1397Y27305D01*
G01X1397Y27940D01*
G01X2159Y27940D01*
G37*
G36*
G01X39243Y28702D02*
G01X39243Y28067D01*
G01X39878Y28067D01*
G01X39878Y28448D01*
G01X39877Y28458D01*
G01X39877Y28468D01*
G01X39876Y28479D01*
G01X39874Y28489D01*
G01X39872Y28500D01*
G01X39870Y28510D01*
G01X39867Y28520D01*
G01X39864Y28530D01*
G01X39860Y28540D01*
G01X39856Y28550D01*
G01X39852Y28559D01*
G01X39847Y28568D01*
G01X39842Y28578D01*
G01X39836Y28586D01*
G01X39830Y28595D01*
G01X39824Y28604D01*
G01X39817Y28612D01*
G01X39810Y28620D01*
G01X39803Y28627D01*
G01X39796Y28634D01*
G01X39788Y28641D01*
G01X39780Y28648D01*
G01X39771Y28654D01*
G01X39762Y28660D01*
G01X39754Y28666D01*
G01X39744Y28671D01*
G01X39735Y28676D01*
G01X39726Y28680D01*
G01X39716Y28684D01*
G01X39706Y28688D01*
G01X39696Y28691D01*
G01X39686Y28694D01*
G01X39676Y28696D01*
G01X39665Y28698D01*
G01X39655Y28700D01*
G01X39644Y28701D01*
G01X39634Y28701D01*
G01X39624Y28702D01*
G01X39243Y28702D01*
G37*
G36*
G01X2159Y32004D02*
G01X2159Y31369D01*
G01X2794Y31369D01*
G01X2794Y31750D01*
G01X2793Y31760D01*
G01X2793Y31770D01*
G01X2792Y31781D01*
G01X2790Y31791D01*
G01X2788Y31802D01*
G01X2786Y31812D01*
G01X2783Y31822D01*
G01X2780Y31832D01*
G01X2776Y31842D01*
G01X2772Y31852D01*
G01X2768Y31861D01*
G01X2763Y31870D01*
G01X2758Y31880D01*
G01X2752Y31888D01*
G01X2746Y31897D01*
G01X2740Y31906D01*
G01X2733Y31914D01*
G01X2726Y31922D01*
G01X2719Y31929D01*
G01X2712Y31936D01*
G01X2704Y31943D01*
G01X2696Y31950D01*
G01X2687Y31956D01*
G01X2678Y31962D01*
G01X2670Y31968D01*
G01X2660Y31973D01*
G01X2651Y31978D01*
G01X2642Y31982D01*
G01X2632Y31986D01*
G01X2622Y31990D01*
G01X2612Y31993D01*
G01X2602Y31996D01*
G01X2592Y31998D01*
G01X2581Y32000D01*
G01X2571Y32002D01*
G01X2560Y32003D01*
G01X2550Y32003D01*
G01X2540Y32004D01*
G01X2550Y32004D01*
G01X2560Y32004D01*
G01X2571Y32005D01*
G01X2581Y32007D01*
G01X2592Y32009D01*
G01X2602Y32011D01*
G01X2612Y32014D01*
G01X2622Y32017D01*
G01X2632Y32021D01*
G01X2642Y32025D01*
G01X2651Y32029D01*
G01X2660Y32034D01*
G01X2670Y32039D01*
G01X2678Y32045D01*
G01X2687Y32051D01*
G01X2696Y32057D01*
G01X2704Y32064D01*
G01X2712Y32071D01*
G01X2719Y32078D01*
G01X2726Y32085D01*
G01X2733Y32093D01*
G01X2740Y32101D01*
G01X2746Y32110D01*
G01X2752Y32119D01*
G01X2758Y32127D01*
G01X2763Y32137D01*
G01X2768Y32146D01*
G01X2772Y32155D01*
G01X2776Y32165D01*
G01X2780Y32175D01*
G01X2783Y32185D01*
G01X2786Y32195D01*
G01X2788Y32205D01*
G01X2790Y32216D01*
G01X2792Y32226D01*
G01X2793Y32237D01*
G01X2793Y32247D01*
G01X2794Y32258D01*
G01X2794Y33782D01*
G01X2793Y33792D01*
G01X2793Y33802D01*
G01X2792Y33813D01*
G01X2790Y33823D01*
G01X2788Y33834D01*
G01X2786Y33844D01*
G01X2783Y33854D01*
G01X2780Y33864D01*
G01X2776Y33874D01*
G01X2772Y33884D01*
G01X2768Y33893D01*
G01X2763Y33902D01*
G01X2758Y33912D01*
G01X2752Y33920D01*
G01X2746Y33929D01*
G01X2740Y33938D01*
G01X2733Y33946D01*
G01X2726Y33954D01*
G01X2719Y33961D01*
G01X2712Y33968D01*
G01X2704Y33975D01*
G01X2696Y33982D01*
G01X2687Y33988D01*
G01X2678Y33994D01*
G01X2670Y34000D01*
G01X2660Y34005D01*
G01X2651Y34010D01*
G01X2642Y34014D01*
G01X2632Y34018D01*
G01X2622Y34022D01*
G01X2612Y34025D01*
G01X2602Y34028D01*
G01X2592Y34030D01*
G01X2581Y34032D01*
G01X2571Y34034D01*
G01X2560Y34035D01*
G01X2550Y34035D01*
G01X2540Y34036D01*
G01X1016Y34036D01*
G01X1005Y34035D01*
G01X995Y34035D01*
G01X984Y34034D01*
G01X974Y34032D01*
G01X963Y34030D01*
G01X953Y34028D01*
G01X943Y34025D01*
G01X933Y34022D01*
G01X923Y34018D01*
G01X913Y34014D01*
G01X904Y34010D01*
G01X895Y34005D01*
G01X885Y34000D01*
G01X877Y33994D01*
G01X868Y33988D01*
G01X859Y33982D01*
G01X851Y33975D01*
G01X843Y33968D01*
G01X836Y33961D01*
G01X829Y33954D01*
G01X822Y33946D01*
G01X815Y33938D01*
G01X809Y33929D01*
G01X803Y33920D01*
G01X797Y33912D01*
G01X792Y33902D01*
G01X787Y33893D01*
G01X783Y33884D01*
G01X779Y33874D01*
G01X775Y33864D01*
G01X772Y33854D01*
G01X769Y33844D01*
G01X767Y33834D01*
G01X765Y33823D01*
G01X763Y33813D01*
G01X762Y33802D01*
G01X762Y33792D01*
G01X762Y33782D01*
G01X762Y32258D01*
G01X762Y32247D01*
G01X762Y32237D01*
G01X763Y32226D01*
G01X765Y32216D01*
G01X767Y32205D01*
G01X769Y32195D01*
G01X772Y32185D01*
G01X775Y32175D01*
G01X779Y32165D01*
G01X783Y32155D01*
G01X787Y32146D01*
G01X792Y32137D01*
G01X797Y32127D01*
G01X803Y32119D01*
G01X809Y32110D01*
G01X815Y32101D01*
G01X822Y32093D01*
G01X829Y32085D01*
G01X836Y32078D01*
G01X843Y32071D01*
G01X851Y32064D01*
G01X859Y32057D01*
G01X868Y32051D01*
G01X877Y32045D01*
G01X885Y32039D01*
G01X895Y32034D01*
G01X904Y32029D01*
G01X913Y32025D01*
G01X923Y32021D01*
G01X933Y32017D01*
G01X943Y32014D01*
G01X953Y32011D01*
G01X963Y32009D01*
G01X974Y32007D01*
G01X984Y32005D01*
G01X995Y32004D01*
G01X1005Y32004D01*
G01X1016Y32004D01*
G01X1005Y32003D01*
G01X995Y32003D01*
G01X984Y32002D01*
G01X974Y32000D01*
G01X963Y31998D01*
G01X953Y31996D01*
G01X943Y31993D01*
G01X933Y31990D01*
G01X923Y31986D01*
G01X913Y31982D01*
G01X904Y31978D01*
G01X895Y31973D01*
G01X885Y31968D01*
G01X877Y31962D01*
G01X868Y31956D01*
G01X859Y31950D01*
G01X851Y31943D01*
G01X843Y31936D01*
G01X836Y31929D01*
G01X829Y31922D01*
G01X822Y31914D01*
G01X815Y31906D01*
G01X809Y31897D01*
G01X803Y31888D01*
G01X797Y31880D01*
G01X792Y31870D01*
G01X787Y31861D01*
G01X783Y31852D01*
G01X779Y31842D01*
G01X775Y31832D01*
G01X772Y31822D01*
G01X769Y31812D01*
G01X767Y31802D01*
G01X765Y31791D01*
G01X763Y31781D01*
G01X762Y31770D01*
G01X762Y31760D01*
G01X762Y31750D01*
G01X762Y31369D01*
G01X1397Y31369D01*
G01X1397Y32004D01*
G01X2159Y32004D01*
G37*
G36*
G01X35583Y33717D02*
G01X35767Y33704D01*
G01X35952Y33708D01*
G01X36136Y33731D01*
G01X36316Y33772D01*
G01X36492Y33831D01*
G01X36660Y33907D01*
G01X36821Y34000D01*
G01X36971Y34108D01*
G01X37110Y34230D01*
G01X37236Y34366D01*
G01X37347Y34514D01*
G01X37444Y34672D01*
G01X37524Y34838D01*
G01X37588Y35012D01*
G01X37633Y35192D01*
G01X37661Y35375D01*
G01X37670Y35560D01*
G01X37661Y35744D01*
G01X37633Y35927D01*
G01X37588Y36107D01*
G01X37524Y36281D01*
G01X37444Y36447D01*
G01X37347Y36605D01*
G01X37236Y36753D01*
G01X37110Y36889D01*
G01X36971Y37011D01*
G01X36821Y37119D01*
G01X36660Y37212D01*
G01X36492Y37288D01*
G01X36316Y37347D01*
G01X36136Y37388D01*
G01X35952Y37411D01*
G01X35767Y37415D01*
G01X35583Y37402D01*
G01X35400Y37369D01*
G01X35222Y37319D01*
G01X35050Y37252D01*
G01X34885Y37167D01*
G01X34730Y37067D01*
G01X34585Y36951D01*
G01X34453Y36822D01*
G01X34334Y36680D01*
G01X34229Y36528D01*
G01X34141Y36365D01*
G01X34069Y36194D01*
G01X34014Y36018D01*
G01X33978Y35836D01*
G01X33959Y35652D01*
G01X33959Y35467D01*
G01X33978Y35283D01*
G01X34014Y35101D01*
G01X34069Y34925D01*
G01X34141Y34754D01*
G01X34229Y34591D01*
G01X34334Y34439D01*
G01X34453Y34297D01*
G01X34585Y34168D01*
G01X34730Y34052D01*
G01X34885Y33952D01*
G01X35050Y33867D01*
G01X35222Y33800D01*
G01X35400Y33750D01*
G01X35583Y33717D01*
G37*
G36*
G01X4849Y33717D02*
G01X5033Y33704D01*
G01X5218Y33708D01*
G01X5402Y33731D01*
G01X5582Y33772D01*
G01X5758Y33831D01*
G01X5926Y33907D01*
G01X6087Y34000D01*
G01X6237Y34108D01*
G01X6376Y34230D01*
G01X6502Y34366D01*
G01X6613Y34514D01*
G01X6710Y34672D01*
G01X6790Y34838D01*
G01X6854Y35012D01*
G01X6899Y35192D01*
G01X6927Y35375D01*
G01X6936Y35560D01*
G01X6927Y35744D01*
G01X6899Y35927D01*
G01X6854Y36107D01*
G01X6790Y36281D01*
G01X6710Y36447D01*
G01X6613Y36605D01*
G01X6502Y36753D01*
G01X6376Y36889D01*
G01X6237Y37011D01*
G01X6087Y37119D01*
G01X5926Y37212D01*
G01X5758Y37288D01*
G01X5582Y37347D01*
G01X5402Y37388D01*
G01X5218Y37411D01*
G01X5033Y37415D01*
G01X4849Y37402D01*
G01X4666Y37369D01*
G01X4488Y37319D01*
G01X4316Y37252D01*
G01X4151Y37167D01*
G01X3996Y37067D01*
G01X3851Y36951D01*
G01X3719Y36822D01*
G01X3600Y36680D01*
G01X3495Y36528D01*
G01X3407Y36365D01*
G01X3335Y36194D01*
G01X3280Y36018D01*
G01X3244Y35836D01*
G01X3225Y35652D01*
G01X3225Y35467D01*
G01X3244Y35283D01*
G01X3280Y35101D01*
G01X3335Y34925D01*
G01X3407Y34754D01*
G01X3495Y34591D01*
G01X3600Y34439D01*
G01X3719Y34297D01*
G01X3851Y34168D01*
G01X3996Y34052D01*
G01X4151Y33952D01*
G01X4316Y33867D01*
G01X4488Y33800D01*
G01X4666Y33750D01*
G01X4849Y33717D01*
G37*
G36*
G01X19547Y34036D02*
G01X19558Y34036D01*
G01X21082Y34036D01*
G01X21092Y34036D01*
G01X21102Y34036D01*
G01X21113Y34037D01*
G01X21123Y34039D01*
G01X21134Y34041D01*
G01X21144Y34043D01*
G01X21154Y34046D01*
G01X21164Y34049D01*
G01X21174Y34053D01*
G01X21184Y34057D01*
G01X21193Y34061D01*
G01X21202Y34066D01*
G01X21212Y34071D01*
G01X21220Y34077D01*
G01X21229Y34083D01*
G01X21238Y34089D01*
G01X21246Y34096D01*
G01X21254Y34103D01*
G01X21261Y34110D01*
G01X21268Y34117D01*
G01X21275Y34125D01*
G01X21282Y34133D01*
G01X21288Y34142D01*
G01X21294Y34151D01*
G01X21300Y34159D01*
G01X21305Y34169D01*
G01X21310Y34178D01*
G01X21314Y34187D01*
G01X21318Y34197D01*
G01X21322Y34207D01*
G01X21325Y34217D01*
G01X21328Y34227D01*
G01X21330Y34237D01*
G01X21332Y34248D01*
G01X21334Y34258D01*
G01X21335Y34269D01*
G01X21335Y34279D01*
G01X21336Y34290D01*
G01X21336Y35814D01*
G01X21335Y35824D01*
G01X21335Y35834D01*
G01X21334Y35845D01*
G01X21332Y35855D01*
G01X21330Y35866D01*
G01X21328Y35876D01*
G01X21325Y35886D01*
G01X21322Y35896D01*
G01X21318Y35906D01*
G01X21314Y35916D01*
G01X21310Y35925D01*
G01X21305Y35934D01*
G01X21300Y35944D01*
G01X21294Y35952D01*
G01X21288Y35961D01*
G01X21282Y35970D01*
G01X21275Y35978D01*
G01X21268Y35986D01*
G01X21261Y35993D01*
G01X21254Y36000D01*
G01X21246Y36007D01*
G01X21238Y36014D01*
G01X21229Y36020D01*
G01X21220Y36026D01*
G01X21212Y36032D01*
G01X21202Y36037D01*
G01X21193Y36042D01*
G01X21184Y36046D01*
G01X21174Y36050D01*
G01X21164Y36054D01*
G01X21154Y36057D01*
G01X21144Y36060D01*
G01X21134Y36062D01*
G01X21123Y36064D01*
G01X21113Y36066D01*
G01X21102Y36067D01*
G01X21092Y36067D01*
G01X21082Y36068D01*
G01X19558Y36068D01*
G01X19547Y36067D01*
G01X19537Y36067D01*
G01X19526Y36066D01*
G01X19516Y36064D01*
G01X19505Y36062D01*
G01X19495Y36060D01*
G01X19485Y36057D01*
G01X19475Y36054D01*
G01X19465Y36050D01*
G01X19455Y36046D01*
G01X19446Y36042D01*
G01X19437Y36037D01*
G01X19427Y36032D01*
G01X19419Y36026D01*
G01X19410Y36020D01*
G01X19401Y36014D01*
G01X19393Y36007D01*
G01X19385Y36000D01*
G01X19378Y35993D01*
G01X19371Y35986D01*
G01X19364Y35978D01*
G01X19357Y35970D01*
G01X19351Y35961D01*
G01X19345Y35952D01*
G01X19339Y35944D01*
G01X19334Y35934D01*
G01X19329Y35925D01*
G01X19325Y35916D01*
G01X19321Y35906D01*
G01X19317Y35896D01*
G01X19314Y35886D01*
G01X19311Y35876D01*
G01X19309Y35866D01*
G01X19307Y35855D01*
G01X19305Y35845D01*
G01X19304Y35834D01*
G01X19304Y35824D01*
G01X19304Y35814D01*
G01X19304Y34290D01*
G01X19304Y34279D01*
G01X19304Y34269D01*
G01X19305Y34258D01*
G01X19307Y34248D01*
G01X19309Y34237D01*
G01X19311Y34227D01*
G01X19314Y34217D01*
G01X19317Y34207D01*
G01X19321Y34197D01*
G01X19325Y34187D01*
G01X19329Y34178D01*
G01X19334Y34169D01*
G01X19339Y34159D01*
G01X19345Y34151D01*
G01X19351Y34142D01*
G01X19357Y34133D01*
G01X19364Y34125D01*
G01X19371Y34117D01*
G01X19378Y34110D01*
G01X19385Y34103D01*
G01X19393Y34096D01*
G01X19401Y34089D01*
G01X19410Y34083D01*
G01X19419Y34077D01*
G01X19427Y34071D01*
G01X19437Y34066D01*
G01X19446Y34061D01*
G01X19455Y34057D01*
G01X19465Y34053D01*
G01X19475Y34049D01*
G01X19485Y34046D01*
G01X19495Y34043D01*
G01X19505Y34041D01*
G01X19516Y34039D01*
G01X19526Y34037D01*
G01X19537Y34036D01*
G01X19547Y34036D01*
G37*
G36*
G01X17261Y34036D02*
G01X17272Y34036D01*
G01X18796Y34036D01*
G01X18806Y34036D01*
G01X18816Y34036D01*
G01X18827Y34037D01*
G01X18837Y34039D01*
G01X18848Y34041D01*
G01X18858Y34043D01*
G01X18868Y34046D01*
G01X18878Y34049D01*
G01X18888Y34053D01*
G01X18898Y34057D01*
G01X18907Y34061D01*
G01X18916Y34066D01*
G01X18926Y34071D01*
G01X18934Y34077D01*
G01X18943Y34083D01*
G01X18952Y34089D01*
G01X18960Y34096D01*
G01X18968Y34103D01*
G01X18975Y34110D01*
G01X18982Y34117D01*
G01X18989Y34125D01*
G01X18996Y34133D01*
G01X19002Y34142D01*
G01X19008Y34151D01*
G01X19014Y34159D01*
G01X19019Y34169D01*
G01X19024Y34178D01*
G01X19028Y34187D01*
G01X19032Y34197D01*
G01X19036Y34207D01*
G01X19039Y34217D01*
G01X19042Y34227D01*
G01X19044Y34237D01*
G01X19046Y34248D01*
G01X19048Y34258D01*
G01X19049Y34269D01*
G01X19049Y34279D01*
G01X19050Y34290D01*
G01X19050Y35814D01*
G01X19049Y35824D01*
G01X19049Y35834D01*
G01X19048Y35845D01*
G01X19046Y35855D01*
G01X19044Y35866D01*
G01X19042Y35876D01*
G01X19039Y35886D01*
G01X19036Y35896D01*
G01X19032Y35906D01*
G01X19028Y35916D01*
G01X19024Y35925D01*
G01X19019Y35934D01*
G01X19014Y35944D01*
G01X19008Y35952D01*
G01X19002Y35961D01*
G01X18996Y35970D01*
G01X18989Y35978D01*
G01X18982Y35986D01*
G01X18975Y35993D01*
G01X18968Y36000D01*
G01X18960Y36007D01*
G01X18952Y36014D01*
G01X18943Y36020D01*
G01X18934Y36026D01*
G01X18926Y36032D01*
G01X18916Y36037D01*
G01X18907Y36042D01*
G01X18898Y36046D01*
G01X18888Y36050D01*
G01X18878Y36054D01*
G01X18868Y36057D01*
G01X18858Y36060D01*
G01X18848Y36062D01*
G01X18837Y36064D01*
G01X18827Y36066D01*
G01X18816Y36067D01*
G01X18806Y36067D01*
G01X18796Y36068D01*
G01X17272Y36068D01*
G01X17261Y36067D01*
G01X17251Y36067D01*
G01X17240Y36066D01*
G01X17230Y36064D01*
G01X17219Y36062D01*
G01X17209Y36060D01*
G01X17199Y36057D01*
G01X17189Y36054D01*
G01X17179Y36050D01*
G01X17169Y36046D01*
G01X17160Y36042D01*
G01X17151Y36037D01*
G01X17141Y36032D01*
G01X17133Y36026D01*
G01X17124Y36020D01*
G01X17115Y36014D01*
G01X17107Y36007D01*
G01X17099Y36000D01*
G01X17092Y35993D01*
G01X17085Y35986D01*
G01X17078Y35978D01*
G01X17071Y35970D01*
G01X17065Y35961D01*
G01X17059Y35952D01*
G01X17053Y35944D01*
G01X17048Y35934D01*
G01X17043Y35925D01*
G01X17039Y35916D01*
G01X17035Y35906D01*
G01X17031Y35896D01*
G01X17028Y35886D01*
G01X17025Y35876D01*
G01X17023Y35866D01*
G01X17021Y35855D01*
G01X17019Y35845D01*
G01X17018Y35834D01*
G01X17018Y35824D01*
G01X17018Y35814D01*
G01X17018Y34290D01*
G01X17018Y34279D01*
G01X17018Y34269D01*
G01X17019Y34258D01*
G01X17021Y34248D01*
G01X17023Y34237D01*
G01X17025Y34227D01*
G01X17028Y34217D01*
G01X17031Y34207D01*
G01X17035Y34197D01*
G01X17039Y34187D01*
G01X17043Y34178D01*
G01X17048Y34169D01*
G01X17053Y34159D01*
G01X17059Y34151D01*
G01X17065Y34142D01*
G01X17071Y34133D01*
G01X17078Y34125D01*
G01X17085Y34117D01*
G01X17092Y34110D01*
G01X17099Y34103D01*
G01X17107Y34096D01*
G01X17115Y34089D01*
G01X17124Y34083D01*
G01X17133Y34077D01*
G01X17141Y34071D01*
G01X17151Y34066D01*
G01X17160Y34061D01*
G01X17169Y34057D01*
G01X17179Y34053D01*
G01X17189Y34049D01*
G01X17199Y34046D01*
G01X17209Y34043D01*
G01X17219Y34041D01*
G01X17230Y34039D01*
G01X17240Y34037D01*
G01X17251Y34036D01*
G01X17261Y34036D01*
G37*
G36*
G01X2159Y34925D02*
G01X2159Y34290D01*
G01X2540Y34290D01*
G01X2550Y34290D01*
G01X2560Y34290D01*
G01X2571Y34291D01*
G01X2581Y34293D01*
G01X2592Y34295D01*
G01X2602Y34297D01*
G01X2612Y34300D01*
G01X2622Y34303D01*
G01X2632Y34307D01*
G01X2642Y34311D01*
G01X2651Y34315D01*
G01X2660Y34320D01*
G01X2670Y34325D01*
G01X2678Y34331D01*
G01X2687Y34337D01*
G01X2696Y34343D01*
G01X2704Y34350D01*
G01X2712Y34357D01*
G01X2719Y34364D01*
G01X2726Y34371D01*
G01X2733Y34379D01*
G01X2740Y34387D01*
G01X2746Y34396D01*
G01X2752Y34405D01*
G01X2758Y34413D01*
G01X2763Y34423D01*
G01X2768Y34432D01*
G01X2772Y34441D01*
G01X2776Y34451D01*
G01X2780Y34461D01*
G01X2783Y34471D01*
G01X2786Y34481D01*
G01X2788Y34491D01*
G01X2790Y34502D01*
G01X2792Y34512D01*
G01X2793Y34523D01*
G01X2793Y34533D01*
G01X2794Y34544D01*
G01X2794Y34925D01*
G01X2159Y34925D01*
G37*
G36*
G01X1005Y34290D02*
G01X1016Y34290D01*
G01X1397Y34290D01*
G01X1397Y34925D01*
G01X762Y34925D01*
G01X762Y34544D01*
G01X762Y34533D01*
G01X762Y34523D01*
G01X763Y34512D01*
G01X765Y34502D01*
G01X767Y34491D01*
G01X769Y34481D01*
G01X772Y34471D01*
G01X775Y34461D01*
G01X779Y34451D01*
G01X783Y34441D01*
G01X787Y34432D01*
G01X792Y34423D01*
G01X797Y34413D01*
G01X803Y34405D01*
G01X809Y34396D01*
G01X815Y34387D01*
G01X822Y34379D01*
G01X829Y34371D01*
G01X836Y34364D01*
G01X843Y34357D01*
G01X851Y34350D01*
G01X859Y34343D01*
G01X868Y34337D01*
G01X877Y34331D01*
G01X885Y34325D01*
G01X895Y34320D01*
G01X904Y34315D01*
G01X913Y34311D01*
G01X923Y34307D01*
G01X933Y34303D01*
G01X943Y34300D01*
G01X953Y34297D01*
G01X963Y34295D01*
G01X974Y34293D01*
G01X984Y34291D01*
G01X995Y34290D01*
G01X1005Y34290D01*
G37*
G36*
G01X2159Y36322D02*
G01X2159Y35687D01*
G01X2794Y35687D01*
G01X2794Y36068D01*
G01X2793Y36078D01*
G01X2793Y36088D01*
G01X2792Y36099D01*
G01X2790Y36109D01*
G01X2788Y36120D01*
G01X2786Y36130D01*
G01X2783Y36140D01*
G01X2780Y36150D01*
G01X2776Y36160D01*
G01X2772Y36170D01*
G01X2768Y36179D01*
G01X2763Y36188D01*
G01X2758Y36198D01*
G01X2752Y36206D01*
G01X2746Y36215D01*
G01X2740Y36224D01*
G01X2733Y36232D01*
G01X2726Y36240D01*
G01X2719Y36247D01*
G01X2712Y36254D01*
G01X2704Y36261D01*
G01X2696Y36268D01*
G01X2687Y36274D01*
G01X2678Y36280D01*
G01X2670Y36286D01*
G01X2660Y36291D01*
G01X2651Y36296D01*
G01X2642Y36300D01*
G01X2632Y36304D01*
G01X2622Y36308D01*
G01X2612Y36311D01*
G01X2602Y36314D01*
G01X2592Y36316D01*
G01X2581Y36318D01*
G01X2571Y36320D01*
G01X2560Y36321D01*
G01X2550Y36321D01*
G01X2540Y36322D01*
G01X2159Y36322D01*
G37*
G36*
G01X762Y36068D02*
G01X762Y35687D01*
G01X1397Y35687D01*
G01X1397Y36322D01*
G01X1016Y36322D01*
G01X1005Y36321D01*
G01X995Y36321D01*
G01X984Y36320D01*
G01X974Y36318D01*
G01X963Y36316D01*
G01X953Y36314D01*
G01X943Y36311D01*
G01X933Y36308D01*
G01X923Y36304D01*
G01X913Y36300D01*
G01X904Y36296D01*
G01X895Y36291D01*
G01X885Y36286D01*
G01X877Y36280D01*
G01X868Y36274D01*
G01X859Y36268D01*
G01X851Y36261D01*
G01X843Y36254D01*
G01X836Y36247D01*
G01X829Y36240D01*
G01X822Y36232D01*
G01X815Y36224D01*
G01X809Y36215D01*
G01X803Y36206D01*
G01X797Y36198D01*
G01X792Y36188D01*
G01X787Y36179D01*
G01X783Y36170D01*
G01X779Y36160D01*
G01X775Y36150D01*
G01X772Y36140D01*
G01X769Y36130D01*
G01X767Y36120D01*
G01X765Y36109D01*
G01X763Y36099D01*
G01X762Y36088D01*
G01X762Y36078D01*
G01X762Y36068D01*
G37*
G36*
G01X1005Y36576D02*
G01X1016Y36576D01*
G01X2540Y36576D01*
G01X2550Y36576D01*
G01X2560Y36576D01*
G01X2571Y36577D01*
G01X2581Y36579D01*
G01X2592Y36581D01*
G01X2602Y36583D01*
G01X2612Y36586D01*
G01X2622Y36589D01*
G01X2632Y36593D01*
G01X2642Y36597D01*
G01X2651Y36601D01*
G01X2660Y36606D01*
G01X2670Y36611D01*
G01X2678Y36617D01*
G01X2687Y36623D01*
G01X2696Y36629D01*
G01X2704Y36636D01*
G01X2712Y36643D01*
G01X2719Y36650D01*
G01X2726Y36657D01*
G01X2733Y36665D01*
G01X2740Y36673D01*
G01X2746Y36682D01*
G01X2752Y36691D01*
G01X2758Y36699D01*
G01X2763Y36709D01*
G01X2768Y36718D01*
G01X2772Y36727D01*
G01X2776Y36737D01*
G01X2780Y36747D01*
G01X2783Y36757D01*
G01X2786Y36767D01*
G01X2788Y36777D01*
G01X2790Y36788D01*
G01X2792Y36798D01*
G01X2793Y36809D01*
G01X2793Y36819D01*
G01X2794Y36830D01*
G01X2794Y38354D01*
G01X2793Y38364D01*
G01X2793Y38374D01*
G01X2792Y38385D01*
G01X2790Y38395D01*
G01X2788Y38406D01*
G01X2786Y38416D01*
G01X2783Y38426D01*
G01X2780Y38436D01*
G01X2776Y38446D01*
G01X2772Y38456D01*
G01X2768Y38465D01*
G01X2763Y38474D01*
G01X2758Y38484D01*
G01X2752Y38492D01*
G01X2746Y38501D01*
G01X2740Y38510D01*
G01X2733Y38518D01*
G01X2726Y38526D01*
G01X2719Y38533D01*
G01X2712Y38540D01*
G01X2704Y38547D01*
G01X2696Y38554D01*
G01X2687Y38560D01*
G01X2678Y38566D01*
G01X2670Y38572D01*
G01X2660Y38577D01*
G01X2651Y38582D01*
G01X2642Y38586D01*
G01X2632Y38590D01*
G01X2622Y38594D01*
G01X2612Y38597D01*
G01X2602Y38600D01*
G01X2592Y38602D01*
G01X2581Y38604D01*
G01X2571Y38606D01*
G01X2560Y38607D01*
G01X2550Y38607D01*
G01X2540Y38608D01*
G01X1016Y38608D01*
G01X1005Y38607D01*
G01X995Y38607D01*
G01X984Y38606D01*
G01X974Y38604D01*
G01X963Y38602D01*
G01X953Y38600D01*
G01X943Y38597D01*
G01X933Y38594D01*
G01X923Y38590D01*
G01X913Y38586D01*
G01X904Y38582D01*
G01X895Y38577D01*
G01X885Y38572D01*
G01X877Y38566D01*
G01X868Y38560D01*
G01X859Y38554D01*
G01X851Y38547D01*
G01X843Y38540D01*
G01X836Y38533D01*
G01X829Y38526D01*
G01X822Y38518D01*
G01X815Y38510D01*
G01X809Y38501D01*
G01X803Y38492D01*
G01X797Y38484D01*
G01X792Y38474D01*
G01X787Y38465D01*
G01X783Y38456D01*
G01X779Y38446D01*
G01X775Y38436D01*
G01X772Y38426D01*
G01X769Y38416D01*
G01X767Y38406D01*
G01X765Y38395D01*
G01X763Y38385D01*
G01X762Y38374D01*
G01X762Y38364D01*
G01X762Y38354D01*
G01X762Y36830D01*
G01X762Y36819D01*
G01X762Y36809D01*
G01X763Y36798D01*
G01X765Y36788D01*
G01X767Y36777D01*
G01X769Y36767D01*
G01X772Y36757D01*
G01X775Y36747D01*
G01X779Y36737D01*
G01X783Y36727D01*
G01X787Y36718D01*
G01X792Y36709D01*
G01X797Y36699D01*
G01X803Y36691D01*
G01X809Y36682D01*
G01X815Y36673D01*
G01X822Y36665D01*
G01X829Y36657D01*
G01X836Y36650D01*
G01X843Y36643D01*
G01X851Y36636D01*
G01X859Y36629D01*
G01X868Y36623D01*
G01X877Y36617D01*
G01X885Y36611D01*
G01X895Y36606D01*
G01X904Y36601D01*
G01X913Y36597D01*
G01X923Y36593D01*
G01X933Y36589D01*
G01X943Y36586D01*
G01X953Y36583D01*
G01X963Y36581D01*
G01X974Y36579D01*
G01X984Y36577D01*
G01X995Y36576D01*
G01X1005Y36576D01*
G37*
G36*
G01X18415Y37719D02*
G01X18415Y37084D01*
G01X18796Y37084D01*
G01X18806Y37084D01*
G01X18816Y37084D01*
G01X18827Y37085D01*
G01X18837Y37087D01*
G01X18848Y37089D01*
G01X18858Y37091D01*
G01X18868Y37094D01*
G01X18878Y37097D01*
G01X18888Y37101D01*
G01X18898Y37105D01*
G01X18907Y37109D01*
G01X18916Y37114D01*
G01X18926Y37119D01*
G01X18934Y37125D01*
G01X18943Y37131D01*
G01X18952Y37137D01*
G01X18960Y37144D01*
G01X18968Y37151D01*
G01X18975Y37158D01*
G01X18982Y37165D01*
G01X18989Y37173D01*
G01X18996Y37181D01*
G01X19002Y37190D01*
G01X19008Y37199D01*
G01X19014Y37207D01*
G01X19019Y37217D01*
G01X19024Y37226D01*
G01X19028Y37235D01*
G01X19032Y37245D01*
G01X19036Y37255D01*
G01X19039Y37265D01*
G01X19042Y37275D01*
G01X19044Y37285D01*
G01X19046Y37296D01*
G01X19048Y37306D01*
G01X19049Y37317D01*
G01X19049Y37327D01*
G01X19050Y37338D01*
G01X19050Y37719D01*
G01X18415Y37719D01*
G37*
G36*
G01X17261Y37084D02*
G01X17272Y37084D01*
G01X17653Y37084D01*
G01X17653Y37719D01*
G01X17018Y37719D01*
G01X17018Y37338D01*
G01X17018Y37327D01*
G01X17018Y37317D01*
G01X17019Y37306D01*
G01X17021Y37296D01*
G01X17023Y37285D01*
G01X17025Y37275D01*
G01X17028Y37265D01*
G01X17031Y37255D01*
G01X17035Y37245D01*
G01X17039Y37235D01*
G01X17043Y37226D01*
G01X17048Y37217D01*
G01X17053Y37207D01*
G01X17059Y37199D01*
G01X17065Y37190D01*
G01X17071Y37181D01*
G01X17078Y37173D01*
G01X17085Y37165D01*
G01X17092Y37158D01*
G01X17099Y37151D01*
G01X17107Y37144D01*
G01X17115Y37137D01*
G01X17124Y37131D01*
G01X17133Y37125D01*
G01X17141Y37119D01*
G01X17151Y37114D01*
G01X17160Y37109D01*
G01X17169Y37105D01*
G01X17179Y37101D01*
G01X17189Y37097D01*
G01X17199Y37094D01*
G01X17209Y37091D01*
G01X17219Y37089D01*
G01X17230Y37087D01*
G01X17240Y37085D01*
G01X17251Y37084D01*
G01X17261Y37084D01*
G37*
G36*
G01X19547Y37084D02*
G01X19558Y37084D01*
G01X19939Y37084D01*
G01X19939Y37719D01*
G01X19304Y37719D01*
G01X19304Y37338D01*
G01X19304Y37327D01*
G01X19304Y37317D01*
G01X19305Y37306D01*
G01X19307Y37296D01*
G01X19309Y37285D01*
G01X19311Y37275D01*
G01X19314Y37265D01*
G01X19317Y37255D01*
G01X19321Y37245D01*
G01X19325Y37235D01*
G01X19329Y37226D01*
G01X19334Y37217D01*
G01X19339Y37207D01*
G01X19345Y37199D01*
G01X19351Y37190D01*
G01X19357Y37181D01*
G01X19364Y37173D01*
G01X19371Y37165D01*
G01X19378Y37158D01*
G01X19385Y37151D01*
G01X19393Y37144D01*
G01X19401Y37137D01*
G01X19410Y37131D01*
G01X19419Y37125D01*
G01X19427Y37119D01*
G01X19437Y37114D01*
G01X19446Y37109D01*
G01X19455Y37105D01*
G01X19465Y37101D01*
G01X19475Y37097D01*
G01X19485Y37094D01*
G01X19495Y37091D01*
G01X19505Y37089D01*
G01X19516Y37087D01*
G01X19526Y37085D01*
G01X19537Y37084D01*
G01X19547Y37084D01*
G37*
G36*
G01X24765Y37719D02*
G01X24765Y37084D01*
G01X25146Y37084D01*
G01X25156Y37084D01*
G01X25166Y37084D01*
G01X25177Y37085D01*
G01X25187Y37087D01*
G01X25198Y37089D01*
G01X25208Y37091D01*
G01X25218Y37094D01*
G01X25228Y37097D01*
G01X25238Y37101D01*
G01X25248Y37105D01*
G01X25257Y37109D01*
G01X25266Y37114D01*
G01X25276Y37119D01*
G01X25284Y37125D01*
G01X25293Y37131D01*
G01X25302Y37137D01*
G01X25310Y37144D01*
G01X25318Y37151D01*
G01X25325Y37158D01*
G01X25332Y37165D01*
G01X25339Y37173D01*
G01X25346Y37181D01*
G01X25352Y37190D01*
G01X25358Y37199D01*
G01X25364Y37207D01*
G01X25369Y37217D01*
G01X25374Y37226D01*
G01X25378Y37235D01*
G01X25382Y37245D01*
G01X25386Y37255D01*
G01X25389Y37265D01*
G01X25392Y37275D01*
G01X25394Y37285D01*
G01X25396Y37296D01*
G01X25398Y37306D01*
G01X25399Y37317D01*
G01X25399Y37327D01*
G01X25400Y37338D01*
G01X25400Y37719D01*
G01X24765Y37719D01*
G37*
G36*
G01X23611Y37084D02*
G01X23622Y37084D01*
G01X24003Y37084D01*
G01X24003Y37719D01*
G01X22733Y37719D01*
G01X22733Y37084D01*
G01X23114Y37084D01*
G01X23124Y37084D01*
G01X23134Y37084D01*
G01X23145Y37085D01*
G01X23155Y37087D01*
G01X23166Y37089D01*
G01X23176Y37091D01*
G01X23186Y37094D01*
G01X23196Y37097D01*
G01X23206Y37101D01*
G01X23216Y37105D01*
G01X23225Y37109D01*
G01X23234Y37114D01*
G01X23244Y37119D01*
G01X23252Y37125D01*
G01X23261Y37131D01*
G01X23270Y37137D01*
G01X23278Y37144D01*
G01X23286Y37151D01*
G01X23293Y37158D01*
G01X23300Y37165D01*
G01X23307Y37173D01*
G01X23314Y37181D01*
G01X23320Y37190D01*
G01X23326Y37199D01*
G01X23332Y37207D01*
G01X23337Y37217D01*
G01X23342Y37226D01*
G01X23346Y37235D01*
G01X23350Y37245D01*
G01X23354Y37255D01*
G01X23357Y37265D01*
G01X23360Y37275D01*
G01X23362Y37285D01*
G01X23364Y37296D01*
G01X23366Y37306D01*
G01X23367Y37317D01*
G01X23367Y37327D01*
G01X23368Y37338D01*
G01X23368Y37327D01*
G01X23368Y37317D01*
G01X23369Y37306D01*
G01X23371Y37296D01*
G01X23373Y37285D01*
G01X23375Y37275D01*
G01X23378Y37265D01*
G01X23381Y37255D01*
G01X23385Y37245D01*
G01X23389Y37235D01*
G01X23393Y37226D01*
G01X23398Y37217D01*
G01X23403Y37207D01*
G01X23409Y37199D01*
G01X23415Y37190D01*
G01X23421Y37181D01*
G01X23428Y37173D01*
G01X23435Y37165D01*
G01X23442Y37158D01*
G01X23449Y37151D01*
G01X23457Y37144D01*
G01X23465Y37137D01*
G01X23474Y37131D01*
G01X23483Y37125D01*
G01X23491Y37119D01*
G01X23501Y37114D01*
G01X23510Y37109D01*
G01X23519Y37105D01*
G01X23529Y37101D01*
G01X23539Y37097D01*
G01X23549Y37094D01*
G01X23559Y37091D01*
G01X23569Y37089D01*
G01X23580Y37087D01*
G01X23590Y37085D01*
G01X23601Y37084D01*
G01X23611Y37084D01*
G37*
G36*
G01X21579Y37084D02*
G01X21590Y37084D01*
G01X21971Y37084D01*
G01X21971Y37719D01*
G01X20701Y37719D01*
G01X20701Y37084D01*
G01X21082Y37084D01*
G01X21092Y37084D01*
G01X21102Y37084D01*
G01X21113Y37085D01*
G01X21123Y37087D01*
G01X21134Y37089D01*
G01X21144Y37091D01*
G01X21154Y37094D01*
G01X21164Y37097D01*
G01X21174Y37101D01*
G01X21184Y37105D01*
G01X21193Y37109D01*
G01X21202Y37114D01*
G01X21212Y37119D01*
G01X21220Y37125D01*
G01X21229Y37131D01*
G01X21238Y37137D01*
G01X21246Y37144D01*
G01X21254Y37151D01*
G01X21261Y37158D01*
G01X21268Y37165D01*
G01X21275Y37173D01*
G01X21282Y37181D01*
G01X21288Y37190D01*
G01X21294Y37199D01*
G01X21300Y37207D01*
G01X21305Y37217D01*
G01X21310Y37226D01*
G01X21314Y37235D01*
G01X21318Y37245D01*
G01X21322Y37255D01*
G01X21325Y37265D01*
G01X21328Y37275D01*
G01X21330Y37285D01*
G01X21332Y37296D01*
G01X21334Y37306D01*
G01X21335Y37317D01*
G01X21335Y37327D01*
G01X21336Y37338D01*
G01X21336Y37327D01*
G01X21336Y37317D01*
G01X21337Y37306D01*
G01X21339Y37296D01*
G01X21341Y37285D01*
G01X21343Y37275D01*
G01X21346Y37265D01*
G01X21349Y37255D01*
G01X21353Y37245D01*
G01X21357Y37235D01*
G01X21361Y37226D01*
G01X21366Y37217D01*
G01X21371Y37207D01*
G01X21377Y37199D01*
G01X21383Y37190D01*
G01X21389Y37181D01*
G01X21396Y37173D01*
G01X21403Y37165D01*
G01X21410Y37158D01*
G01X21417Y37151D01*
G01X21425Y37144D01*
G01X21433Y37137D01*
G01X21442Y37131D01*
G01X21451Y37125D01*
G01X21459Y37119D01*
G01X21469Y37114D01*
G01X21478Y37109D01*
G01X21487Y37105D01*
G01X21497Y37101D01*
G01X21507Y37097D01*
G01X21517Y37094D01*
G01X21527Y37091D01*
G01X21537Y37089D01*
G01X21548Y37087D01*
G01X21558Y37085D01*
G01X21569Y37084D01*
G01X21579Y37084D01*
G37*
G36*
G01X7863Y37084D02*
G01X7874Y37084D01*
G01X9398Y37084D01*
G01X9408Y37084D01*
G01X9418Y37084D01*
G01X9429Y37085D01*
G01X9439Y37087D01*
G01X9450Y37089D01*
G01X9460Y37091D01*
G01X9470Y37094D01*
G01X9480Y37097D01*
G01X9490Y37101D01*
G01X9500Y37105D01*
G01X9509Y37109D01*
G01X9518Y37114D01*
G01X9528Y37119D01*
G01X9536Y37125D01*
G01X9545Y37131D01*
G01X9554Y37137D01*
G01X9562Y37144D01*
G01X9570Y37151D01*
G01X9577Y37158D01*
G01X9584Y37165D01*
G01X9591Y37173D01*
G01X9598Y37181D01*
G01X9604Y37190D01*
G01X9610Y37199D01*
G01X9616Y37207D01*
G01X9621Y37217D01*
G01X9626Y37226D01*
G01X9630Y37235D01*
G01X9634Y37245D01*
G01X9638Y37255D01*
G01X9641Y37265D01*
G01X9644Y37275D01*
G01X9646Y37285D01*
G01X9648Y37296D01*
G01X9650Y37306D01*
G01X9651Y37317D01*
G01X9651Y37327D01*
G01X9652Y37338D01*
G01X9652Y38862D01*
G01X9651Y38872D01*
G01X9651Y38882D01*
G01X9650Y38893D01*
G01X9648Y38903D01*
G01X9646Y38914D01*
G01X9644Y38924D01*
G01X9641Y38934D01*
G01X9638Y38944D01*
G01X9634Y38954D01*
G01X9630Y38964D01*
G01X9626Y38973D01*
G01X9621Y38982D01*
G01X9616Y38992D01*
G01X9610Y39000D01*
G01X9604Y39009D01*
G01X9598Y39018D01*
G01X9591Y39026D01*
G01X9584Y39034D01*
G01X9577Y39041D01*
G01X9570Y39048D01*
G01X9562Y39055D01*
G01X9554Y39062D01*
G01X9545Y39068D01*
G01X9536Y39074D01*
G01X9528Y39080D01*
G01X9518Y39085D01*
G01X9509Y39090D01*
G01X9500Y39094D01*
G01X9490Y39098D01*
G01X9480Y39102D01*
G01X9470Y39105D01*
G01X9460Y39108D01*
G01X9450Y39110D01*
G01X9439Y39112D01*
G01X9429Y39114D01*
G01X9418Y39115D01*
G01X9408Y39115D01*
G01X9398Y39116D01*
G01X7874Y39116D01*
G01X7863Y39115D01*
G01X7853Y39115D01*
G01X7842Y39114D01*
G01X7832Y39112D01*
G01X7821Y39110D01*
G01X7811Y39108D01*
G01X7801Y39105D01*
G01X7791Y39102D01*
G01X7781Y39098D01*
G01X7771Y39094D01*
G01X7762Y39090D01*
G01X7753Y39085D01*
G01X7743Y39080D01*
G01X7735Y39074D01*
G01X7726Y39068D01*
G01X7717Y39062D01*
G01X7709Y39055D01*
G01X7701Y39048D01*
G01X7694Y39041D01*
G01X7687Y39034D01*
G01X7680Y39026D01*
G01X7673Y39018D01*
G01X7667Y39009D01*
G01X7661Y39000D01*
G01X7655Y38992D01*
G01X7650Y38982D01*
G01X7645Y38973D01*
G01X7641Y38964D01*
G01X7637Y38954D01*
G01X7633Y38944D01*
G01X7630Y38934D01*
G01X7627Y38924D01*
G01X7625Y38914D01*
G01X7623Y38903D01*
G01X7621Y38893D01*
G01X7620Y38882D01*
G01X7620Y38872D01*
G01X7620Y38862D01*
G01X7620Y37338D01*
G01X7620Y37327D01*
G01X7620Y37317D01*
G01X7621Y37306D01*
G01X7623Y37296D01*
G01X7625Y37285D01*
G01X7627Y37275D01*
G01X7630Y37265D01*
G01X7633Y37255D01*
G01X7637Y37245D01*
G01X7641Y37235D01*
G01X7645Y37226D01*
G01X7650Y37217D01*
G01X7655Y37207D01*
G01X7661Y37199D01*
G01X7667Y37190D01*
G01X7673Y37181D01*
G01X7680Y37173D01*
G01X7687Y37165D01*
G01X7694Y37158D01*
G01X7701Y37151D01*
G01X7709Y37144D01*
G01X7717Y37137D01*
G01X7726Y37131D01*
G01X7735Y37125D01*
G01X7743Y37119D01*
G01X7753Y37114D01*
G01X7762Y37109D01*
G01X7771Y37105D01*
G01X7781Y37101D01*
G01X7791Y37097D01*
G01X7801Y37094D01*
G01X7811Y37091D01*
G01X7821Y37089D01*
G01X7832Y37087D01*
G01X7842Y37085D01*
G01X7853Y37084D01*
G01X7863Y37084D01*
G37*
G36*
G01X18415Y39116D02*
G01X18415Y38481D01*
G01X19050Y38481D01*
G01X19050Y38862D01*
G01X19049Y38872D01*
G01X19049Y38882D01*
G01X19048Y38893D01*
G01X19046Y38903D01*
G01X19044Y38914D01*
G01X19042Y38924D01*
G01X19039Y38934D01*
G01X19036Y38944D01*
G01X19032Y38954D01*
G01X19028Y38964D01*
G01X19024Y38973D01*
G01X19019Y38982D01*
G01X19014Y38992D01*
G01X19008Y39000D01*
G01X19002Y39009D01*
G01X18996Y39018D01*
G01X18989Y39026D01*
G01X18982Y39034D01*
G01X18975Y39041D01*
G01X18968Y39048D01*
G01X18960Y39055D01*
G01X18952Y39062D01*
G01X18943Y39068D01*
G01X18934Y39074D01*
G01X18926Y39080D01*
G01X18916Y39085D01*
G01X18907Y39090D01*
G01X18898Y39094D01*
G01X18888Y39098D01*
G01X18878Y39102D01*
G01X18868Y39105D01*
G01X18858Y39108D01*
G01X18848Y39110D01*
G01X18837Y39112D01*
G01X18827Y39114D01*
G01X18816Y39115D01*
G01X18806Y39115D01*
G01X18796Y39116D01*
G01X18415Y39116D01*
G37*
G36*
G01X17018Y38862D02*
G01X17018Y38481D01*
G01X17653Y38481D01*
G01X17653Y39116D01*
G01X17272Y39116D01*
G01X17261Y39115D01*
G01X17251Y39115D01*
G01X17240Y39114D01*
G01X17230Y39112D01*
G01X17219Y39110D01*
G01X17209Y39108D01*
G01X17199Y39105D01*
G01X17189Y39102D01*
G01X17179Y39098D01*
G01X17169Y39094D01*
G01X17160Y39090D01*
G01X17151Y39085D01*
G01X17141Y39080D01*
G01X17133Y39074D01*
G01X17124Y39068D01*
G01X17115Y39062D01*
G01X17107Y39055D01*
G01X17099Y39048D01*
G01X17092Y39041D01*
G01X17085Y39034D01*
G01X17078Y39026D01*
G01X17071Y39018D01*
G01X17065Y39009D01*
G01X17059Y39000D01*
G01X17053Y38992D01*
G01X17048Y38982D01*
G01X17043Y38973D01*
G01X17039Y38964D01*
G01X17035Y38954D01*
G01X17031Y38944D01*
G01X17028Y38934D01*
G01X17025Y38924D01*
G01X17023Y38914D01*
G01X17021Y38903D01*
G01X17019Y38893D01*
G01X17018Y38882D01*
G01X17018Y38872D01*
G01X17018Y38862D01*
G37*
G36*
G01X20701Y39116D02*
G01X20701Y38481D01*
G01X21971Y38481D01*
G01X21971Y39116D01*
G01X21590Y39116D01*
G01X21579Y39115D01*
G01X21569Y39115D01*
G01X21558Y39114D01*
G01X21548Y39112D01*
G01X21537Y39110D01*
G01X21527Y39108D01*
G01X21517Y39105D01*
G01X21507Y39102D01*
G01X21497Y39098D01*
G01X21487Y39094D01*
G01X21478Y39090D01*
G01X21469Y39085D01*
G01X21459Y39080D01*
G01X21451Y39074D01*
G01X21442Y39068D01*
G01X21433Y39062D01*
G01X21425Y39055D01*
G01X21417Y39048D01*
G01X21410Y39041D01*
G01X21403Y39034D01*
G01X21396Y39026D01*
G01X21389Y39018D01*
G01X21383Y39009D01*
G01X21377Y39000D01*
G01X21371Y38992D01*
G01X21366Y38982D01*
G01X21361Y38973D01*
G01X21357Y38964D01*
G01X21353Y38954D01*
G01X21349Y38944D01*
G01X21346Y38934D01*
G01X21343Y38924D01*
G01X21341Y38914D01*
G01X21339Y38903D01*
G01X21337Y38893D01*
G01X21336Y38882D01*
G01X21336Y38872D01*
G01X21336Y38862D01*
G01X21335Y38872D01*
G01X21335Y38882D01*
G01X21334Y38893D01*
G01X21332Y38903D01*
G01X21330Y38914D01*
G01X21328Y38924D01*
G01X21325Y38934D01*
G01X21322Y38944D01*
G01X21318Y38954D01*
G01X21314Y38964D01*
G01X21310Y38973D01*
G01X21305Y38982D01*
G01X21300Y38992D01*
G01X21294Y39000D01*
G01X21288Y39009D01*
G01X21282Y39018D01*
G01X21275Y39026D01*
G01X21268Y39034D01*
G01X21261Y39041D01*
G01X21254Y39048D01*
G01X21246Y39055D01*
G01X21238Y39062D01*
G01X21229Y39068D01*
G01X21220Y39074D01*
G01X21212Y39080D01*
G01X21202Y39085D01*
G01X21193Y39090D01*
G01X21184Y39094D01*
G01X21174Y39098D01*
G01X21164Y39102D01*
G01X21154Y39105D01*
G01X21144Y39108D01*
G01X21134Y39110D01*
G01X21123Y39112D01*
G01X21113Y39114D01*
G01X21102Y39115D01*
G01X21092Y39115D01*
G01X21082Y39116D01*
G01X20701Y39116D01*
G37*
G36*
G01X19304Y38862D02*
G01X19304Y38481D01*
G01X19939Y38481D01*
G01X19939Y39116D01*
G01X19558Y39116D01*
G01X19547Y39115D01*
G01X19537Y39115D01*
G01X19526Y39114D01*
G01X19516Y39112D01*
G01X19505Y39110D01*
G01X19495Y39108D01*
G01X19485Y39105D01*
G01X19475Y39102D01*
G01X19465Y39098D01*
G01X19455Y39094D01*
G01X19446Y39090D01*
G01X19437Y39085D01*
G01X19427Y39080D01*
G01X19419Y39074D01*
G01X19410Y39068D01*
G01X19401Y39062D01*
G01X19393Y39055D01*
G01X19385Y39048D01*
G01X19378Y39041D01*
G01X19371Y39034D01*
G01X19364Y39026D01*
G01X19357Y39018D01*
G01X19351Y39009D01*
G01X19345Y39000D01*
G01X19339Y38992D01*
G01X19334Y38982D01*
G01X19329Y38973D01*
G01X19325Y38964D01*
G01X19321Y38954D01*
G01X19317Y38944D01*
G01X19314Y38934D01*
G01X19311Y38924D01*
G01X19309Y38914D01*
G01X19307Y38903D01*
G01X19305Y38893D01*
G01X19304Y38882D01*
G01X19304Y38872D01*
G01X19304Y38862D01*
G37*
G36*
G01X24765Y39116D02*
G01X24765Y38481D01*
G01X25400Y38481D01*
G01X25400Y38862D01*
G01X25399Y38872D01*
G01X25399Y38882D01*
G01X25398Y38893D01*
G01X25396Y38903D01*
G01X25394Y38914D01*
G01X25392Y38924D01*
G01X25389Y38934D01*
G01X25386Y38944D01*
G01X25382Y38954D01*
G01X25378Y38964D01*
G01X25374Y38973D01*
G01X25369Y38982D01*
G01X25364Y38992D01*
G01X25358Y39000D01*
G01X25352Y39009D01*
G01X25346Y39018D01*
G01X25339Y39026D01*
G01X25332Y39034D01*
G01X25325Y39041D01*
G01X25318Y39048D01*
G01X25310Y39055D01*
G01X25302Y39062D01*
G01X25293Y39068D01*
G01X25284Y39074D01*
G01X25276Y39080D01*
G01X25266Y39085D01*
G01X25257Y39090D01*
G01X25248Y39094D01*
G01X25238Y39098D01*
G01X25228Y39102D01*
G01X25218Y39105D01*
G01X25208Y39108D01*
G01X25198Y39110D01*
G01X25187Y39112D01*
G01X25177Y39114D01*
G01X25166Y39115D01*
G01X25156Y39115D01*
G01X25146Y39116D01*
G01X24765Y39116D01*
G37*
G36*
G01X22733Y39116D02*
G01X22733Y38481D01*
G01X24003Y38481D01*
G01X24003Y39116D01*
G01X23622Y39116D01*
G01X23611Y39115D01*
G01X23601Y39115D01*
G01X23590Y39114D01*
G01X23580Y39112D01*
G01X23569Y39110D01*
G01X23559Y39108D01*
G01X23549Y39105D01*
G01X23539Y39102D01*
G01X23529Y39098D01*
G01X23519Y39094D01*
G01X23510Y39090D01*
G01X23501Y39085D01*
G01X23491Y39080D01*
G01X23483Y39074D01*
G01X23474Y39068D01*
G01X23465Y39062D01*
G01X23457Y39055D01*
G01X23449Y39048D01*
G01X23442Y39041D01*
G01X23435Y39034D01*
G01X23428Y39026D01*
G01X23421Y39018D01*
G01X23415Y39009D01*
G01X23409Y39000D01*
G01X23403Y38992D01*
G01X23398Y38982D01*
G01X23393Y38973D01*
G01X23389Y38964D01*
G01X23385Y38954D01*
G01X23381Y38944D01*
G01X23378Y38934D01*
G01X23375Y38924D01*
G01X23373Y38914D01*
G01X23371Y38903D01*
G01X23369Y38893D01*
G01X23368Y38882D01*
G01X23368Y38872D01*
G01X23368Y38862D01*
G01X23367Y38872D01*
G01X23367Y38882D01*
G01X23366Y38893D01*
G01X23364Y38903D01*
G01X23362Y38914D01*
G01X23360Y38924D01*
G01X23357Y38934D01*
G01X23354Y38944D01*
G01X23350Y38954D01*
G01X23346Y38964D01*
G01X23342Y38973D01*
G01X23337Y38982D01*
G01X23332Y38992D01*
G01X23326Y39000D01*
G01X23320Y39009D01*
G01X23314Y39018D01*
G01X23307Y39026D01*
G01X23300Y39034D01*
G01X23293Y39041D01*
G01X23286Y39048D01*
G01X23278Y39055D01*
G01X23270Y39062D01*
G01X23261Y39068D01*
G01X23252Y39074D01*
G01X23244Y39080D01*
G01X23234Y39085D01*
G01X23225Y39090D01*
G01X23216Y39094D01*
G01X23206Y39098D01*
G01X23196Y39102D01*
G01X23186Y39105D01*
G01X23176Y39108D01*
G01X23166Y39110D01*
G01X23155Y39112D01*
G01X23145Y39114D01*
G01X23134Y39115D01*
G01X23124Y39115D01*
G01X23114Y39116D01*
G01X22733Y39116D01*
G37*

%LPD*%
G36*
G01X10638Y24620D02*
G01X10591Y24589D01*
G01X10591Y27253D01*
G01X12137Y28799D01*
G01X12574Y27989D01*
G01X12588Y27965D01*
G01X13663Y26244D01*
G01X13658Y26190D01*
G01X13658Y26133D01*
G01X13663Y26077D01*
G01X13674Y26022D01*
G01X13691Y25968D01*
G01X13713Y25916D01*
G01X13740Y25866D01*
G01X13772Y25819D01*
G01X13808Y25776D01*
G01X13849Y25737D01*
G01X13893Y25702D01*
G01X13940Y25671D01*
G01X13990Y25645D01*
G01X14043Y25624D01*
G01X14097Y25609D01*
G01X14153Y25599D01*
G01X14209Y25595D01*
G01X14266Y25597D01*
G01X14322Y25604D01*
G01X14377Y25616D01*
G01X14430Y25634D01*
G01X14482Y25657D01*
G01X14531Y25686D01*
G01X14577Y25719D01*
G01X14619Y25756D01*
G01X14658Y25797D01*
G01X14692Y25842D01*
G01X14721Y25891D01*
G01X14746Y25941D01*
G01X14765Y25994D01*
G01X14779Y26049D01*
G01X14787Y26105D01*
G01X14790Y26162D01*
G01X14787Y26218D01*
G01X14779Y26274D01*
G01X14765Y26329D01*
G01X14746Y26382D01*
G01X14721Y26432D01*
G01X14692Y26481D01*
G01X14658Y26526D01*
G01X14619Y26567D01*
G01X14577Y26604D01*
G01X14531Y26637D01*
G01X14482Y26666D01*
G01X14430Y26689D01*
G01X14395Y26701D01*
G01X13461Y28196D01*
G01X13482Y28185D01*
G01X13535Y28164D01*
G01X13589Y28149D01*
G01X13645Y28139D01*
G01X13701Y28135D01*
G01X13758Y28137D01*
G01X13793Y28141D01*
G01X13800Y28137D01*
G01X13811Y28131D01*
G01X13822Y28125D01*
G01X13834Y28120D01*
G01X13846Y28116D01*
G01X13858Y28112D01*
G01X13870Y28108D01*
G01X13882Y28104D01*
G01X13894Y28102D01*
G01X13907Y28099D01*
G01X13919Y28097D01*
G01X13932Y28096D01*
G01X13944Y28094D01*
G01X13957Y28094D01*
G01X13970Y28094D01*
G01X17379Y28094D01*
G01X19923Y25549D01*
G01X19904Y25531D01*
G01X19868Y25488D01*
G01X19836Y25441D01*
G01X19809Y25391D01*
G01X19787Y25339D01*
G01X19770Y25285D01*
G01X19759Y25230D01*
G01X19754Y25174D01*
G01X19754Y25117D01*
G01X19759Y25061D01*
G01X19770Y25006D01*
G01X19787Y24952D01*
G01X19809Y24900D01*
G01X19836Y24850D01*
G01X19868Y24803D01*
G01X19904Y24760D01*
G01X19927Y24737D01*
G01X19442Y24737D01*
G01X19445Y24740D01*
G01X19484Y24781D01*
G01X19518Y24826D01*
G01X19547Y24875D01*
G01X19572Y24925D01*
G01X19591Y24978D01*
G01X19605Y25033D01*
G01X19613Y25089D01*
G01X19616Y25146D01*
G01X19613Y25202D01*
G01X19605Y25258D01*
G01X19591Y25313D01*
G01X19572Y25366D01*
G01X19547Y25416D01*
G01X19518Y25465D01*
G01X19484Y25510D01*
G01X19445Y25551D01*
G01X19403Y25588D01*
G01X19357Y25621D01*
G01X19308Y25650D01*
G01X19256Y25673D01*
G01X19203Y25691D01*
G01X19148Y25703D01*
G01X19092Y25710D01*
G01X19035Y25712D01*
G01X19009Y25710D01*
G01X18623Y26125D01*
G01X18602Y26147D01*
G01X18344Y26381D01*
G01X18346Y26416D01*
G01X18343Y26472D01*
G01X18335Y26528D01*
G01X18321Y26583D01*
G01X18302Y26636D01*
G01X18277Y26686D01*
G01X18248Y26735D01*
G01X18214Y26780D01*
G01X18175Y26821D01*
G01X18133Y26858D01*
G01X18087Y26891D01*
G01X18038Y26920D01*
G01X17986Y26943D01*
G01X17933Y26961D01*
G01X17878Y26973D01*
G01X17822Y26980D01*
G01X17765Y26982D01*
G01X17709Y26978D01*
G01X17653Y26968D01*
G01X17599Y26953D01*
G01X17546Y26932D01*
G01X17496Y26906D01*
G01X17449Y26875D01*
G01X17405Y26840D01*
G01X17364Y26801D01*
G01X17328Y26758D01*
G01X17296Y26711D01*
G01X17269Y26661D01*
G01X17247Y26609D01*
G01X17230Y26555D01*
G01X17219Y26500D01*
G01X17214Y26444D01*
G01X17214Y26387D01*
G01X17219Y26331D01*
G01X17230Y26276D01*
G01X17247Y26222D01*
G01X17269Y26170D01*
G01X17296Y26120D01*
G01X17328Y26073D01*
G01X17364Y26030D01*
G01X17405Y25991D01*
G01X17449Y25956D01*
G01X17496Y25925D01*
G01X17546Y25899D01*
G01X17599Y25878D01*
G01X17653Y25863D01*
G01X17709Y25853D01*
G01X17765Y25849D01*
G01X17822Y25851D01*
G01X17868Y25856D01*
G01X18115Y25633D01*
G01X18489Y25229D01*
G01X18484Y25174D01*
G01X18484Y25117D01*
G01X18489Y25061D01*
G01X18500Y25006D01*
G01X18517Y24952D01*
G01X18539Y24900D01*
G01X18566Y24850D01*
G01X18598Y24803D01*
G01X18634Y24760D01*
G01X18657Y24737D01*
G01X12084Y24737D01*
G01X11738Y25083D01*
G01X11739Y25089D01*
G01X11742Y25146D01*
G01X11739Y25202D01*
G01X11731Y25258D01*
G01X11717Y25312D01*
G01X11697Y25366D01*
G01X11673Y25416D01*
G01X11643Y25465D01*
G01X11609Y25510D01*
G01X11571Y25551D01*
G01X11529Y25588D01*
G01X11483Y25621D01*
G01X11434Y25650D01*
G01X11382Y25673D01*
G01X11329Y25691D01*
G01X11274Y25703D01*
G01X11218Y25710D01*
G01X11161Y25712D01*
G01X11105Y25708D01*
G01X11049Y25698D01*
G01X10995Y25682D01*
G01X10943Y25662D01*
G01X10892Y25636D01*
G01X10845Y25605D01*
G01X10801Y25570D01*
G01X10760Y25531D01*
G01X10724Y25488D01*
G01X10692Y25441D01*
G01X10665Y25391D01*
G01X10643Y25339D01*
G01X10627Y25285D01*
G01X10615Y25230D01*
G01X10610Y25174D01*
G01X10610Y25117D01*
G01X10615Y25061D01*
G01X10627Y25006D01*
G01X10643Y24952D01*
G01X10665Y24900D01*
G01X10692Y24850D01*
G01X10724Y24803D01*
G01X10760Y24760D01*
G01X10801Y24721D01*
G01X10840Y24690D01*
G01X10795Y24682D01*
G01X10741Y24666D01*
G01X10689Y24646D01*
G01X10638Y24620D01*
G37*

%LPC*%

%LPD*%
G36*
G01X32619Y20927D02*
G01X30667Y20927D01*
G01X30660Y20938D01*
G01X30621Y20979D01*
G01X30579Y21016D01*
G01X30561Y21029D01*
G01X30578Y21032D01*
G01X30633Y21044D01*
G01X30686Y21062D01*
G01X30738Y21085D01*
G01X30787Y21114D01*
G01X30833Y21147D01*
G01X30875Y21184D01*
G01X30914Y21225D01*
G01X30948Y21270D01*
G01X30977Y21319D01*
G01X31002Y21369D01*
G01X31021Y21422D01*
G01X31035Y21477D01*
G01X31043Y21533D01*
G01X31046Y21590D01*
G01X31043Y21646D01*
G01X31035Y21702D01*
G01X31021Y21757D01*
G01X31002Y21810D01*
G01X30977Y21860D01*
G01X30948Y21909D01*
G01X30914Y21954D01*
G01X30875Y21995D01*
G01X30833Y22032D01*
G01X30833Y24999D01*
G01X36722Y30888D01*
G01X37898Y30888D01*
G01X37893Y30881D01*
G01X37887Y30872D01*
G01X37881Y30864D01*
G01X37876Y30854D01*
G01X37871Y30845D01*
G01X37867Y30836D01*
G01X37863Y30826D01*
G01X37859Y30816D01*
G01X37856Y30806D01*
G01X37853Y30796D01*
G01X37851Y30786D01*
G01X37849Y30775D01*
G01X37847Y30765D01*
G01X37846Y30754D01*
G01X37846Y30744D01*
G01X37846Y30734D01*
G01X37846Y29456D01*
G01X36579Y28190D01*
G01X36570Y28181D01*
G01X36562Y28171D01*
G01X36554Y28162D01*
G01X36546Y28152D01*
G01X36539Y28141D01*
G01X36532Y28131D01*
G01X36525Y28120D01*
G01X36519Y28109D01*
G01X36513Y28098D01*
G01X36507Y28087D01*
G01X36502Y28075D01*
G01X36498Y28063D01*
G01X36494Y28051D01*
G01X36490Y28039D01*
G01X36486Y28027D01*
G01X36484Y28015D01*
G01X36481Y28002D01*
G01X36479Y27990D01*
G01X36478Y27977D01*
G01X36476Y27965D01*
G01X36476Y27952D01*
G01X36476Y27940D01*
G01X36476Y24571D01*
G01X36455Y24554D01*
G01X36414Y24515D01*
G01X36378Y24472D01*
G01X36346Y24425D01*
G01X36319Y24375D01*
G01X36297Y24323D01*
G01X36280Y24269D01*
G01X36269Y24214D01*
G01X36264Y24158D01*
G01X36264Y24101D01*
G01X36269Y24045D01*
G01X36280Y23990D01*
G01X36297Y23936D01*
G01X36319Y23884D01*
G01X36346Y23834D01*
G01X36378Y23787D01*
G01X36414Y23744D01*
G01X36455Y23705D01*
G01X36499Y23670D01*
G01X36546Y23639D01*
G01X36596Y23613D01*
G01X36649Y23592D01*
G01X36703Y23577D01*
G01X36759Y23567D01*
G01X36781Y23566D01*
G01X36683Y23467D01*
G01X35306Y23467D01*
G01X35293Y23467D01*
G01X35280Y23467D01*
G01X35268Y23465D01*
G01X35255Y23464D01*
G01X35243Y23462D01*
G01X35230Y23459D01*
G01X35218Y23457D01*
G01X35206Y23453D01*
G01X35194Y23449D01*
G01X35182Y23445D01*
G01X35170Y23441D01*
G01X35158Y23436D01*
G01X35147Y23430D01*
G01X35136Y23424D01*
G01X35125Y23418D01*
G01X35114Y23411D01*
G01X35104Y23404D01*
G01X35093Y23397D01*
G01X35083Y23389D01*
G01X35074Y23381D01*
G01X35064Y23373D01*
G01X35055Y23364D01*
G01X32619Y20927D01*
G37*

%LPC*%

%LPD*%
G36*
G01X24839Y17610D02*
G01X24839Y17607D01*
G01X24817Y17636D01*
G01X24779Y17677D01*
G01X24737Y17714D01*
G01X24691Y17747D01*
G01X24642Y17776D01*
G01X24628Y17782D01*
G01X23872Y18538D01*
G01X23863Y18547D01*
G01X23853Y18555D01*
G01X23844Y18563D01*
G01X23834Y18571D01*
G01X23823Y18578D01*
G01X23813Y18585D01*
G01X23802Y18592D01*
G01X23791Y18598D01*
G01X23780Y18604D01*
G01X23769Y18610D01*
G01X23757Y18615D01*
G01X23745Y18619D01*
G01X23733Y18623D01*
G01X23721Y18627D01*
G01X23709Y18631D01*
G01X23697Y18633D01*
G01X23684Y18636D01*
G01X23672Y18638D01*
G01X23659Y18639D01*
G01X23647Y18641D01*
G01X23634Y18641D01*
G01X23622Y18641D01*
G01X11617Y18641D01*
G01X11609Y18652D01*
G01X11571Y18693D01*
G01X11529Y18730D01*
G01X11483Y18763D01*
G01X11434Y18792D01*
G01X11382Y18815D01*
G01X11329Y18833D01*
G01X11274Y18845D01*
G01X11218Y18852D01*
G01X11161Y18854D01*
G01X11105Y18850D01*
G01X11049Y18840D01*
G01X10995Y18824D01*
G01X10943Y18804D01*
G01X10892Y18778D01*
G01X10845Y18747D01*
G01X10837Y18741D01*
G01X10941Y22497D01*
G01X10942Y22511D01*
G01X10941Y22525D01*
G01X10940Y22539D01*
G01X10939Y22553D01*
G01X10938Y22567D01*
G01X10935Y22581D01*
G01X10933Y22595D01*
G01X10930Y22608D01*
G01X10926Y22622D01*
G01X10923Y22635D01*
G01X10918Y22649D01*
G01X10913Y22662D01*
G01X10908Y22675D01*
G01X10903Y22688D01*
G01X10897Y22701D01*
G01X10890Y22713D01*
G01X10883Y22725D01*
G01X10876Y22737D01*
G01X10869Y22749D01*
G01X10861Y22761D01*
G01X10852Y22772D01*
G01X10843Y22783D01*
G01X10834Y22794D01*
G01X10825Y22804D01*
G01X10815Y22814D01*
G01X10591Y23038D01*
G01X10591Y23670D01*
G01X10638Y23639D01*
G01X10689Y23613D01*
G01X10741Y23593D01*
G01X10795Y23577D01*
G01X10851Y23567D01*
G01X10907Y23563D01*
G01X10964Y23565D01*
G01X10998Y23569D01*
G01X11006Y23565D01*
G01X11017Y23559D01*
G01X11028Y23553D01*
G01X11040Y23548D01*
G01X11052Y23544D01*
G01X11064Y23540D01*
G01X11076Y23536D01*
G01X11088Y23532D01*
G01X11100Y23530D01*
G01X11113Y23527D01*
G01X11125Y23525D01*
G01X11138Y23524D01*
G01X11150Y23522D01*
G01X11163Y23522D01*
G01X11176Y23522D01*
G01X19927Y23522D01*
G01X19904Y23499D01*
G01X19868Y23456D01*
G01X19836Y23409D01*
G01X19809Y23359D01*
G01X19787Y23307D01*
G01X19770Y23253D01*
G01X19759Y23198D01*
G01X19754Y23142D01*
G01X19754Y23085D01*
G01X19759Y23029D01*
G01X19770Y22974D01*
G01X19787Y22920D01*
G01X19809Y22868D01*
G01X19836Y22818D01*
G01X19868Y22771D01*
G01X19904Y22728D01*
G01X19945Y22689D01*
G01X19989Y22654D01*
G01X20036Y22623D01*
G01X20086Y22597D01*
G01X20139Y22576D01*
G01X20193Y22561D01*
G01X20220Y22557D01*
G01X20220Y21777D01*
G01X20199Y21760D01*
G01X20158Y21721D01*
G01X20122Y21678D01*
G01X20090Y21631D01*
G01X20063Y21581D01*
G01X20041Y21529D01*
G01X20024Y21475D01*
G01X20013Y21420D01*
G01X20008Y21364D01*
G01X20008Y21307D01*
G01X20013Y21251D01*
G01X20024Y21196D01*
G01X20041Y21142D01*
G01X20063Y21090D01*
G01X20090Y21040D01*
G01X20122Y20993D01*
G01X20158Y20950D01*
G01X20199Y20911D01*
G01X20243Y20876D01*
G01X20290Y20845D01*
G01X20340Y20819D01*
G01X20393Y20798D01*
G01X20447Y20783D01*
G01X20503Y20773D01*
G01X20559Y20769D01*
G01X20616Y20771D01*
G01X20672Y20778D01*
G01X20727Y20790D01*
G01X20780Y20808D01*
G01X20832Y20831D01*
G01X20881Y20860D01*
G01X20927Y20893D01*
G01X20969Y20930D01*
G01X21008Y20971D01*
G01X21042Y21016D01*
G01X21071Y21065D01*
G01X21096Y21115D01*
G01X21115Y21168D01*
G01X21129Y21223D01*
G01X21137Y21279D01*
G01X21140Y21336D01*
G01X21137Y21392D01*
G01X21129Y21448D01*
G01X21115Y21503D01*
G01X21096Y21556D01*
G01X21071Y21606D01*
G01X21042Y21655D01*
G01X21008Y21700D01*
G01X20969Y21741D01*
G01X20927Y21778D01*
G01X20927Y22860D01*
G01X20927Y22872D01*
G01X20927Y22885D01*
G01X20925Y22897D01*
G01X20924Y22910D01*
G01X20922Y22922D01*
G01X20919Y22935D01*
G01X20917Y22947D01*
G01X20913Y22959D01*
G01X20909Y22971D01*
G01X20905Y22983D01*
G01X20901Y22995D01*
G01X20896Y23007D01*
G01X20890Y23018D01*
G01X20884Y23029D01*
G01X20880Y23036D01*
G01X20883Y23057D01*
G01X20886Y23114D01*
G01X20883Y23170D01*
G01X20875Y23226D01*
G01X20861Y23281D01*
G01X20842Y23334D01*
G01X20817Y23384D01*
G01X20788Y23433D01*
G01X20754Y23478D01*
G01X20715Y23519D01*
G01X20712Y23522D01*
G01X22713Y23522D01*
G01X25046Y21189D01*
G01X25046Y17967D01*
G01X25025Y17950D01*
G01X24984Y17911D01*
G01X24948Y17868D01*
G01X24916Y17821D01*
G01X24889Y17771D01*
G01X24867Y17719D01*
G01X24851Y17665D01*
G01X24839Y17610D01*
G37*

%LPC*%
G36*
G01X13078Y21444D02*
G01X13078Y20789D01*
G01X13202Y20789D01*
G01X13213Y20790D01*
G01X13223Y20790D01*
G01X13234Y20791D01*
G01X13244Y20793D01*
G01X13255Y20795D01*
G01X13265Y20797D01*
G01X13275Y20800D01*
G01X13285Y20803D01*
G01X13295Y20807D01*
G01X13304Y20811D01*
G01X13314Y20815D01*
G01X13323Y20820D01*
G01X13332Y20825D01*
G01X13341Y20831D01*
G01X13350Y20837D01*
G01X13358Y20843D01*
G01X13367Y20850D01*
G01X13374Y20857D01*
G01X13382Y20864D01*
G01X13389Y20871D01*
G01X13396Y20879D01*
G01X13403Y20887D01*
G01X13409Y20896D01*
G01X13415Y20904D01*
G01X13421Y20913D01*
G01X13426Y20923D01*
G01X13431Y20932D01*
G01X13435Y20941D01*
G01X13439Y20951D01*
G01X13443Y20961D01*
G01X13446Y20971D01*
G01X13449Y20981D01*
G01X13451Y20991D01*
G01X13453Y21002D01*
G01X13454Y21012D01*
G01X13456Y21022D01*
G01X13456Y21033D01*
G01X13456Y21043D01*
G01X13456Y21444D01*
G01X13078Y21444D01*
G37*
G36*
G01X12694Y20790D02*
G01X12705Y20789D01*
G01X12829Y20789D01*
G01X12829Y21444D01*
G01X12451Y21444D01*
G01X12451Y21043D01*
G01X12451Y21033D01*
G01X12451Y21022D01*
G01X12453Y21012D01*
G01X12454Y21002D01*
G01X12456Y20991D01*
G01X12458Y20981D01*
G01X12461Y20971D01*
G01X12464Y20961D01*
G01X12468Y20951D01*
G01X12472Y20941D01*
G01X12476Y20932D01*
G01X12481Y20923D01*
G01X12486Y20913D01*
G01X12492Y20904D01*
G01X12498Y20896D01*
G01X12504Y20887D01*
G01X12511Y20879D01*
G01X12518Y20871D01*
G01X12525Y20864D01*
G01X12533Y20857D01*
G01X12540Y20850D01*
G01X12549Y20843D01*
G01X12557Y20837D01*
G01X12566Y20831D01*
G01X12575Y20825D01*
G01X12584Y20820D01*
G01X12593Y20815D01*
G01X12603Y20811D01*
G01X12612Y20807D01*
G01X12622Y20803D01*
G01X12632Y20800D01*
G01X12642Y20797D01*
G01X12652Y20795D01*
G01X12663Y20793D01*
G01X12673Y20791D01*
G01X12684Y20790D01*
G01X12694Y20790D01*
G37*
G36*
G01X13078Y22898D02*
G01X13078Y22243D01*
G01X13456Y22243D01*
G01X13456Y22644D01*
G01X13456Y22654D01*
G01X13456Y22665D01*
G01X13454Y22675D01*
G01X13453Y22685D01*
G01X13451Y22696D01*
G01X13449Y22706D01*
G01X13446Y22716D01*
G01X13443Y22726D01*
G01X13439Y22736D01*
G01X13435Y22746D01*
G01X13431Y22755D01*
G01X13426Y22764D01*
G01X13421Y22774D01*
G01X13415Y22783D01*
G01X13409Y22791D01*
G01X13403Y22800D01*
G01X13396Y22808D01*
G01X13389Y22816D01*
G01X13382Y22823D01*
G01X13374Y22830D01*
G01X13367Y22837D01*
G01X13358Y22844D01*
G01X13350Y22850D01*
G01X13341Y22856D01*
G01X13332Y22862D01*
G01X13323Y22867D01*
G01X13314Y22872D01*
G01X13304Y22876D01*
G01X13295Y22880D01*
G01X13285Y22884D01*
G01X13275Y22887D01*
G01X13265Y22890D01*
G01X13255Y22892D01*
G01X13244Y22894D01*
G01X13234Y22896D01*
G01X13223Y22897D01*
G01X13213Y22897D01*
G01X13202Y22898D01*
G01X13078Y22898D01*
G37*
G36*
G01X12451Y22644D02*
G01X12451Y22243D01*
G01X12829Y22243D01*
G01X12829Y22898D01*
G01X12705Y22898D01*
G01X12694Y22897D01*
G01X12684Y22897D01*
G01X12673Y22896D01*
G01X12663Y22894D01*
G01X12652Y22892D01*
G01X12642Y22890D01*
G01X12632Y22887D01*
G01X12622Y22884D01*
G01X12612Y22880D01*
G01X12603Y22876D01*
G01X12593Y22872D01*
G01X12584Y22867D01*
G01X12575Y22862D01*
G01X12566Y22856D01*
G01X12557Y22850D01*
G01X12549Y22844D01*
G01X12540Y22837D01*
G01X12533Y22830D01*
G01X12525Y22823D01*
G01X12518Y22816D01*
G01X12511Y22808D01*
G01X12504Y22800D01*
G01X12498Y22791D01*
G01X12492Y22783D01*
G01X12486Y22774D01*
G01X12481Y22764D01*
G01X12476Y22755D01*
G01X12472Y22746D01*
G01X12468Y22736D01*
G01X12464Y22726D01*
G01X12461Y22716D01*
G01X12458Y22706D01*
G01X12456Y22696D01*
G01X12454Y22685D01*
G01X12453Y22675D01*
G01X12451Y22665D01*
G01X12451Y22654D01*
G01X12451Y22644D01*
G37*

%LPD*%
G54D11*
G01X21082Y9652D02*
G01X21082Y12954D01*
G01X22098Y12700D02*
G01X24130Y12700D01*
G01X24892Y11938D01*
G01X24892Y11176D01*
G01X23114Y13970D02*
G01X19558Y13970D01*
G01X18288Y12700D01*
G01X18034Y11176D02*
G01X18034Y8128D01*
G01X24638Y29464D02*
G01X24638Y25908D01*
G01X23622Y24892D01*
G01X30988Y18542D02*
G01X27432Y18542D01*
G01X26670Y19304D01*
G01X26670Y22860D01*
G01X26924Y22860D01*
G01X30226Y19558D02*
G01X27233Y19558D01*
G01X27233Y21899D01*
G01X27686Y22352D01*
G01X27686Y23622D01*
G01X26924Y24384D01*
G01X12446Y5080D02*
G01X28702Y5080D01*
G01X29718Y6096D01*
G01X29718Y13208D02*
G01X29718Y15240D01*
G01X30988Y16510D01*
G54D12*
G01X1270Y11430D02*
G01X1270Y12700D01*
G01X2286Y13716D01*
G01X14782Y13716D01*
G01X17526Y15748D01*
G01X18034Y15748D01*
G01X13208Y14224D02*
G01X13208Y13728D01*
G01X13220Y13716D01*
G01X10510Y13716D02*
G01X10414Y16510D01*
G01X10414Y16764D01*
G01X10457Y17211D01*
G01X10388Y18122D01*
G01X10510Y22509D01*
G01X10160Y22860D01*
G01X10160Y27432D01*
G01X15748Y33020D01*
G01X26416Y33020D01*
G01X12242Y29514D02*
G01X12954Y28194D01*
G01X14224Y26162D01*
G01X15240Y30734D02*
G01X15214Y30734D01*
G01X14846Y31102D01*
G01X26273Y33020D02*
G01X26416Y33020D01*
G01X26416Y29718D01*
G01X27686Y15494D02*
G01X18034Y15494D01*
G01X18034Y15748D01*
G01X12446Y13716D02*
G01X12446Y7874D01*
G01X14224Y6096D01*
G01X11684Y7112D02*
G01X11430Y7112D01*
G01X7874Y3556D01*
G01X7874Y1778D01*
G01X7874Y1778D02*
G01X9906Y1778D01*
G01X9906Y1778D02*
G01X11938Y1778D01*
G01X11938Y1778D02*
G01X13970Y1778D01*
G01X13970Y1778D02*
G01X16002Y1778D01*
G54D11*
G01X15494Y15748D02*
G01X11684Y15748D01*
G01X11430Y16002D01*
G01X23622Y17018D02*
G01X15494Y17018D01*
G01X15240Y16764D01*
G01X15240Y16764D02*
G01X11684Y16764D01*
G01X11430Y17018D01*
G01X24384Y17272D02*
G01X24384Y17526D01*
G01X23622Y18288D01*
G01X11176Y18288D01*
G01X9398Y19304D02*
G01X9398Y21844D01*
G01X25400Y17526D02*
G01X25400Y21336D01*
G01X22860Y23876D01*
G01X11176Y23876D01*
G01X10922Y24130D01*
G01X26162Y17018D02*
G01X26162Y21082D01*
G01X22860Y24384D01*
G01X11938Y24384D01*
G01X11176Y25146D01*
G01X19050Y25146D02*
G01X18364Y25885D01*
G01X17780Y26416D01*
G01X34036Y20320D02*
G01X34036Y8382D01*
G01X29210Y3556D01*
G01X22606Y3556D01*
G01X20320Y1270D01*
G01X16510Y1270D01*
G01X16002Y1778D01*
G01X36830Y24130D02*
G01X36830Y27940D01*
G01X38862Y29972D01*
G01X30480Y21590D02*
G01X30480Y25146D01*
G01X36576Y31242D01*
G01X38100Y31242D01*
G01X38862Y32004D01*
G01X30226Y20574D02*
G01X32766Y20574D01*
G01X34036Y21844D01*
G01X35306Y23114D01*
G01X36830Y23114D01*
G01X37592Y23876D01*
G01X37592Y24384D01*
G01X38862Y25654D01*
G01X20574Y21336D02*
G01X20574Y22860D01*
G01X20320Y23114D01*
G01X20320Y25146D02*
G01X20320Y25654D01*
G01X17526Y28448D01*
G01X13970Y28448D01*
G01X13716Y28702D01*
G01X25400Y24384D02*
G01X25400Y25654D01*
G01X25400Y29972D01*
G01X24892Y30480D01*
G01X16256Y30480D01*
G01X14986Y29210D01*
G01X9144Y25146D02*
G01X9144Y31750D01*
G01X15494Y38100D01*
G01X8128Y24384D02*
G01X8128Y33020D01*
G01X13208Y38100D01*
G01X6096Y24384D02*
G01X6096Y29464D01*
G01X5842Y29718D01*
G01X4064Y27432D02*
G01X4064Y30226D01*
G01X5842Y32004D01*
G01X12954Y21844D02*
G01X17018Y21844D01*
G01X18796Y20066D01*
G01X18796Y19304D01*
G01X11176Y26162D02*
G01X12192Y26670D01*
G01X12192Y27940D01*
G01X10922Y30226D02*
G01X10922Y30988D01*
G01X16764Y36830D01*
G01X18034Y38100D01*
G01X22098Y29634D02*
G01X20403Y29634D01*
G01X20320Y29718D01*
G01X33020Y21844D02*
G01X33020Y22352D01*
G01X32258Y23114D01*
G54D31*
G01X12954Y21844D03*
G54D23*
G01X22098Y29634D03*
G54D32*
G01X7874Y1778D03*
G01X23622Y1524D03*
G01X9906Y1778D03*
G01X11938Y1778D03*
G01X13970Y1778D03*
G01X16002Y1778D03*
G01X25654Y1524D03*
G01X27686Y1524D03*
G01X29718Y1524D03*
G01X31750Y1524D03*
G01X38862Y27686D03*
G01X38862Y29972D03*
G01X38862Y32004D03*
G01X38862Y25654D03*
G01X1778Y24638D03*
G01X1778Y26924D03*
G01X1778Y28956D03*
G01X1778Y30988D03*
G01X1778Y33020D03*
G01X1778Y35306D03*
G01X1778Y37592D03*
G01X8636Y38100D03*
G01X10922Y38100D03*
G01X13208Y38100D03*
G01X15494Y38100D03*
G01X5842Y29718D03*
G01X5842Y32004D03*
G01X22352Y38100D03*
G01X24384Y38100D03*
G01X20320Y38100D03*
G01X18034Y38100D03*
G01X18034Y35052D03*
G01X20320Y35052D03*
G01X1778Y4064D03*
G01X1778Y1778D03*
G54D14*
G01X21082Y9652D03*
G01X21082Y12954D03*
G01X22098Y12700D03*
G01X24892Y11176D03*
G01X23114Y13970D03*
G01X18288Y12700D03*
G01X18034Y11176D03*
G01X18034Y8128D03*
G01X24638Y29464D03*
G01X23622Y24892D03*
G01X30988Y18542D03*
G01X26924Y22860D03*
G01X30226Y19558D03*
G01X26924Y24384D03*
G01X12446Y5080D03*
G01X29718Y6096D03*
G01X29718Y13208D03*
G01X30988Y16510D03*
G01X1270Y11430D03*
G01X13208Y14224D03*
G54D15*
G01X14224Y26162D03*
G54D14*
G01X15240Y30734D03*
G01X26416Y29718D03*
G01X27686Y15494D03*
G01X14224Y6096D03*
G01X11684Y7112D03*
G01X15494Y15748D03*
G01X11430Y16002D03*
G01X23622Y17018D03*
G01X11430Y17018D03*
G01X24384Y17272D03*
G01X11176Y18288D03*
G01X9398Y19304D03*
G01X9398Y21844D03*
G01X25400Y17526D03*
G01X10922Y24130D03*
G01X26162Y17018D03*
G01X11176Y25146D03*
G54D15*
G01X19050Y25146D03*
G01X17780Y26416D03*
G01X34036Y20320D03*
G01X36830Y24130D03*
G01X30480Y21590D03*
G01X30226Y20574D03*
G01X20574Y21336D03*
G01X20320Y23114D03*
G01X20320Y25146D03*
G01X13716Y28702D03*
G01X25400Y24384D03*
G01X14986Y29210D03*
G01X9144Y25146D03*
G01X8128Y24384D03*
G01X6096Y24384D03*
G01X4064Y27432D03*
G01X18796Y19304D03*
G01X33020Y21844D03*
G01X11176Y26162D03*
G01X12192Y27940D03*
G01X10922Y30226D03*
G01X20320Y29718D03*
G54D14*
G01X32258Y23114D03*
M00*
M02*
